G04 ================== begin FILE IDENTIFICATION RECORD ==================*
G04 Layout Name:  F:/Projects/PCB/GitHub/Public/TC358870_Demo/allegro/tc358870_demo.brd*
G04 Film Name:    1_TOP*
G04 File Format:  Gerber RS274X*
G04 File Origin:  Cadence Allegro 17.4-S039*
G04 Origin Date:  Sun Apr 12 21:18:19 2026*
G04 *
G04 Layer:  BOARD GEOMETRY/DESIGN_OUTLINE*
G04 Layer:  ETCH/TOP*
G04 Layer:  PIN/TOP*
G04 Layer:  VIA CLASS/TOP*
G04 *
G04 Offset:    (0.000 0.000)*
G04 Mirror:    No*
G04 Mode:      Positive*
G04 Rotation:  0*
G04 FullContactRelief:  No*
G04 UndefLineWidth:     10.000*
G04 ================== end FILE IDENTIFICATION RECORD ====================*
%FSLAX55Y55*MOIN*%
%IR0*IPPOS*OFA0.00000B0.00000*MIA0B0*SFA1.00000B1.00000*%
%ADD27R,.093539X.074799*%
%ADD10C,.13*%
%ADD30R,.102358X.011811*%
%ADD38C,.009449*%
%ADD46R,.130709X.059059*%
%ADD40R,.106299X.106299*%
%ADD29O,.129921X.059059*%
%ADD15R,.059059X.130709*%
%ADD42R,.009449X.022839*%
%ADD41R,.022839X.009449*%
%ADD32R,.026772X.009839*%
%ADD39R,.009449X.022988*%
%ADD22R,.03402X.0315*%
%ADD12C,.024*%
%ADD19R,.0315X.0315*%
%ADD43R,.0315X.03937*%
%ADD11O,.07087X.043311*%
%ADD36R,.03402X.031748*%
%ADD31R,.023618X.043311*%
%ADD28R,.05315X.055512*%
%ADD20R,.035429X.0315*%
%ADD21R,.0315X.035429*%
%ADD16R,.055512X.05315*%
%ADD14R,.043311X.023618*%
%ADD13R,.031748X.03402*%
%ADD18O,.082681X.043311*%
%ADD37R,.055118X.04724*%
%ADD17R,.044882X.011811*%
%ADD45R,.048421X.073228*%
%ADD25R,.04685X.068031*%
%ADD26R,.054209X.044591*%
%ADD24R,.017909X.033272*%
%ADD47R,.03937X.08661*%
%ADD23O,.090551X.059059*%
%ADD34C,.066929*%
%ADD44R,.07087X.07874*%
%ADD33R,.07874X.07087*%
%ADD35R,.066929X.066929*%
%ADD48C,.004*%
%ADD49C,.008*%
%ADD50C,.00616*%
%ADD51C,.00488*%
%ADD52C,.01*%
G75*
%LPD*%
G75*
G36*
G01X907043Y869000D02*
X912200D01*
X912400Y868800D01*
Y866800D01*
X912300Y866700D01*
X906200D01*
X903200Y863700D01*
Y850400D01*
X903900Y849700D01*
X912200D01*
X912300Y849600D01*
Y847400D01*
X907006D01*
G03X905657Y848268I-1349J-614D01*
G03X904175Y846786I0J-1482D01*
G03X904674Y845677I1482J0D01*
G02X904692Y845092I-267J-301D01*
G01X903000Y843400D01*
Y842624D01*
X902975Y842579D01*
G03X902612Y841156I2602J-1423D01*
G03X902975Y839733I2966J0D01*
G01X903000Y839688D01*
Y839200D01*
X903900Y838300D01*
X904778D01*
X904803Y838293D01*
G03X905578Y838190I774J2863D01*
G01X909515D01*
G03X910289Y838293I0J2966D01*
G01X910315Y838300D01*
X913800D01*
X916900Y841400D01*
X926600D01*
X926700Y841300D01*
Y834600D01*
X922400D01*
Y834000D01*
X921700Y833300D01*
X902148D01*
G03X897650Y834850I-4498J-5750D01*
G03X897442Y834847I1J-7300D01*
G01X897355Y834845D01*
X894900Y837300D01*
Y839457D01*
G03Y842852I-2432J1698D01*
G01Y868700D01*
X895200Y869000D01*
X904271D01*
X904326Y868888D01*
G03X905657Y868059I1330J654D01*
G03X906987Y868888I0J1482D01*
G01X907043Y869000D01*
G37*
G36*
G01X886600Y879700D02*
Y888600D01*
X884300Y890900D01*
Y893200D01*
X888500D01*
X889800Y891900D01*
Y879700D01*
X886600D01*
G37*
G36*
G01X894500Y897000D02*
X901800D01*
X902300Y896500D01*
Y895200D01*
X901600Y894500D01*
X894500D01*
Y897000D01*
G37*
G36*
G01X884200Y900600D02*
X884300Y900700D01*
X888600D01*
Y898400D01*
X889100Y897900D01*
X891200D01*
X893500Y895600D01*
Y893600D01*
X893900Y893200D01*
X898900D01*
Y890800D01*
X892200D01*
X889300Y893700D01*
X888707D01*
X884200Y893700D01*
Y900600D01*
G37*
G36*
G01X894600Y898300D02*
X894500Y898400D01*
X894200D01*
X889000Y903600D01*
X887400D01*
X887200Y903800D01*
Y916700D01*
X893200D01*
Y903700D01*
X896200Y900700D01*
X898800D01*
Y898300D01*
X894600D01*
G37*
G36*
G01X920400Y848500D02*
X920500Y848400D01*
Y843000D01*
X913500D01*
X912300Y844200D01*
X908000D01*
X907900Y844300D01*
Y846600D01*
X913000D01*
X914900Y848500D01*
X920400D01*
G37*
G36*
G01X904917Y860314D02*
G02X904351Y859749I-962J396D01*
G01X905200Y858800D01*
X906048Y859749D01*
G02X905483Y860314I396J962D01*
G03X904917I-283J-283D01*
G37*
G36*
G01X906400Y852235D02*
G02Y853035I960J400D01*
G01X905129Y853105D01*
X905200Y851835D01*
G02X906000I400J-960D01*
G03X906400Y852235I0J400D01*
G37*
G36*
G01X907044Y851145D02*
G02X907862Y850682I-205J-1316D01*
G01X910206Y851269D01*
X907862Y851863D01*
G02X907089Y851660I-668J969D01*
G03X907044Y851145I282J-284D01*
G37*
G36*
G01X943600Y882400D02*
X953600D01*
X954800Y881200D01*
Y870200D01*
X943400D01*
X942450Y869250D01*
Y863850D01*
X942400Y863800D01*
X938900D01*
X936700Y866000D01*
X929600D01*
X925850Y869750D01*
X915050D01*
X915000Y869800D01*
X907800D01*
Y872000D01*
X907900Y872100D01*
X910600D01*
X911312Y872812D01*
G03X911866Y873364I-1797J2359D01*
G01X911874Y873374D01*
X912200Y873700D01*
Y873912D01*
X912218Y873951D01*
G03X912480Y875171I-2703J1220D01*
G03X912218Y876391I-2966J0D01*
G01X912200Y876430D01*
Y877300D01*
X910600Y878900D01*
Y882300D01*
X910700Y882400D01*
X915400D01*
Y879300D01*
X917100Y877600D01*
X942000D01*
X943400Y879000D01*
Y882200D01*
X943600Y882400D01*
G37*
G36*
G01X908000Y879100D02*
X907900Y879000D01*
X905100D01*
X904800Y879300D01*
Y888500D01*
X908000D01*
Y879100D01*
G37*
G36*
G01X907291Y862961D02*
G02X907862Y862493I-382J-1049D01*
G01X910206Y863084D01*
X907862Y863674D01*
G02X907291Y863207I-953J582D01*
G03Y862961I381J-123D01*
G37*
G36*
G01X909199Y897295D02*
G02X910695Y895959I-888J-2499D01*
G01X912566Y897534D01*
X910695Y899109D01*
G02X909199Y897774I-2384J1163D01*
G03Y897295I321J-239D01*
G37*
G36*
G01X909292Y897724D02*
G02X908588Y898480I633J1295D01*
G01X906717Y897586D01*
X908588Y896692D01*
G02X909292Y897448I1337J-538D01*
G03Y897724I-375J138D01*
G37*
G36*
G01X910800Y893900D02*
X913900D01*
X914000Y893800D01*
Y885100D01*
X910800D01*
Y893900D01*
G37*
G36*
G01X897700Y903600D02*
Y916800D01*
X898300Y917400D01*
X908100D01*
X908300Y917200D01*
Y913400D01*
X908200Y913300D01*
X904900D01*
X903500Y911900D01*
Y903600D01*
X897700D01*
G37*
G36*
G01X914300Y901600D02*
X914200Y901500D01*
X905000D01*
Y910900D01*
X905200Y911100D01*
X913800D01*
X914300Y910600D01*
Y901600D01*
G37*
G36*
G01X917253Y827150D02*
G02X916687Y826584I-962J396D01*
G01X917536Y825636D01*
X918384Y826584D01*
G02X917819Y827150I396J962D01*
G03X917253I-283J-283D01*
G37*
G36*
G01X938000Y834600D02*
X933300D01*
Y838300D01*
X928400Y843200D01*
X922900D01*
Y848500D01*
X936200D01*
X936400Y848300D01*
Y843900D01*
X938000Y842300D01*
Y834600D01*
G37*
G36*
G01X917729Y828426D02*
G02X918431Y829271I1440J-482D01*
G01X917536Y831035D01*
X916640Y829271D01*
G02X917342Y828426I-739J-1327D01*
G03X917729I194J350D01*
G37*
G36*
G01X916900Y849700D02*
X916800Y849800D01*
Y857300D01*
X923200Y863700D01*
X936700D01*
X938800Y861600D01*
X947200D01*
X947800Y861000D01*
Y853100D01*
X947700Y853000D01*
X937700D01*
X934400Y849700D01*
X916900D01*
G37*
G36*
G01X919400Y879800D02*
Y888700D01*
X917100Y891000D01*
Y893300D01*
X921300D01*
X922600Y892000D01*
Y879800D01*
X919400D01*
G37*
G36*
G01X927400Y897100D02*
X934700D01*
X935200Y896600D01*
Y895300D01*
X934500Y894600D01*
X927400D01*
Y897100D01*
G37*
G36*
G01X917100Y900700D02*
X917200Y900800D01*
X921500D01*
Y898500D01*
X922000Y898000D01*
X924100D01*
X926400Y895700D01*
Y893700D01*
X926800Y893300D01*
X931800D01*
Y890900D01*
X925100D01*
X922200Y893800D01*
X921507D01*
X917100Y893800D01*
Y900700D01*
G37*
G36*
G01X930700Y903700D02*
Y916900D01*
X931300Y917500D01*
X941100D01*
X941300Y917300D01*
Y913500D01*
X941200Y913400D01*
X937900D01*
X936500Y912000D01*
Y903700D01*
X930700D01*
G37*
G36*
G01X927500Y898400D02*
X927400Y898500D01*
X927100D01*
X921900Y903700D01*
X920300D01*
X920100Y903900D01*
Y916800D01*
X926100D01*
Y903800D01*
X929100Y900800D01*
X931700D01*
Y898400D01*
X927500D01*
G37*
G36*
G01X922345Y934752D02*
G02X921780Y935317I396J962D01*
G01X920831Y934469D01*
X921780Y933620D01*
G02X922345Y934186I962J-396D01*
G03Y934752I-283J283D01*
G37*
G36*
G01X922340Y940657D02*
G02X921775Y941223I396J962D01*
G01X920826Y940374D01*
X921775Y939525D01*
G02X922340Y940091I962J-396D01*
G03Y940657I-283J283D01*
G37*
G36*
G01X922334Y946563D02*
G02X921769Y947128I396J962D01*
G01X920820Y946280D01*
X921769Y945431D01*
G02X922334Y945997I962J-396D01*
G03Y946563I-283J283D01*
G37*
G36*
G01X917557Y958462D02*
G02X917132Y957489I-1472J64D01*
G01X917776Y956379D01*
X918492Y957444D01*
G02X918133Y958442I1115J965D01*
G03X917557Y958462I-298J-267D01*
G37*
G36*
G01X922329Y952468D02*
G02X921764Y953033I396J962D01*
G01X920815Y952185D01*
X921764Y951336D01*
G02X922329Y951902I962J-396D01*
G03Y952468I-283J283D01*
G37*
G36*
G01X919150Y966219D02*
G02X918584Y966784I396J962D01*
G01X917636Y965936D01*
X918584Y965087D01*
G02X919150Y965653I962J-396D01*
G03Y966219I-283J283D01*
G37*
G36*
G01X940800Y843700D02*
X944400D01*
X946400Y841700D01*
X953375D01*
G03X953400Y841700I26J1700D01*
G03X953425Y841700I-1J1700D01*
G01X960400D01*
X960500Y841600D01*
Y839600D01*
X955800D01*
X955600Y839400D01*
Y835200D01*
X953400Y833000D01*
Y830600D01*
X952100Y829300D01*
X949000D01*
Y832400D01*
X951200Y834600D01*
Y838300D01*
X950900Y838600D01*
X946900D01*
X944900Y840600D01*
X940800D01*
Y843700D01*
G37*
G36*
G01Y838100D02*
X940900Y838200D01*
X946593D01*
X946693Y838100D01*
X950300D01*
Y835800D01*
X947900Y833400D01*
Y830600D01*
X946500Y829200D01*
X941200D01*
X940800Y829600D01*
Y838100D01*
G37*
G36*
G01X938700Y850700D02*
X947800D01*
Y847500D01*
X938700D01*
Y850700D01*
G37*
G36*
G01X940900Y879200D02*
X937700D01*
Y888600D01*
X940900D01*
Y879200D01*
G37*
G36*
G01X951145Y863147D02*
G02X952106Y864262I1870J-640D01*
G01X950925Y866527D01*
X949744Y864262D01*
G02X950704Y863147I-909J-1754D01*
G03X951145I221J334D01*
G37*
G36*
G01X942118Y897398D02*
G02X943595Y896059I-901J-2478D01*
G01X945466Y897634D01*
X943595Y899209D01*
G02X942118Y897871I-2378J1140D01*
G03Y897398I323J-236D01*
G37*
G36*
G01X942729Y897896D02*
G02X941488Y899152I928J2157D01*
G01X939617Y897686D01*
X941488Y896220D01*
G02X942729Y897477I2169J-901D01*
G03Y897896I-341J209D01*
G37*
G36*
G01X949400Y892500D02*
X950100Y893200D01*
X958900D01*
X959900Y892200D01*
Y885200D01*
X959600Y884900D01*
X949400D01*
Y892500D01*
G37*
G36*
G01X947200Y901600D02*
X947100Y901500D01*
X937900D01*
Y910900D01*
X938100Y911100D01*
X946700D01*
X947200Y910600D01*
Y901600D01*
G37*
G36*
G01X947814Y931983D02*
G02X947249Y932548I396J962D01*
G01X946300Y931700D01*
X947249Y930852D01*
G02X947814Y931417I962J-396D01*
G03Y931983I-283J283D01*
G37*
G36*
G01X945000Y919700D02*
Y922300D01*
X945500Y922800D01*
X965700D01*
Y920400D01*
X964400Y919100D01*
X945600D01*
X945000Y919700D01*
G37*
G36*
G01X941071Y937523D02*
G02X941556Y937105I-400J-954D01*
G01X942995Y937597D01*
X941556Y938089D01*
G02X941071Y937670I-885J536D01*
G03Y937523I393J-74D01*
G37*
G36*
G01X944719Y937670D02*
G02X944234Y938089I400J954D01*
G01X942795Y937597D01*
X944234Y937105D01*
G02X944719Y937523I885J-536D01*
G03Y937670I-393J73D01*
G37*
G36*
G01X941295D02*
G02X940810Y938089I400J954D01*
G01X939371Y937597D01*
X940810Y937105D01*
G02X941295Y937523I885J-536D01*
G03Y937670I-393J73D01*
G37*
G36*
G01X945184Y937312D02*
G02X945753Y936750I-391J-964D01*
G01X946700Y937600D01*
X945751Y938449D01*
G02X945183Y937880I-967J398D01*
G03X945184Y937312I283J-283D01*
G37*
G36*
G01X948014Y937883D02*
G02X947449Y938449I396J962D01*
G01X946500Y937600D01*
X947449Y936751D01*
G02X948014Y937317I962J-396D01*
G03Y937883I-283J283D01*
G37*
G36*
G01X941071Y949260D02*
G02X941556Y948842I-400J-954D01*
G01X942995Y949334D01*
X941556Y949826D01*
G02X941071Y949407I-885J536D01*
G03Y949260I393J-74D01*
G37*
G36*
G01X944719Y949407D02*
G02X944234Y949826I400J954D01*
G01X942795Y949334D01*
X944234Y948842D01*
G02X944719Y949260I885J-536D01*
G03Y949407I-393J74D01*
G37*
G36*
G01X941295D02*
G02X940810Y949826I400J954D01*
G01X939371Y949334D01*
X940810Y948842D01*
G02X941295Y949260I885J-536D01*
G03Y949407I-393J74D01*
G37*
G36*
G01X945111Y948983D02*
G02X945843Y948583I-113J-1077D01*
G01X946699Y949513D01*
X945751Y950349D01*
G02X945020Y949617I-1244J512D01*
G03X945111Y948983I283J-283D01*
G37*
G36*
G01X944699Y941644D02*
G02X944234Y942026I268J802D01*
G01X942834Y941534D01*
X944234Y941042D01*
G02X944699Y941424I734J-420D01*
G03Y941644I-218J110D01*
G37*
G36*
G01X941091Y941424D02*
G02X941556Y941042I-268J-802D01*
G01X942956Y941534D01*
X941556Y942026D01*
G02X941091Y941644I-734J420D01*
G03Y941424I218J-110D01*
G37*
G36*
G01X937689Y941434D02*
G02X938133Y941042I-295J-780D01*
G01X939532Y941534D01*
X938133Y942026D01*
G02X937689Y941634I-738J388D01*
G03Y941434I223J-100D01*
G37*
G36*
G01X941276Y941644D02*
G02X940810Y942026I268J802D01*
G01X939410Y941534D01*
X940810Y941042D01*
G02X941276Y941424I734J-420D01*
G03Y941644I-218J110D01*
G37*
G36*
G01X944699Y947476D02*
G02X944234Y947858I269J803D01*
G01X942834Y947366D01*
X944234Y946874D01*
G02X944699Y947256I735J-420D01*
G03Y947476I-218J110D01*
G37*
G36*
G01X941091Y947256D02*
G02X941556Y946874I-269J-803D01*
G01X942956Y947366D01*
X941556Y947858D01*
G02X941091Y947476I-735J420D01*
G03Y947256I218J-110D01*
G37*
G36*
G01X937733Y947287D02*
G02X938133Y946874I-348J-737D01*
G01X939532Y947366D01*
X938133Y947858D01*
G02X937733Y947445I-747J324D01*
G03Y947287I231J-79D01*
G37*
G36*
G01X941276Y947476D02*
G02X940810Y947858I269J803D01*
G01X939410Y947366D01*
X940810Y946874D01*
G02X941276Y947256I735J-420D01*
G03Y947476I-218J110D01*
G37*
G36*
G01X944699Y939676D02*
G02X944234Y940058I269J803D01*
G01X942834Y939566D01*
X944234Y939074D01*
G02X944699Y939456I735J-420D01*
G03Y939676I-218J110D01*
G37*
G36*
G01X941091Y939456D02*
G02X941556Y939074I-269J-803D01*
G01X942956Y939566D01*
X941556Y940058D01*
G02X941091Y939676I-735J420D01*
G03Y939456I218J-110D01*
G37*
G36*
G01X937482Y939306D02*
G02X938133Y939074I28J-951D01*
G01X939532Y939568D01*
X938133Y940058D01*
G02X937456Y939652I-851J651D01*
G03X937482Y939306I184J-160D01*
G37*
G36*
G01X941276Y939676D02*
G02X940810Y940058I269J803D01*
G01X939410Y939566D01*
X940810Y939074D01*
G02X941276Y939456I735J-420D01*
G03Y939676I-218J110D01*
G37*
G36*
G01X944699Y945507D02*
G02X944234Y945889I268J802D01*
G01X942834Y945397D01*
X944234Y944905D01*
G02X944699Y945287I734J-420D01*
G03Y945507I-218J110D01*
G37*
G36*
G01X941091Y945287D02*
G02X941556Y944905I-268J-802D01*
G01X942956Y945397D01*
X941556Y945889D01*
G02X941091Y945507I-734J420D01*
G03Y945287I218J-110D01*
G37*
G36*
G01X937864Y945380D02*
G02X938133Y945027I-374J-563D01*
G01X939532Y945397D01*
X938133Y945767D01*
G02X937864Y945414I-642J210D01*
G03Y945380I243J-17D01*
G37*
G36*
G01X941276Y945507D02*
G02X940810Y945889I268J802D01*
G01X939410Y945397D01*
X940810Y944905D01*
G02X941276Y945287I734J-420D01*
G03Y945507I-218J110D01*
G37*
G36*
G01X944699Y933770D02*
G02X944234Y934152I268J802D01*
G01X942834Y933660D01*
X944234Y933168D01*
G02X944699Y933550I734J-420D01*
G03Y933770I-218J110D01*
G37*
G36*
G01X941091Y933550D02*
G02X941556Y933168I-268J-802D01*
G01X942956Y933660D01*
X941556Y934152D01*
G02X941091Y933770I-734J420D01*
G03Y933550I218J-110D01*
G37*
G36*
G01X937482Y933400D02*
G02X938133Y933168I28J-951D01*
G01X939532Y933662D01*
X938133Y934152D01*
G02X937456Y933746I-851J652D01*
G03X937482Y933400I184J-160D01*
G37*
G36*
G01X941276Y933770D02*
G02X940810Y934152I268J802D01*
G01X939410Y933660D01*
X940810Y933168D01*
G02X941276Y933550I734J-420D01*
G03Y933770I-218J110D01*
G37*
G36*
G01X944699Y935739D02*
G02X944234Y936121I269J803D01*
G01X942834Y935629D01*
X944234Y935137D01*
G02X944699Y935519I735J-420D01*
G03Y935739I-218J110D01*
G37*
G36*
G01X941091Y935519D02*
G02X941556Y935137I-269J-803D01*
G01X942956Y935629D01*
X941556Y936121D01*
G02X941091Y935739I-735J420D01*
G03Y935519I218J-110D01*
G37*
G36*
G01X937689Y935529D02*
G02X938133Y935137I-294J-781D01*
G01X939532Y935629D01*
X938133Y936121D01*
G02X937689Y935729I-738J389D01*
G03Y935529I222J-100D01*
G37*
G36*
G01X941276Y935739D02*
G02X940810Y936121I269J803D01*
G01X939410Y935629D01*
X940810Y935137D01*
G02X941276Y935519I735J-420D01*
G03Y935739I-218J110D01*
G37*
G36*
G01X944706Y959148D02*
G02X944234Y959532I299J850D01*
G01X942818Y959040D01*
X944234Y958548D01*
G02X944706Y958932I771J-466D01*
G03Y959148I-288J108D01*
G37*
G36*
G01X941084Y958932D02*
G02X941556Y958548I-299J-850D01*
G01X942972Y959040D01*
X941556Y959532D01*
G02X941084Y959148I-771J466D01*
G03Y958932I289J-108D01*
G37*
G36*
G01X937689Y958951D02*
G02X938133Y958548I-342J-823D01*
G01X939548Y959040D01*
X938133Y959532D01*
G02X937689Y959129I-786J420D01*
G03Y958951I295J-89D01*
G37*
G36*
G01X941282Y959148D02*
G02X940810Y959532I299J850D01*
G01X939394Y959040D01*
X940810Y958548D01*
G02X941282Y958932I771J-466D01*
G03Y959148I-289J108D01*
G37*
G36*
G01X944706Y963085D02*
G02X944234Y963469I299J850D01*
G01X942818Y962977D01*
X944234Y962485D01*
G02X944706Y962869I771J-466D01*
G03Y963085I-288J108D01*
G37*
G36*
G01X941084Y962869D02*
G02X941556Y962485I-299J-850D01*
G01X942972Y962977D01*
X941556Y963469D01*
G02X941084Y963085I-771J466D01*
G03Y962869I289J-108D01*
G37*
G36*
G01X937660D02*
G02X938133Y962485I-299J-850D01*
G01X939548Y962977D01*
X938133Y963469D01*
G02X937660Y963085I-771J466D01*
G03Y962869I289J-108D01*
G37*
G36*
G01X941282Y963085D02*
G02X940810Y963469I299J850D01*
G01X939394Y962977D01*
X940810Y962485D01*
G02X941282Y962869I771J-466D01*
G03Y963085I-289J108D01*
G37*
G36*
G01X941084Y964837D02*
G02X941556Y964453I-298J-850D01*
G01X942972Y964945D01*
X941556Y965437D01*
G02X941084Y965053I-771J466D01*
G03Y964837I289J-108D01*
G37*
G36*
G01X941282Y965053D02*
G02X940810Y965437I298J850D01*
G01X939394Y964945D01*
X940810Y964453D01*
G02X941282Y964837I771J-466D01*
G03Y965053I-289J108D01*
G37*
G36*
G01X941071Y960934D02*
G02X941556Y960516I-400J-954D01*
G01X942995Y961008D01*
X941556Y961500D01*
G02X941071Y961081I-885J536D01*
G03Y960934I393J-74D01*
G37*
G36*
G01X944719Y961081D02*
G02X944234Y961500I400J954D01*
G01X942795Y961008D01*
X944234Y960516D01*
G02X944719Y960934I885J-536D01*
G03Y961081I-393J74D01*
G37*
G36*
G01X941295D02*
G02X940810Y961500I400J954D01*
G01X939371Y961008D01*
X940810Y960516D01*
G02X941295Y960934I885J-536D01*
G03Y961081I-393J74D01*
G37*
G36*
G01X946278Y960725D02*
G02X946844Y960159I-396J-962D01*
G01X947792Y961008D01*
X946844Y961856D01*
G02X946278Y961291I-962J396D01*
G03Y960725I283J-283D01*
G37*
G36*
G01X937300Y956200D02*
G02Y957000I960J400D01*
G01X936029Y957071D01*
X936100Y955800D01*
G02X936900I400J-960D01*
G03X937300Y956200I0J400D01*
G37*
G36*
G01X945200Y955200D02*
G02X946000I400J-960D01*
G01X946071Y956471D01*
X944800Y956400D01*
G02Y955600I-960J-400D01*
G03X945200Y955200I400J0D01*
G37*
G36*
G01X944699Y953381D02*
G02X944234Y953763I268J802D01*
G01X942834Y953271D01*
X944234Y952779D01*
G02X944699Y953161I734J-420D01*
G03Y953381I-218J110D01*
G37*
G36*
G01X941091Y953161D02*
G02X941556Y952779I-268J-802D01*
G01X942956Y953271D01*
X941556Y953763D01*
G02X941091Y953381I-734J420D01*
G03Y953161I218J-110D01*
G37*
G36*
G01X937734Y953192D02*
G02X938133Y952779I-349J-735D01*
G01X939532Y953271D01*
X938133Y953763D01*
G02X937734Y953350I-747J322D01*
G03Y953192I231J-79D01*
G37*
G36*
G01X941276Y953381D02*
G02X940810Y953763I268J802D01*
G01X939410Y953271D01*
X940810Y952779D01*
G02X941276Y953161I734J-420D01*
G03Y953381I-218J110D01*
G37*
G36*
G01X944699Y951413D02*
G02X944234Y951795I269J803D01*
G01X942834Y951303D01*
X944234Y950811D01*
G02X944699Y951193I735J-420D01*
G03Y951413I-218J110D01*
G37*
G36*
G01X941091Y951193D02*
G02X941556Y950811I-269J-803D01*
G01X942956Y951303D01*
X941556Y951795D01*
G02X941091Y951413I-735J420D01*
G03Y951193I218J-110D01*
G37*
G36*
G01X937503Y950977D02*
G02X938133Y950811I100J-899D01*
G01X939532Y951307D01*
X938133Y951795D01*
G02X937457Y951322I-933J613D01*
G03X937503Y950977I193J-150D01*
G37*
G36*
G01X941276Y951413D02*
G02X940810Y951795I269J803D01*
G01X939410Y951303D01*
X940810Y950811D01*
G02X941276Y951193I735J-420D01*
G03Y951413I-218J110D01*
G37*
G36*
G01X954823Y844754D02*
G02X953914Y844484I-812J1067D01*
G01X953318Y843342D01*
X954594Y843516D01*
G02X955157Y844279I1291J-363D01*
G03X954823Y844754I-392J79D01*
G37*
G36*
G01X955147Y844155D02*
G02X956262Y843194I-640J-1870D01*
G01X958527Y844375D01*
X956262Y845556D01*
G02X955147Y844596I-1754J909D01*
G03Y844155I334J-221D01*
G37*
G36*
G01X956300Y835700D02*
X956200Y835800D01*
Y838100D01*
X965500D01*
X965700Y837900D01*
Y828700D01*
X965500Y828500D01*
X960600D01*
X959900Y829200D01*
Y832900D01*
X957100Y835700D01*
X956300D01*
G37*
G36*
G01X953500Y868600D02*
X955800D01*
Y864200D01*
X956200Y863800D01*
X956700D01*
X957029Y863800D01*
X957061Y863789D01*
G03X957224Y863761I163J473D01*
G01X958439D01*
X962000Y860200D01*
X966100D01*
Y857000D01*
X966000Y856900D01*
X962600D01*
X960600Y858900D01*
X956700D01*
X956100Y858300D01*
Y853800D01*
X954900Y852600D01*
Y849000D01*
X954700Y848800D01*
X951600D01*
Y852400D01*
X953500Y854300D01*
Y860624D01*
X953511Y860655D01*
G03X953600Y861200I-1611J545D01*
G03X953511Y861745I-1700J0D01*
G01X953500Y861776D01*
Y868600D01*
G37*
G36*
G01X950546Y862623D02*
G02X950816Y861714I-1067J-812D01*
G01X951958Y861118D01*
X951784Y862394D01*
G02X951021Y862957I363J1291D01*
G03X950546Y862623I-79J-392D01*
G37*
G36*
G01X957100Y858200D02*
X957200Y858300D01*
X958800D01*
X962500Y854600D01*
X966000D01*
X967000Y853600D01*
Y849400D01*
X966400Y848800D01*
X957100D01*
Y858200D01*
G37*
G36*
G01X961400Y882100D02*
X962300Y883000D01*
X971100D01*
X971200Y882900D01*
Y878400D01*
X971800Y877800D01*
X974000D01*
X976000Y875800D01*
Y868900D01*
X975900Y868800D01*
X968000D01*
Y875100D01*
X967000Y876100D01*
X961400D01*
Y882100D01*
G37*
G36*
G01X967543Y864218D02*
G02X966047Y865554I888J2500D01*
G01X964176Y863979D01*
X966047Y862404D01*
G02X967543Y863740I2384J-1164D01*
G03Y864218I-321J239D01*
G37*
G36*
G01X959600Y864300D02*
X957200D01*
Y873700D01*
X958800Y875300D01*
X966000D01*
X966100Y875200D01*
Y867900D01*
X960000D01*
X959600Y867500D01*
Y864300D01*
G37*
G36*
G01X967700Y890500D02*
X968900Y891700D01*
X987200D01*
X987700Y891200D01*
Y888600D01*
X989400Y886900D01*
X995600D01*
Y886000D01*
X990500D01*
X989300Y884800D01*
X984500D01*
Y888600D01*
X984000Y889100D01*
X977400D01*
X976800Y888500D01*
Y885600D01*
X976600Y885400D01*
X967700D01*
Y890500D01*
G37*
G36*
G01X961166Y926296D02*
G02X959671Y927631I888J2500D01*
G01X957799Y926056D01*
X959671Y924481D01*
G02X961166Y925817I2384J-1164D01*
G03Y926296I-321J239D01*
G37*
G36*
G01X960700Y944300D02*
G02X961500I400J-960D01*
G01X961571Y945571D01*
X960300Y945500D01*
G02Y944700I-960J-400D01*
G03X960700Y944300I400J0D01*
G37*
G36*
G01X952286Y937417D02*
G02X952851Y936852I-396J-962D01*
G01X953800Y937700D01*
X952851Y938549D01*
G02X952286Y937983I-962J396D01*
G03Y937417I283J-283D01*
G37*
G36*
G01X954500Y938900D02*
G02X953700I-400J960D01*
G01X953629Y937629D01*
X954900Y937700D01*
G02Y938500I960J400D01*
G03X954500Y938900I-400J0D01*
G37*
G36*
G01X963421Y936419D02*
G02X963830Y937379I1453J-52D01*
G01X963204Y938500D01*
X962500Y937425D01*
G02X962842Y936439I-1110J-937D01*
G03X963421Y936419I299J266D01*
G37*
G36*
G01X964614Y938683D02*
G02X964048Y939249I396J962D01*
G01X963100Y938400D01*
X964048Y937552D01*
G02X964614Y938117I962J-396D01*
G03Y938683I-283J283D01*
G37*
G36*
G01X961000Y933700D02*
G02X961800I400J-960D01*
G01X961871Y934971D01*
X960600Y934900D01*
G02Y934100I-960J-400D01*
G03X961000Y933700I400J0D01*
G37*
G36*
G01X962903Y936558D02*
G02X961974Y936087I-1076J971D01*
G01X961733Y934826D01*
X962962Y935199D01*
G02X963332Y936172I1450J6D01*
G03X962903Y936558I-400J-12D01*
G37*
G36*
G01X964916Y964732D02*
G02X966257Y966245I2522J-885D01*
G01X964669Y968046D01*
X963082Y966245D01*
G02X964435Y964732I-1176J-2413D01*
G03X964916Y964732I240J320D01*
G37*
G36*
G01X964436Y965955D02*
G02X963088Y964447I-2520J897D01*
G01X964675Y962646D01*
X966263Y964447D01*
G02X964915Y965955I1172J2404D01*
G03X964436I-240J-320D01*
G37*
G36*
G01X956468Y963029D02*
G02X955902Y963595I396J962D01*
G01X954954Y962746D01*
X955902Y961898D01*
G02X956468Y962463I962J-396D01*
G03Y963029I-283J283D01*
G37*
G36*
G01X955537Y962503D02*
G02X957156Y961045I-971J-2705D01*
G01X958843Y962746D01*
X957156Y964447D01*
G02X955537Y962989I-2590J1247D01*
G03Y962503I318J-243D01*
G37*
G36*
G01X965728Y974257D02*
G02X967346Y972799I-971J-2705D01*
G01X969034Y974500D01*
X967346Y976201D01*
G02X965728Y974743I-2590J1247D01*
G03Y974257I318J-243D01*
G37*
G36*
G01X960614Y974783D02*
G02X959749Y975649I607J1473D01*
G01X958802Y974820D01*
X959583Y973852D01*
G02X960449Y974117I751J-906D01*
G03X960614Y974783I-117J382D01*
G37*
G36*
G01X988000Y878900D02*
X992100Y883000D01*
X995600D01*
Y882000D01*
X993200D01*
X992700Y881500D01*
Y879000D01*
X993300Y878400D01*
X996300D01*
X996600Y878700D01*
Y881000D01*
X997500D01*
X997600Y880900D01*
Y877400D01*
X991600Y871400D01*
Y868800D01*
X990000Y867200D01*
X982600D01*
X980100Y864700D01*
Y851800D01*
X980000Y851700D01*
X974100D01*
Y867200D01*
X974800Y867900D01*
X977000D01*
X977600Y868500D01*
Y869700D01*
X986800Y878900D01*
X988000D01*
G37*
G36*
G01X984600Y864800D02*
X996300D01*
X999300Y861800D01*
X1022300D01*
Y857900D01*
X998400D01*
X992200Y851700D01*
X984600D01*
Y864800D01*
G37*
G36*
G01X995600Y884900D02*
Y884000D01*
X992200D01*
X987700Y879500D01*
X984500D01*
Y882900D01*
X985500Y883900D01*
X989900D01*
X990900Y884900D01*
X995600D01*
G37*
G36*
G01X970965Y863696D02*
G02X971531Y863131I-396J-962D01*
G01X972479Y863979D01*
X971531Y864828D01*
G02X970965Y864262I-962J396D01*
G03Y863696I283J-283D01*
G37*
G36*
G01X981800Y882800D02*
Y879500D01*
X973300D01*
Y882700D01*
X973400Y882800D01*
X981800D01*
G37*
G36*
G01X983100Y896800D02*
X988500D01*
X990200Y895100D01*
Y891100D01*
X992500Y888800D01*
X995600D01*
Y887900D01*
X989700D01*
X988200Y889400D01*
Y891407D01*
X988100Y891507D01*
Y892000D01*
X986800Y893300D01*
X983200D01*
X983100Y893400D01*
Y896800D01*
G37*
G36*
G01X973990Y904898D02*
G02X973103Y904897I-444J1064D01*
G01X973046Y903646D01*
X974297Y903702D01*
G02X974298Y904590I1064J443D01*
G03X973990Y904898I-308J0D01*
G37*
G36*
G01X983600Y905300D02*
X983200Y905700D01*
Y915300D01*
X984600Y916700D01*
X1003300D01*
X1003400Y916600D01*
Y913800D01*
X1002300Y912700D01*
X989900D01*
X986200Y909000D01*
Y905300D01*
X983600D01*
G37*
G36*
G01X979472Y930100D02*
X988200D01*
X988300Y930000D01*
Y925300D01*
X988200Y925200D01*
X980100D01*
X979300Y924400D01*
Y916600D01*
X980900Y915000D01*
Y905500D01*
X976400D01*
X976200Y905700D01*
Y926828D01*
X979472Y930100D01*
G37*
G36*
G01X968582Y923454D02*
G02X967952Y922824I-1072J441D01*
G01X968800Y921898D01*
X969648Y922824D01*
G02X969018Y923454I442J1072D01*
G03X968582I-218J-218D01*
G37*
G36*
G01X971582Y921079D02*
G02X970952Y920448I-1072J441D01*
G01X971800Y919523D01*
X972648Y920448D01*
G02X972018Y921079I442J1072D01*
G03X971582I-218J-218D01*
G37*
G36*
G01X973311Y937170D02*
G02X973584Y937170I136J-327D01*
G01X973619Y937678D01*
X973112Y937643D01*
G02X973111Y937370I-327J-136D01*
G03X973311Y937170I200J0D01*
G37*
G36*
G01Y934611D02*
G02X973584Y934611I136J-327D01*
G01X973619Y935119D01*
X973112Y935084D01*
G02X973111Y934811I-327J-136D01*
G03X973311Y934611I200J0D01*
G37*
G36*
G01X975870D02*
G02X976143Y934611I136J-327D01*
G01X976178Y935119D01*
X975670Y935084D01*
G02X975670Y934811I-327J-136D01*
G03X975870Y934611I200J0D01*
G37*
G36*
G01X978541Y934463D02*
G02X978813Y934645I354J-236D01*
G01X978728Y935127D01*
X978230Y935084D01*
G02X978230Y934630I-545J-227D01*
G03X978541Y934463I200J0D01*
G37*
G36*
G01X980989Y934611D02*
G02X981261Y934611I136J-327D01*
G01X981296Y935119D01*
X980789Y935084D01*
G02X980789Y934811I-327J-136D01*
G03X980989Y934611I200J0D01*
G37*
G36*
G01X979174Y937370D02*
G02X979174Y937643I327J136D01*
G01X978667Y937678D01*
X978702Y937170D01*
G02X978974Y937170I136J-327D01*
G03X979174Y937370I0J200D01*
G37*
G36*
G01X976923Y942369D02*
G02X977810Y942601I753J-1067D01*
G01X978484Y943699D01*
X977203Y943560D01*
G02X976614Y942859I-1230J436D01*
G03X976923Y942369I388J-98D01*
G37*
G36*
G01X977688Y939919D02*
G02X978253Y939354I-396J-962D01*
G01X979202Y940202D01*
X978253Y941050D01*
G02X977688Y940485I-962J396D01*
G03Y939919I283J-283D01*
G37*
G36*
G01X975670Y948108D02*
G02X975671Y947879I-274J-114D01*
G01X976186Y947836D01*
X976143Y948351D01*
G02X975914Y948351I-114J274D01*
G03X975670Y948108I0J-244D01*
G37*
G36*
G01X973033Y947762D02*
G02X973250Y947545I-152J-369D01*
G01X973644Y947870D01*
X973315Y948260D01*
G02X973098Y948154I-236J207D01*
G03X973033Y947762I107J-219D01*
G37*
G36*
G01X973088Y950266D02*
G02X973250Y950105I-113J-275D01*
G01X973645Y950439D01*
X973250Y950773D01*
G02X973088Y950612I-275J113D01*
G03X973088Y950266I173J-173D01*
G37*
G36*
G01Y945148D02*
G02X973250Y944986I-113J-275D01*
G01X973645Y945320D01*
X973250Y945654D01*
G02X973088Y945493I-275J113D01*
G03X973088Y945148I173J-173D01*
G37*
G36*
G01X975670Y945549D02*
G02X975671Y945320I-274J-114D01*
G01X976186Y945277D01*
X976143Y945792D01*
G02X975914Y945792I-114J274D01*
G03X975670Y945549I0J-244D01*
G37*
G36*
G01X981120Y958643D02*
G02X980927Y958450I-327J135D01*
G01X981261Y958066D01*
X981595Y958450D01*
G02X981402Y958643I135J327D01*
G03X981120I-141J-142D01*
G37*
G36*
G01X975870Y957644D02*
G02X976143Y957644I136J-327D01*
G01X976178Y958152D01*
X975670Y958116D01*
G02X975670Y957844I-327J-136D01*
G03X975870Y957644I200J0D01*
G37*
G36*
G01X970383Y966386D02*
G02X970949Y966951I962J-396D01*
G01X970100Y967900D01*
X969252Y966951D01*
G02X969817Y966386I-396J-962D01*
G03X970383I283J283D01*
G37*
G36*
G01X973442Y958643D02*
G02X973250Y958450I-327J135D01*
G01X973584Y958066D01*
X973918Y958450D01*
G02X973725Y958643I135J327D01*
G03X973442I-141J-142D01*
G37*
G36*
G01X978230Y958389D02*
G02X978230Y958116I-327J-136D01*
G01X978737Y958081D01*
X978702Y958589D01*
G02X978430Y958589I-136J327D01*
G03X978230Y958389I0J-200D01*
G37*
G36*
G01X974408Y967400D02*
G02X975300I446J-1070D01*
G01X975354Y968654D01*
X974100Y968600D01*
G02Y967708I-1070J-446D01*
G03X974408Y967400I308J0D01*
G37*
G36*
G01X978974Y956030D02*
G02X978702Y956030I-136J327D01*
G01X978667Y955522D01*
X979174Y955557D01*
G02X979174Y955830I327J136D01*
G03X978974Y956030I-200J0D01*
G37*
G36*
G01X977600Y953700D02*
G02Y952900I-960J-400D01*
G01X978871Y952829D01*
X978800Y954100D01*
G02X978000I-400J960D01*
G03X977600Y953700I0J-400D01*
G37*
G36*
G01X971752Y955886D02*
G02X971287Y956824I986J1073D01*
G01X970026Y957067D01*
X970385Y955834D01*
G02X971363Y955459I1J-1457D01*
G03X971752Y955886I-10J400D01*
G37*
G36*
G01X983680Y958643D02*
G02X983487Y958450I-327J135D01*
G01X983821Y958066D01*
X984155Y958450D01*
G02X983962Y958643I135J327D01*
G03X983680I-141J-142D01*
G37*
G36*
G01X983348Y955830D02*
G02X983349Y955557I-327J-136D01*
G01X983856Y955522D01*
X983821Y956030D01*
G02X983548Y956030I-136J327D01*
G03X983348Y955830I0J-200D01*
G37*
G36*
G01X975670Y953226D02*
G02X975671Y952998I-274J-114D01*
G01X976186Y952955D01*
X976143Y953470D01*
G02X975914Y953470I-114J274D01*
G03X975670Y953226I0J-244D01*
G37*
G36*
G01X973061Y952852D02*
G02X973250Y952664I-132J-321D01*
G01X973645Y952993D01*
X973281Y953358D01*
G02X973092Y953224I-255J159D01*
G03X973061Y952852I142J-199D01*
G37*
G36*
G01X975670Y950667D02*
G02X975671Y950439I-274J-114D01*
G01X976186Y950396D01*
X976143Y950911D01*
G02X975914Y950911I-114J274D01*
G03X975670Y950667I0J-244D01*
G37*
G36*
G01X981081Y954470D02*
G02X981049Y953932I-712J-228D01*
G01X982026Y953158D01*
X981762Y954376D01*
G02X981265Y954585I21J747D01*
G03X981081Y954470I-3J-200D01*
G37*
G36*
G01X981402Y955030D02*
G02X981595Y955223I327J-135D01*
G01X981261Y955607D01*
X980927Y955223D01*
G02X981120Y955030I-135J-327D01*
G03X981402I141J142D01*
G37*
G36*
G01X974100Y969492D02*
G02Y968600I-1070J-446D01*
G01X975354Y968546D01*
X975300Y969800D01*
G02X974408I-446J1070D01*
G03X974100Y969492I0J-308D01*
G37*
G36*
G01X979592Y969629D02*
G02X979500Y970337I897J477D01*
G01X978459Y971065D01*
X978660Y969811D01*
G02X979258Y969419I-221J-991D01*
G03X979592Y969629I41J305D01*
G37*
G36*
G01X977021Y970782D02*
G02X977652Y970152I-441J-1072D01*
G01X978577Y971000D01*
X977652Y971848D01*
G02X977021Y971218I-1072J442D01*
G03Y970782I218J-218D01*
G37*
G36*
G01X973254Y979382D02*
G02X973885Y978752I-441J-1072D01*
G01X974811Y979600D01*
X973885Y980449D01*
G02X973254Y979818I-1072J442D01*
G03Y979382I218J-218D01*
G37*
G36*
G01X1005838Y846646D02*
G02X1002800Y846646I-1519J3646D01*
G01X1002746Y843246D01*
X1006146Y843300D01*
G02X1006146Y846338I3646J1519D01*
G03X1005838Y846646I-308J0D01*
G37*
G36*
G01X1000956Y881486D02*
G02X1000544Y881018I-938J411D01*
G01X1001016Y879769D01*
X1001489Y881018D01*
G02X1001077Y881486I526J878D01*
G03X1000956I-61J-395D01*
G37*
G36*
G01X998986D02*
G02X998574Y881018I-938J411D01*
G01X999047Y879769D01*
X999519Y881018D01*
G02X999107Y881486I526J878D01*
G03X998986I-61J-395D01*
G37*
G36*
G01X998700Y875400D02*
X998800Y875500D01*
X1002100D01*
X1002500Y875900D01*
Y881000D01*
X1003400D01*
X1003500Y880900D01*
Y876100D01*
X1004100Y875500D01*
X1007200D01*
Y872100D01*
X998900D01*
X998700Y872300D01*
Y875400D01*
G37*
G36*
G01X994600Y903200D02*
X998200D01*
Y899000D01*
X999500Y897700D01*
Y894700D01*
X999286Y894486D01*
G02X998600Y894771I-284J284D01*
G01Y896500D01*
X996400Y898700D01*
X996207D01*
X995000Y898700D01*
X994600Y899100D01*
Y903200D01*
G37*
G36*
G01X1001500Y893800D02*
X1000600D01*
Y899600D01*
X1001000Y900000D01*
Y903200D01*
X1004300D01*
X1004400Y903100D01*
Y899500D01*
X1001500Y896600D01*
Y893800D01*
G37*
G36*
G01X997500Y894700D02*
X997286Y894486D01*
G02X996600Y894771I-284J284D01*
G01Y896000D01*
X995400Y897200D01*
X991900D01*
X989300Y899800D01*
Y903400D01*
X992400D01*
Y899900D01*
X994100Y898200D01*
X996000D01*
X997500Y896700D01*
Y894700D01*
G37*
G36*
G01X1003500Y893800D02*
X1002500D01*
Y896800D01*
X1006200Y900500D01*
Y903200D01*
X1006400Y903400D01*
X1017800D01*
X1019700Y901500D01*
Y898500D01*
X1018300Y897100D01*
X1010400D01*
X1008900Y898600D01*
X1005800D01*
X1003500Y896300D01*
Y893800D01*
G37*
G36*
G01X996078Y892382D02*
G02X995610Y892793I411J938D01*
G01X994368Y892321D01*
X995610Y891848D01*
G02X996078Y892260I878J-526D01*
G03Y892382I-395J61D01*
G37*
G36*
G01X999330Y883026D02*
G02X999895Y883592I962J-396D01*
G01X999047Y884541D01*
X998198Y883592D01*
G02X998764Y883026I-396J-962D01*
G03X999330I283J283D01*
G37*
G36*
G01X999847Y885641D02*
G02X999047I-400J960D01*
G01X998976Y884370D01*
X1000247Y884441D01*
G02Y885241I960J400D01*
G03X999847Y885641I-400J0D01*
G37*
G36*
G01X998285Y927437D02*
G02X999781Y926101I-888J-2500D01*
G01X1001652Y927676D01*
X999781Y929251D01*
G02X998285Y927915I-2384J1164D01*
G03Y927437I321J-239D01*
G37*
G36*
G01X998041Y927799D02*
G02X996800Y929056I927J2157D01*
G01X993944Y927590D01*
X996800Y926124D01*
G02X998041Y927381I2168J-901D01*
G03Y927799I-341J209D01*
G37*
G36*
G01X993835Y931193D02*
G02X992578Y929952I-2157J927D01*
G01X994044Y927490D01*
X995510Y929952D01*
G02X994253Y931193I901J2168D01*
G03X993835I-209J-341D01*
G37*
G36*
G01X988600Y932464D02*
G02Y931200I-1516J-632D01*
G01X989854Y931116D01*
X990001Y932346D01*
G02X989201Y932810I156J1191D01*
G03X988600Y932464I-201J-346D01*
G37*
G36*
G01X1001797Y918902D02*
G02X1003323Y920589I2820J-1017D01*
G01X1001552Y922264D01*
X999781Y920589D01*
G02X1001307Y918902I-1294J-2704D01*
G03X1001797I245J316D01*
G37*
G36*
G01X994304Y915875D02*
G02X996800Y918535I4459J-1684D01*
G01X994044Y920997D01*
X991288Y918535D01*
G02X993784Y915875I-1963J-4344D01*
G03X994304I260J304D01*
G37*
G36*
G01X994199Y934557D02*
G02X994391Y934750I327J-135D01*
G01X994057Y935134D01*
X993723Y934750D01*
G02X993916Y934557I-135J-327D01*
G03X994199I141J142D01*
G37*
G36*
G01X991770Y935556D02*
G02X991498Y935556I-136J327D01*
G01X991463Y935049D01*
X991970Y935084D01*
G02X991970Y935356I327J136D01*
G03X991770Y935556I-200J0D01*
G37*
G36*
G01X997143Y940343D02*
G02X996950Y940536I135J327D01*
G01X996566Y940202D01*
X996950Y939868D01*
G02X997143Y940061I327J-135D01*
G03Y940343I-142J141D01*
G37*
G36*
G01X990846Y950544D02*
G02X990352Y950049I-842J347D01*
G01X991200Y949075D01*
X992048Y950049D01*
G02X991554Y950544I347J842D01*
G03X990846I-353J-354D01*
G37*
G36*
G01X997143Y948020D02*
G02X996950Y948213I135J327D01*
G01X996566Y947879D01*
X996950Y947545D01*
G02X997143Y947738I327J-135D01*
G03Y948020I-142J141D01*
G37*
G36*
G01X997112Y950612D02*
G02X996950Y950773I113J275D01*
G01X996555Y950439D01*
X996950Y950105D01*
G02X997112Y950266I275J-113D01*
G03X997112Y950612I-173J173D01*
G37*
G36*
G01X997423Y944969D02*
G02X997088Y945306I279J612D01*
G01X996575Y945348D01*
X996804Y944887D01*
G02X997242Y944701I-27J-671D01*
G03X997423Y944969I-6J200D01*
G37*
G36*
G01X994530Y939930D02*
G02X994530Y940202I327J136D01*
G01X994022Y940237D01*
X994057Y939730D01*
G02X994330Y939730I136J-327D01*
G03X994530Y939930I0J200D01*
G37*
G36*
G01Y942489D02*
G02X994530Y942761I327J136D01*
G01X994022Y942796D01*
X994057Y942289D01*
G02X994330Y942289I136J-327D01*
G03X994530Y942489I0J200D01*
G37*
G36*
G01Y947607D02*
G02X994530Y947879I327J136D01*
G01X994022Y947915D01*
X994057Y947407D01*
G02X994330Y947407I136J-327D01*
G03X994530Y947607I0J200D01*
G37*
G36*
G01X994530Y950211D02*
G02X994529Y950439I274J114D01*
G01X994014Y950482D01*
X994057Y949967D01*
G02X994286Y949967I114J-274D01*
G03X994530Y950211I0J244D01*
G37*
G36*
G01X994530Y945048D02*
G02X994530Y945320I327J136D01*
G01X994022Y945356D01*
X994057Y944848D01*
G02X994330Y944848I136J-327D01*
G03X994530Y945048I0J200D01*
G37*
G36*
G01X989034Y938239D02*
G02X989788Y938805I1128J-716D01*
G01X989957Y940082D01*
X988821Y939475D01*
G02X988556Y938569I-1333J-102D01*
G03X989034Y938239I395J61D01*
G37*
G36*
G01X999600Y936600D02*
G02Y935800I-960J-400D01*
G01X1000871Y935729D01*
X1000800Y937000D01*
G02X1000000I-400J960D01*
G03X999600Y936600I0J-400D01*
G37*
G36*
G01X997888Y952715D02*
G02X998552Y952052I-465J-1129D01*
G01X999500Y952892D01*
X998604Y953793D01*
G02X997940Y953325I-893J562D01*
G03X997888Y952715I230J-327D01*
G37*
G36*
G01X991697Y950957D02*
G02X991792Y951852I1122J334D01*
G01X990765Y952520D01*
X989951Y951551D01*
G02X990846Y950656I-626J-1521D01*
G03X991697Y950957I353J354D01*
G37*
G36*
G01X989434Y951883D02*
G02X990028Y951488I-177J-911D01*
G01X990924Y952411D01*
X989951Y953249D01*
G02X989357Y952654I-1011J416D01*
G03X989434Y951883I354J-353D01*
G37*
G36*
G01X992529Y952998D02*
X991741D01*
X990706Y952367D01*
X991649Y951551D01*
G02X992812Y952715I1979J-815D01*
G01X992529Y952998D01*
G37*
G36*
G01X988943Y952654D02*
G02X988449Y953148I347J842D01*
G01X987475Y952300D01*
X988449Y951452D01*
G02X988943Y951946I842J-347D01*
G03Y952654I-354J353D01*
G37*
G36*
G01X996475Y958643D02*
G02X996282Y958450I-327J135D01*
G01X996616Y958066D01*
X996950Y958450D01*
G02X996758Y958643I135J327D01*
G03X996475I-141J-142D01*
G37*
G36*
G01X996758Y959428D02*
G02X997465Y960135I1202J-494D01*
G01X996616Y961034D01*
X995768Y960135D01*
G02X996475Y959428I-494J-1202D01*
G03X996758I141J141D01*
G37*
G36*
G01X993916Y958643D02*
G02X993723Y958450I-327J135D01*
G01X994057Y958066D01*
X994391Y958450D01*
G02X994199Y958643I135J327D01*
G03X993916I-141J-142D01*
G37*
G36*
G01X993585Y955830D02*
G02X993585Y955557I-327J-136D01*
G01X994092Y955522D01*
X994057Y956030D01*
G02X993785Y956030I-136J327D01*
G03X993585Y955830I0J-200D01*
G37*
G36*
G01X991357Y958643D02*
G02X991164Y958450I-327J135D01*
G01X991498Y958066D01*
X991832Y958450D01*
G02X991639Y958643I135J327D01*
G03X991357I-141J-142D01*
G37*
G36*
G01X991026Y955830D02*
G02X991026Y955557I-327J-136D01*
G01X991533Y955522D01*
X991498Y956030D01*
G02X991226Y956030I-136J327D01*
G03X991026Y955830I0J-200D01*
G37*
G36*
G01X986238Y958643D02*
G02X986046Y958450I-327J135D01*
G01X986380Y958066D01*
X986714Y958450D01*
G02X986521Y958643I135J327D01*
G03X986238I-141J-142D01*
G37*
G36*
G01X985907Y955830D02*
G02X985908Y955557I-327J-136D01*
G01X986415Y955522D01*
X986380Y956030D01*
G02X986107Y956030I-136J327D01*
G03X985907Y955830I0J-200D01*
G37*
G36*
G01X988798Y958643D02*
G02X988605Y958450I-327J135D01*
G01X988939Y958066D01*
X989273Y958450D01*
G02X989080Y958643I135J327D01*
G03X988798I-141J-142D01*
G37*
G36*
G01X988467Y955830D02*
G02X988467Y955557I-327J-136D01*
G01X988974Y955522D01*
X988939Y956030D01*
G02X988667Y956030I-136J327D01*
G03X988467Y955830I0J-200D01*
G37*
G36*
G01X999386Y955517D02*
G02X999951Y954952I-396J-962D01*
G01X1000900Y955800D01*
X999951Y956648D01*
G02X999386Y956083I-962J396D01*
G03Y955517I283J-283D01*
G37*
G36*
G01X989976Y972949D02*
G02X990302Y972634I-285J-622D01*
G01X991559Y972686D01*
X990459Y973297D01*
G02X990027Y973163I-408J549D01*
G03X989976Y972949I187J-157D01*
G37*
G36*
G01X990431Y975655D02*
G02X991387I478J-1147D01*
G01X991430Y976898D01*
X990187Y976855D01*
G02Y975899I-1147J-478D01*
G03X990431Y975655I244J0D01*
G37*
G36*
G01X1015838Y846646D02*
G02X1012800Y846646I-1519J3646D01*
G01X1012746Y843246D01*
X1016146Y843300D01*
G02X1016146Y846338I3646J1519D01*
G03X1015838Y846646I-308J0D01*
G37*
G36*
G01X1031400Y869500D02*
X1031300Y869400D01*
X1027900D01*
Y870100D01*
X1025600Y872400D01*
X1016700D01*
Y880300D01*
X1023800D01*
X1025300Y878800D01*
Y875100D01*
X1027800Y872600D01*
X1031300D01*
X1031400Y872500D01*
Y869500D01*
G37*
G36*
G01X1006500Y881000D02*
X1007400D01*
Y878800D01*
X1008500Y877700D01*
X1010800D01*
X1013000Y875500D01*
Y872200D01*
X1014400Y870800D01*
X1018600D01*
X1020400Y869000D01*
Y863200D01*
X1019500Y862300D01*
X1012200D01*
X1008064Y866436D01*
Y869560D01*
G03X1008018Y869770I-500J0D01*
G01X1008000Y869810D01*
Y875400D01*
X1007700Y875700D01*
Y876000D01*
X1007420D01*
X1007382Y876016D01*
G03X1007188Y876055I-194J-461D01*
G01X1004845D01*
X1004500Y876400D01*
Y881000D01*
X1005400D01*
Y878700D01*
X1005500Y878600D01*
X1006400D01*
X1006500Y878700D01*
Y881000D01*
G37*
G36*
G01X1012455Y881674D02*
G02X1011968Y880993I-1174J324D01*
G01X1012067Y879706D01*
X1012947Y880650D01*
G02X1012991Y881487I1165J358D01*
G03X1012455Y881674I-361J-172D01*
G37*
G36*
G01X1006007Y898100D02*
X1008693D01*
X1010193Y896600D01*
X1010300D01*
X1010800Y896100D01*
X1039800D01*
Y890200D01*
X1037700Y888100D01*
X1016700D01*
X1015900Y888900D01*
Y893100D01*
X1014800Y894200D01*
X1009400D01*
X1008500Y895100D01*
Y896000D01*
X1008400Y896100D01*
X1007300D01*
Y893800D01*
X1006400D01*
Y896200D01*
X1005400D01*
Y893800D01*
X1004500D01*
Y896593D01*
X1006007Y898100D01*
G37*
G36*
G01X1011462Y882686D02*
G02X1010673Y882951I-31J1213D01*
G01X1009431Y882483D01*
X1010673Y882007D01*
G02X1011423Y882107I516J-1011D01*
G03X1011462Y882686I-255J308D01*
G37*
G36*
G01X1011141Y886477D02*
G02X1010673Y886889I411J938D01*
G01X1009431Y886416D01*
X1010673Y885944D01*
G02X1011141Y886356I878J-526D01*
G03Y886477I-395J61D01*
G37*
G36*
G01X1015231Y884759D02*
G02X1014886Y883764I-1464J-49D01*
G01X1015604Y882700D01*
X1016233Y883819D01*
G02X1015808Y884783I1038J1034D01*
G03X1015231Y884759I-277J-288D01*
G37*
G36*
G01X1011141Y884508D02*
G02X1010673Y884919I411J938D01*
G01X1009431Y884447D01*
X1010673Y883974D01*
G02X1011141Y884386I878J-526D01*
G03Y884508I-395J61D01*
G37*
G36*
G01X1012900Y891280D02*
G02X1013700I400J-960D01*
G01X1013771Y892551D01*
X1012500Y892480D01*
G02Y891680I-960J-400D01*
G03X1012900Y891280I400J0D01*
G37*
G36*
G01X1011423Y890726D02*
G02X1010673Y890825I-234J1111D01*
G01X1009431Y890349D01*
X1010673Y889881D01*
G02X1011462Y890146I758J-947D01*
G03X1011423Y890726I-294J271D01*
G37*
G36*
G01X1018300Y884300D02*
G02Y883500I-960J-400D01*
G01X1019571Y883429D01*
X1019500Y884700D01*
G02X1018700I-400J960D01*
G03X1018300Y884300I0J-400D01*
G37*
G36*
G01X1011141Y888444D02*
G02X1010673Y888856I411J938D01*
G01X1009431Y888384D01*
X1010673Y887911D01*
G02X1011141Y888323I878J-526D01*
G03Y888444I-395J61D01*
G37*
G36*
G01X1006200Y909100D02*
X1014900D01*
X1015200Y908800D01*
Y905900D01*
X1006200D01*
Y909100D01*
G37*
G36*
G01X1017382Y916779D02*
G02X1016752Y916148I-1072J441D01*
G01X1017600Y915223D01*
X1018448Y916148D01*
G02X1017818Y916779I442J1072D01*
G03X1017382I-218J-218D01*
G37*
G36*
G01X1005086Y933917D02*
G02X1005651Y933352I-396J-962D01*
G01X1006600Y934200D01*
X1005651Y935049D01*
G02X1005086Y934483I-962J396D01*
G03Y933917I283J-283D01*
G37*
G36*
G01X1015105Y963584D02*
G02X1015325Y962742I-942J-696D01*
G01X1016544Y962456D01*
X1016181Y963655D01*
G02X1015326Y963820I-221J1151D01*
G03X1015105Y963584I23J-243D01*
G37*
G36*
G01X1015241Y965336D02*
G02X1016224Y965554I761J-1107D01*
G01X1016545Y966763D01*
X1015312Y966555D01*
G02X1015004Y965596I-1339J-98D01*
G03X1015241Y965336I243J-16D01*
G37*
G36*
G01X1021228Y957325D02*
G02X1020552Y956648I-1149J473D01*
G01X1021400Y955739D01*
X1022249Y956648D01*
G02X1021573Y957325I473J1149D01*
G03X1021228I-173J-173D01*
G37*
G36*
G01X1043800Y831300D02*
X1036700Y838400D01*
Y845100D01*
X1032600D01*
X1032500Y845200D01*
Y848100D01*
X1032800Y848400D01*
X1035200D01*
X1040800Y854000D01*
X1046600D01*
X1047300Y853300D01*
Y831300D01*
X1043800D01*
G37*
G36*
G01X1033594Y835470D02*
G02X1034295Y836316I1440J-481D01*
G01X1033400Y838079D01*
X1032505Y836316D01*
G02X1033206Y835470I-738J-1327D01*
G03X1033594I194J350D01*
G37*
G36*
G01X1033117Y834614D02*
G02X1032551Y834049I-962J396D01*
G01X1033400Y833100D01*
X1034248Y834049D01*
G02X1033683Y834614I396J962D01*
G03X1033117I-283J-283D01*
G37*
G36*
G01X1033718Y849321D02*
G02X1034348Y849952I1072J-441D01*
G01X1033500Y850877D01*
X1032652Y849952D01*
G02X1033282Y849321I-442J-1072D01*
G03X1033718I218J218D01*
G37*
G36*
G01X1033325Y849225D02*
G02X1032505Y848284I-1576J546D01*
G01X1033397Y846544D01*
X1034295Y848284D01*
G02X1033701Y849205I854J1203D01*
G03X1033325Y849225I-201J-233D01*
G37*
G36*
G01X1037200Y898400D02*
X1037100Y898500D01*
Y908700D01*
X1038800Y910400D01*
Y912800D01*
X1043100D01*
Y910400D01*
X1047400Y906100D01*
X1052800D01*
Y898400D01*
X1037200D01*
G37*
G36*
G01X1029700Y898300D02*
X1029600Y898400D01*
Y904200D01*
X1022600Y911200D01*
Y914200D01*
X1022700Y914300D01*
X1026600D01*
X1028200Y912700D01*
X1032400D01*
X1033600Y911500D01*
Y898400D01*
X1033500Y898300D01*
X1029700D01*
G37*
G36*
G01X1033582Y919306D02*
G02X1032467Y920266I640J1870D01*
G01X1030202Y919085D01*
X1032467Y917904D01*
G02X1033582Y918865I1754J-909D01*
G03Y919306I-334J221D01*
G37*
G36*
G01X1034232Y918780D02*
G02X1034798Y918214I-396J-962D01*
G01X1035746Y919063D01*
X1034798Y919912D01*
G02X1034232Y919346I-962J396D01*
G03Y918780I283J-283D01*
G37*
G36*
G01X1038800Y918100D02*
X1038700Y918200D01*
Y921300D01*
X1036700Y923300D01*
Y926600D01*
X1036800Y926700D01*
X1039700D01*
X1043100Y923300D01*
Y918100D01*
X1038800D01*
G37*
G36*
G01X1022312Y928712D02*
G02X1023268I478J-1147D01*
G01X1023312Y929955D01*
X1022068Y929912D01*
G02Y928956I-1147J-478D01*
G03X1022312Y928712I244J0D01*
G37*
G36*
G01X1021968Y926699D02*
G02Y925743I-1147J-478D01*
G01X1023212Y925700D01*
X1023169Y926943D01*
G02X1022212I-478J1147D01*
G03X1021968Y926699I0J-244D01*
G37*
G36*
G01X1029900Y931656D02*
G02Y930700I-1147J-478D01*
G01X1031143Y930657D01*
X1031100Y931900D01*
G02X1030144I-478J1147D01*
G03X1029900Y931656I0J-244D01*
G37*
G36*
G01X1022744Y936925D02*
G02X1023700I478J-1147D01*
G01X1023743Y938168D01*
X1022500Y938125D01*
G02Y937169I-1147J-478D01*
G03X1022744Y936925I244J0D01*
G37*
G36*
G01X1033443Y942614D02*
G02X1034207Y941947I-419J-1250D01*
G01X1035260Y942592D01*
X1034611Y943645D01*
G02X1033484Y943010I-1326J1035D01*
G03X1033443Y942614I120J-212D01*
G37*
G36*
G01X1033000Y934356D02*
G02Y933200I-1387J-578D01*
G01X1034239Y933153D01*
X1034250Y934395D01*
G02X1033294Y934595I-238J1248D01*
G03X1033000Y934356I-50J-239D01*
G37*
G36*
G01X1022093Y934510D02*
G02X1022507Y934029I-419J-779D01*
G01X1023755Y933873D01*
X1022880Y934776D01*
G02X1022246Y934817I-264J843D01*
G03X1022093Y934510I79J-231D01*
G37*
G36*
G01X1024100Y956156D02*
G02Y955200I-1147J-478D01*
G01X1025343Y955157D01*
X1025300Y956400D01*
G02X1024344I-478J1147D01*
G03X1024100Y956156I0J-244D01*
G37*
G36*
G01X1028479Y961124D02*
G02X1027557Y960790I-876J975D01*
G01X1027360Y959554D01*
X1028553Y959933D01*
G02X1028746Y960894I1288J241D01*
G03X1028479Y961124I-244J-13D01*
G37*
G36*
G01X1030459Y960697D02*
G02X1030459Y959859I-1006J-419D01*
G01X1031643Y959757D01*
X1031541Y960941D01*
G02X1030703Y960941I-419J1007D01*
G03X1030459Y960697I0J-244D01*
G37*
G36*
G01X1038395Y973182D02*
G02X1038175Y974024I942J696D01*
G01X1036956Y974310D01*
X1037319Y973111D01*
G02X1038174Y972946I221J-1151D01*
G03X1038395Y973182I-23J243D01*
G37*
G36*
G01X1038259Y971430D02*
G02X1037276Y971212I-761J1107D01*
G01X1036955Y970003D01*
X1038188Y970211D01*
G02X1038496Y971170I1339J98D01*
G03X1038259Y971430I-243J16D01*
G37*
G36*
G01X1051806Y829791D02*
G02X1053154Y831299I2520J-897D01*
G01X1051566Y833100D01*
X1049979Y831299D01*
G02X1051326Y829791I-1172J-2404D01*
G03X1051806I240J320D01*
G37*
G36*
G01X1045700Y921900D02*
X1060000D01*
X1060400Y921500D01*
Y910300D01*
X1056900D01*
X1053100Y914100D01*
X1045700D01*
Y921900D01*
G37*
G36*
G01X1047786Y909217D02*
G02X1048351Y908652I-396J-962D01*
G01X1049300Y909500D01*
X1048351Y910349D01*
G02X1047786Y909783I-962J396D01*
G03Y909217I283J-283D01*
G37*
G36*
G01X1043900Y914857D02*
G02X1043097Y916526I1650J1821D01*
G01X1040834Y915367D01*
X1043097Y914164D01*
G02X1043840Y914540I886J-830D01*
G03X1043900Y914857I-330J226D01*
G37*
G36*
G01X1052935Y931651D02*
G02X1053740Y931107I-272J-1270D01*
G01X1054861Y931663D01*
X1053851Y932402D01*
G02X1052965Y932002I-938J899D01*
G03X1052935Y931651I153J-190D01*
G37*
G36*
G01X1053600Y928956D02*
G02Y927444I-1814J-756D01*
G01X1054833Y927392D01*
X1054923Y928611D01*
G02X1053967Y929167I189J1425D01*
G03X1053600Y928956I-123J-211D01*
G37*
G36*
G01X1053962Y945562D02*
G02X1054962I500J-1200D01*
G01X1054997Y946797D01*
X1053762Y946762D01*
G02Y945762I-1200J-500D01*
G03X1053962Y945562I200J0D01*
G37*
G36*
G01X1056338Y941038D02*
G02Y942038I1200J500D01*
G01X1055103Y942074D01*
X1055138Y940838D01*
G02X1056138I500J-1200D01*
G03X1056338Y941038I0J200D01*
G37*
G36*
G01X976918Y919115D02*
G02X976252Y918448I-1133J467D01*
G01X977092Y917500D01*
X977994Y918394D01*
G02X977529Y919061I567J891D01*
G03X976918Y919115I-328J-229D01*
G37*
G54D10*
X897650Y827550D03*
X896850Y992250D03*
X1066750Y829850D03*
X1066250Y991250D03*
G54D20*
X912466Y897534D03*
X906817Y897586D03*
X912466Y903046D03*
X906817Y903098D03*
X942683Y842069D03*
Y836557D03*
X940470Y860015D03*
X940476Y849099D03*
Y854611D03*
X946072Y849099D03*
Y854611D03*
X940470Y865527D03*
X945366Y897634D03*
X939717Y897686D03*
X945366Y903146D03*
X939717Y903198D03*
X946799Y920544D03*
Y926056D03*
X963960Y842093D03*
Y836581D03*
X964270Y858537D03*
Y853025D03*
X964276Y863979D03*
Y869491D03*
X969428Y881464D03*
X963812D03*
X969428Y886976D03*
X963812D03*
X952299Y920544D03*
Y926056D03*
X957899Y920544D03*
Y926056D03*
X994934Y862809D03*
X1000521Y868414D03*
Y873926D03*
X994934Y868321D03*
X996412Y907086D03*
Y901574D03*
X1001552Y922164D03*
Y927676D03*
X1013540Y901728D03*
Y907240D03*
X1029628Y876531D03*
Y871019D03*
X1024412Y912719D03*
Y918231D03*
X1058700Y906244D03*
Y911756D03*
G54D11*
X891090Y841155D03*
Y875170D03*
G54D21*
X906889Y892024D03*
X912401D03*
X950537Y831030D03*
X945025D03*
X939789Y892124D03*
X945301D03*
X955979Y831024D03*
X961491D03*
X953231Y850683D03*
X958743D03*
X953207Y871960D03*
X958719D03*
X979124Y895024D03*
X984636D03*
X984656Y907300D03*
X979144D03*
X984455Y912900D03*
X978944D03*
X985344Y901628D03*
X990856D03*
X1005989Y867789D03*
X1011501D03*
X1044844Y851900D03*
X1050356D03*
G54D12*
X892285Y860314D03*
X894149Y886554D03*
X894143Y881143D03*
X891000Y895300D03*
X886300D03*
X905200Y858900D03*
Y853035D03*
X900965Y895735D03*
X906889Y892024D03*
X906817Y897586D03*
X912400Y886754D03*
X912401Y892024D03*
X906600Y914900D03*
X910200Y909500D03*
X912900Y906400D03*
X914600Y932700D03*
X913700Y947000D03*
X917536Y825736D03*
X917753Y845807D03*
X930700Y874800D03*
X933465Y895835D03*
X927049Y886654D03*
X922200Y895700D03*
X918800D03*
X927043Y881442D03*
X920931Y934469D03*
X920926Y940374D03*
X920920Y946280D03*
X917779Y956479D03*
X920915Y952185D03*
X917736Y965936D03*
X950537Y831030D03*
X942683Y842069D03*
X945025Y831030D03*
X942683Y836557D03*
X940476Y849099D03*
X946072D03*
Y854611D03*
X946100Y859300D03*
X940470Y860015D03*
X940476Y854611D03*
X940470Y865527D03*
X939100Y875700D03*
X939500Y871300D03*
X942600Y875700D03*
X943600Y872800D03*
X934600Y874800D03*
X939729Y891996D03*
X939717Y897686D03*
X951191Y886385D03*
X950800Y890700D03*
X945241Y891996D03*
X945300Y886854D03*
X939509Y915011D03*
X942600Y909700D03*
X945400Y906800D03*
X946400Y931700D03*
X946600Y949500D03*
X947200Y943500D03*
X946600Y937600D03*
X946000Y956400D03*
X936100Y957000D03*
X947692Y961008D03*
X964000Y842056D03*
X955979Y831024D03*
X953400Y843400D03*
X963960Y836581D03*
X961491Y831024D03*
X964270Y858537D03*
X953231Y850683D03*
X951900Y861200D03*
X964270Y853025D03*
X958743Y850683D03*
X963800Y878000D03*
X953207Y871960D03*
X952700Y876700D03*
X964276Y869491D03*
X958719Y871960D03*
X963812Y886976D03*
X957600Y890800D03*
Y886500D03*
X968800Y921975D03*
X963600Y920900D03*
X966879Y942579D03*
X961800Y934900D03*
X963200Y938400D03*
X953700Y937700D03*
X961500Y945500D03*
X961224Y959476D03*
X958737Y967946D03*
X955054Y962746D03*
X958900Y974800D03*
X962900Y977200D03*
X969400Y877600D03*
X972379Y863979D03*
X986107Y881203D03*
X980169Y886403D03*
X979124Y895024D03*
X985344Y901628D03*
X973100Y903700D03*
X971800Y919600D03*
X977100Y917600D03*
X978400Y943646D03*
X970300Y942000D03*
X979102Y940202D03*
X970100Y967800D03*
X975300Y968600D03*
X978800Y952900D03*
X976500Y965100D03*
X970100Y957000D03*
X982000Y953200D03*
X980600Y979700D03*
X978500Y971000D03*
X974734Y979600D03*
X974800Y974566D03*
X994934Y868321D03*
X1000521Y868414D03*
X1003319Y888521D03*
X999047Y884441D03*
X998900Y891100D03*
X996412Y907086D03*
X994044Y914956D03*
X989789Y915111D03*
X998200Y914900D03*
X1001552Y914952D03*
X989800Y931200D03*
X991200Y949200D03*
Y944200D03*
X989900Y940000D03*
X1000800Y935800D03*
X999400Y952900D03*
X987600Y952300D03*
X990800Y952400D03*
X996616Y960984D03*
X1000800Y955800D03*
X988600Y970000D03*
X995200Y978000D03*
X991500Y972700D03*
X991387Y976855D03*
X1020234Y876313D03*
X1005989Y867789D03*
X1011533Y873854D03*
X1011501Y867789D03*
X1017019Y868855D03*
X1013200Y864000D03*
X1016900Y863800D03*
X1012100Y879800D03*
X1005601Y873854D03*
X1013800Y898400D03*
X1017700Y898600D03*
X1005300Y884000D03*
X1005600Y891000D03*
X1013700Y892480D03*
X1015600Y882800D03*
X1019500Y883500D03*
X1013540Y901728D03*
X1017600Y901900D03*
Y915300D03*
X1006436Y922536D03*
X1019268Y924812D03*
Y930712D03*
X1020800Y921300D03*
X1012000D03*
X1020100Y918100D03*
X1006500Y934200D03*
X1019200Y934500D03*
X1018400Y959000D03*
X1016500Y962498D03*
Y966722D03*
X1021400Y955800D03*
X1017900Y970400D03*
X1033400Y833200D03*
X1033500Y850800D03*
X1029628Y871019D03*
Y876531D03*
X1024499Y868855D03*
X1033245Y882671D03*
X1022800Y885000D03*
X1024412Y912719D03*
X1027300Y908900D03*
X1031600Y908700D03*
X1035646Y919063D03*
X1024412Y918231D03*
X1023268Y929912D03*
X1027200Y930700D03*
X1034200Y933200D03*
X1023169Y925743D03*
X1031100Y930700D03*
X1037800Y934900D03*
X1029700Y941100D03*
X1033300Y946100D03*
X1023700Y938125D03*
X1035200Y942600D03*
X1023700Y933901D03*
X1033300Y939100D03*
X1026300Y963900D03*
X1029300Y955100D03*
X1032500Y963700D03*
X1038800Y966500D03*
X1025300Y955200D03*
X1027400Y959600D03*
X1031600Y959800D03*
X1035100Y977700D03*
X1037000Y974268D03*
Y970044D03*
X1049900Y826800D03*
X1056303Y841597D03*
X1050356Y851900D03*
X1055800Y915900D03*
X1049200Y909500D03*
X1046300Y925000D03*
X1051500Y925100D03*
X1048200Y927600D03*
X1054800Y931668D03*
Y927444D03*
X1054962Y946762D03*
X1055138Y942038D03*
X1054600Y936124D03*
X1054900Y950700D03*
X1042500Y963900D03*
X1047500Y961500D03*
X1054400Y954500D03*
X1073400Y895400D03*
X1073600Y902700D03*
X1073500Y899300D03*
X1058700Y906200D03*
Y919300D03*
X1057900Y924600D03*
X1062212Y938888D03*
X1065788Y936788D03*
X1067100Y946000D03*
Y948900D03*
X1065900Y940988D03*
X1067100Y952000D03*
X1067400Y954900D03*
X1063800Y964000D03*
X1076800Y895200D03*
X1075000Y892400D03*
X1076400Y902500D03*
X1076600Y898900D03*
G54D30*
X929128Y932500D03*
Y948248D03*
Y946280D03*
Y944311D03*
Y942343D03*
Y940374D03*
Y938406D03*
Y936437D03*
Y934469D03*
Y950217D03*
Y967933D03*
Y965966D03*
Y963996D03*
Y962028D03*
Y960059D03*
Y958091D03*
Y956122D03*
Y954155D03*
Y952185D03*
G54D13*
X888211Y881342D03*
X894143D03*
X888217Y886554D03*
X894149D03*
X906468Y886754D03*
X912400D03*
X921111Y881442D03*
X927043D03*
X921117Y886654D03*
X927049D03*
X939368Y886854D03*
X945300D03*
X964669Y967946D03*
X958737D03*
X964675Y962746D03*
X958743D03*
X968934Y974500D03*
X980175Y881203D03*
X986107D03*
X980169Y886403D03*
X986101D03*
X974866Y974500D03*
X1005601Y873854D03*
X1011533D03*
X1032407Y924954D03*
X1038339D03*
X1045634Y833000D03*
X1051566D03*
G54D31*
X950925Y856191D03*
Y866427D03*
X958405Y856191D03*
X954665Y866427D03*
X958405D03*
G54D22*
X906609Y909401D03*
Y914911D03*
X951191Y880875D03*
Y886385D03*
X939509Y909501D03*
Y915011D03*
G54D40*
X1002003Y887397D03*
G54D50*
G01X929128Y960059D02*
X935646D01*
G02X936772Y959593I0J-1591D01*
G01X936859Y959506D01*
G03X937984Y959040I1125J1125D01*
G01X939471D01*
G01X929128Y962028D02*
X935766D01*
G03X936807Y962459I0J1471D01*
G01X936894Y962546D01*
G02X937934Y962977I1040J-1040D01*
G01X939471D01*
G01X929128Y967933D02*
X934361D01*
G02X936539Y967031I0J-3080D01*
G01X938369Y965201D01*
G03X938986Y964945I617J617D01*
G01X939471D01*
G01Y959040D02*
X942895D01*
G01D02*
X945977D01*
G02X946692Y958743I0J-1012D01*
G01X946736Y958700D01*
G03X948648I956J956D01*
G01X949387Y959438D01*
G03X950000Y960919I-1481J1481D01*
G01Y962724D01*
G02X950902Y964902I3080J0D01*
G01X955870Y969870D01*
G02X957352Y970484I1481J-1481D01*
G01X972145D01*
G02X974314Y969586I0J-3067D01*
G01X975300Y968600D01*
G01X939471Y962977D02*
X942895D01*
G01D02*
X945121D01*
G03X947299Y963879I0J3080D01*
G01X954418Y970998D01*
G02X956596Y971900I2178J-2178D01*
G01X975017D01*
G02X975998Y971494I0J-1388D01*
G01X976085Y971407D01*
G03X977067Y971000I981J981D01*
G01X978500D01*
G01X939471Y964945D02*
X942895D01*
G01X974734Y979600D02*
X959673D01*
G03X957495Y978698I0J-3080D01*
G01X943997Y965201D01*
G02X943380Y964945I-617J617D01*
G01X942895D01*
G01X973100Y903700D02*
X973990Y904590D01*
G03X974792Y906527I-1937J1937D01*
G01Y926119D01*
G02X975406Y927600I2095J0D01*
G01X980305Y932500D01*
G01X968800Y921975D02*
Y923724D01*
G02X969702Y925902I3080J0D01*
G01X976300Y932500D01*
G01X978303D02*
X972386Y926583D01*
G03X971800Y925169I1414J-1414D01*
G01Y919600D01*
G01X975300Y968600D02*
X973800Y967100D01*
Y963018D01*
X976118Y960700D01*
G01X978500Y971000D02*
X978943Y970556D01*
G02X979300Y969696I-861J-861D01*
G01Y960700D01*
G01X1002800Y843300D02*
X1006352Y846852D01*
G02X1008530Y847755I2178J-2178D01*
G01X1013976D01*
G03X1016154Y848657I0J3080D01*
G01X1065382Y897884D01*
G03X1066284Y900062I-2178J2178D01*
G01Y927340D01*
G03X1065382Y929518I-3080J0D01*
G01X1062600Y932300D01*
G01X1017600Y915300D02*
Y919424D01*
G03X1016698Y921602I-3080J0D01*
G01X1007310Y930990D01*
G03X1005132Y931892I-2178J-2178D01*
G01X998660D01*
G02X998031Y932152I0J889D01*
G01X997683Y932500D01*
G01X1012800Y843300D02*
X1066798Y897298D01*
G03X1067700Y899476I-2178J2178D01*
G01Y928201D01*
G03X1066798Y930379I-3080J0D01*
G01X1062600Y934576D01*
G01X1033500Y850800D02*
Y846721D01*
G01D02*
X1033400Y846621D01*
G54D23*
X902671Y921674D03*
Y978761D03*
G54D14*
X886424Y891995D03*
X896660Y895735D03*
Y891995D03*
X886424Y899475D03*
X896660D03*
X919324Y892095D03*
X929560Y895835D03*
Y892095D03*
X919324Y899575D03*
X929560D03*
X948191Y836895D03*
Y844375D03*
X958427D03*
Y840635D03*
Y836895D03*
X1030302Y911605D03*
Y915345D03*
Y919085D03*
X1040932Y915345D03*
Y911605D03*
Y919085D03*
G54D32*
X939471Y947366D03*
Y949334D03*
X942895D03*
Y947366D03*
X939471Y945397D03*
X942895D03*
X939471Y935629D03*
Y937597D03*
Y939566D03*
Y941534D03*
X942895D03*
Y939566D03*
Y937597D03*
Y935629D03*
X939471Y933660D03*
X942895D03*
X939471Y959040D03*
Y961008D03*
Y962977D03*
Y964945D03*
X942895D03*
Y962977D03*
Y961008D03*
Y959040D03*
X939471Y957071D03*
X942895D03*
X939471Y951303D03*
Y953271D03*
X942895D03*
Y951303D03*
G54D41*
X994468Y882479D03*
Y884447D03*
Y886416D03*
Y888384D03*
Y890353D03*
Y892321D03*
X1009531Y886416D03*
Y884447D03*
Y882479D03*
Y892321D03*
Y890353D03*
Y888384D03*
G54D51*
G01X939471Y933660D02*
X938160D01*
G03X936843Y933114I0J-1862D01*
G01X936774Y933046D01*
G02X935457Y932500I-1317J1317D01*
G01X929128D01*
G01X939471Y941534D02*
X937912D01*
G02X937019Y941904I0J1263D01*
G01X936950Y941973D01*
G03X936056Y942343I-893J-893D01*
G01X929128D01*
G01X939471Y951303D02*
X938311D01*
G03X937083Y950794I0J-1736D01*
G01X937014Y950725D01*
G02X935786Y950217I-1228J1228D01*
G01X929128D01*
G01X939471Y947366D02*
X937964D01*
G02X936982Y947772I0J1388D01*
G01X936913Y947841D01*
G03X935931Y948248I-982J-982D01*
G01X929128D01*
G01X939471Y939566D02*
X938160D01*
G03X936843Y939020I0J-1862D01*
G01X936774Y938951D01*
G02X935457Y938406I-1317J1317D01*
G01X929128D01*
G01X939471Y945397D02*
X938108D01*
G03X936880Y944888I0J-1736D01*
G01X936811Y944820D01*
G02X935584Y944311I-1228J1228D01*
G01X929128D01*
G01X939471Y935629D02*
X937911D01*
G02X937019Y935998I0J1262D01*
G01X936950Y936067D01*
G03X936058Y936437I-892J-892D01*
G01X929128D01*
G01X939471Y953271D02*
X937965D01*
G02X936981Y953678I0J1392D01*
G01X936912Y953748D01*
G03X935928Y954155I-984J-984D01*
G01X929128D01*
G01X939471Y941534D02*
X942895D01*
G01X976143Y947879D02*
X975437Y948585D01*
G03X973898Y949223I-1538J-1538D01*
G01X960033D01*
G03X958308Y948508I0J-2440D01*
G01X957939Y948139D01*
G02X956739I-600J600D01*
G03X955939I-400J-400D01*
G01X955358Y947558D01*
G03Y946758I400J-400D01*
G02Y945558I-600J-600D01*
G01X951297Y941497D01*
G02X950482Y941159I-815J815D01*
G01X945657D01*
G02X945288Y941312I0J522D01*
G01X945219Y941381D01*
G03X944850Y941534I-369J-369D01*
G01X942895D01*
G01X939471Y947366D02*
X942895D01*
G01X976143Y950439D02*
X975464Y951118D01*
G03X973993Y951727I-1472J-1472D01*
G01X953205D01*
X952667Y951189D01*
X952589D01*
G02X952007Y951430I0J823D01*
G01X951204Y952233D01*
G03X949824Y950852I-690J-690D01*
G01X950043Y950633D01*
G02Y949743I-445J-445D01*
G01X947500Y947200D01*
X947300D01*
X947188Y947088D01*
X945800D01*
X945525Y947252D01*
G03X945112Y947366I-413J-693D01*
G01X942895D01*
G01X939471Y939566D02*
X942895D01*
G01X973584Y947879D02*
X973528Y947934D01*
X960033D01*
G03X959219Y947597I0J-1152D01*
G01X958446Y946824D01*
G03Y945444I690J-690D01*
G01X958455Y945435D01*
G02X957074Y944054I-690J-690D01*
G01X957074Y944055D01*
G03X955694Y942674I-690J-690D01*
G02X954314Y941294I-690J-690D01*
G01X954305Y941303D01*
G03X952925I-690J-690D01*
G01X952207Y940586D01*
G02X950482Y939871I-1725J1725D01*
G01X945431D01*
X945126Y939566D01*
X942895D01*
G01X939471Y945397D02*
X942895D01*
G01X973584Y950439D02*
X953739D01*
X953200Y949900D01*
X952181D01*
G03X951701Y949701I0J-679D01*
G01X951667Y949667D01*
G03Y947576I1045J-1045D01*
G01X952583Y946660D01*
G02X951202Y945280I-690J-690D01*
G01X950027Y946455D01*
G03X948855I-586J-586D01*
G01X948200Y945800D01*
X946036D01*
G03X945633Y945633I0J-570D01*
G01X945564Y945564D01*
G02X945161Y945397I-403J403D01*
G01X942895D01*
G01X939471Y933660D02*
X942895D01*
G01X973584Y945320D02*
X966897D01*
G03X966083Y944983I0J-1152D01*
G01X958614Y937514D01*
G03Y936134I690J-690D01*
G01X958886Y935861D01*
G02X957506Y934481I-690J-690D01*
G01X957234Y934754D01*
G03X955854I-690J-690D01*
G01X955622Y934522D01*
G02X954362Y934000I-1261J1261D01*
G01X945466D01*
X945125Y933660D01*
X942895D01*
G01X939471Y935629D02*
X942895D01*
G01X976143Y945320D02*
X975464Y945999D01*
G03X973993Y946608I-1472J-1472D01*
G01X966897D01*
G03X965172Y945893I0J-2440D01*
G01X954712Y935433D01*
G02X954362Y935288I-350J350D01*
G01X945466D01*
X945125Y935629D01*
X942895D01*
G01X939471Y953271D02*
X942895D01*
G01X976143Y952998D02*
X975451Y953690D01*
G03X973947Y954313I-1504J-1504D01*
G01X964611D01*
G02X962885Y955028I0J2440D01*
G01X961280Y956633D01*
G03X960152Y957100I-1128J-1128D01*
G01X960044D01*
G02X959394Y957750I0J650D01*
G01Y957880D01*
G03X957442I-976J0D01*
G01Y957750D01*
G02X956792Y957100I-650J0D01*
G01X952711D01*
G03X950985Y956385I0J-2440D01*
G01X950734Y956134D01*
G02X949262Y955524I-1472J1472D01*
G01X949183D01*
G03X947680Y954901I0J-2125D01*
G01X946049Y953271D01*
X942895D01*
G01X939471Y951303D02*
X942895D01*
G01X973584Y952998D02*
X973557Y953025D01*
X960130D01*
G02X959154Y954001I0J976D01*
G01Y954754D01*
G03X957202I-976J0D01*
G01Y954001D01*
G02X955250I-976J0D01*
G01Y954724D01*
G03X953650Y955475I-976J0D01*
G03X953298Y954724I624J-751D01*
G02X952810Y954236I-488J0D01*
G01X949183D01*
G03X948591Y953991I0J-837D01*
G01X946583Y951983D01*
X946146D01*
G03X945565Y951742I0J-821D01*
G01X945431Y951608D01*
G02X944693Y951303I-738J738D01*
G01X942895D01*
G01X984909Y960700D02*
Y968463D01*
X985012Y968566D01*
Y971434D01*
X985092Y971514D01*
Y972092D01*
X987888Y974888D01*
X988915D01*
X988940Y974900D01*
X989900Y975368D01*
X991387Y976855D01*
G01X983821Y960700D02*
Y971893D01*
X983848Y971919D01*
Y972626D01*
X991796Y980575D01*
G02X992611Y980912I815J-815D01*
G01X1034656D01*
G02X1035470Y980575I0J-1152D01*
G01X1042125Y973920D01*
G02Y973347I-286J-286D01*
G01X1041916Y973138D01*
G02X1041101Y972800I-815J815D01*
G01X1039457D01*
G02X1037768Y973500I0J2388D01*
G01X1037000Y974268D01*
G01X982533Y960700D02*
Y972426D01*
X982560Y972453D01*
Y973159D01*
X990885Y981485D01*
G02X992611Y982200I1725J-1725D01*
G01X1034656D01*
G02X1036381Y981485I0J-2440D01*
G01X1043036Y974830D01*
G02Y972436I-1197J-1197D01*
G01X1042827Y972227D01*
G02X1041101Y971512I-1725J1725D01*
G01X1039457D01*
G03X1037768Y970813I0J-2388D01*
G01X1037000Y970044D01*
G01X1023268Y929912D02*
X1021894Y928537D01*
X1021739D01*
X1021690Y928488D01*
X1020366D01*
X1020266Y928388D01*
X1016134D01*
X1015394Y929128D01*
G02Y929726I299J299D01*
G03Y930324I-299J299D01*
G01X1015082Y930637D01*
G03X1014483I-299J-299D01*
G02X1013885I-299J299D01*
G01X1010088Y934434D01*
Y935634D01*
X1006125Y939597D01*
G03X1004698Y940188I-1427J-1427D01*
G01X1004189D01*
G03X1003764Y939764I0J-424D01*
G01Y939763D01*
G02X1003120Y939120I-644J0D01*
G02X1002476Y939764I0J644D01*
G03X1002052Y940188I-424J0D01*
G01X999200D01*
G01X1023700Y938125D02*
X1022499Y936923D01*
G02X1021809I-345J345D01*
G01X1020159Y938573D01*
G03X1018433Y939288I-1725J-1725D01*
G01X1017780D01*
G03X1015648Y937156I0J-2132D01*
G01Y934439D01*
G02X1013960I-844J0D01*
G01Y937156D01*
G03X1011828Y939288I-2132J0D01*
G01X1010311D01*
G02X1009496Y939626I0J1152D01*
G01X1007248Y941873D01*
G03X1005523Y942588I-1725J-1725D01*
G01X999912D01*
X999700Y942800D01*
X999200D01*
G01Y947600D02*
X1024300D01*
X1026800Y945100D01*
X1028394D01*
X1028638Y945544D01*
Y947156D01*
G02X1029926I644J0D01*
G01Y945544D01*
X1030170Y945100D01*
X1030171D01*
X1030226Y945000D01*
X1031122D01*
X1033216Y942906D01*
X1033325Y942875D01*
X1034312Y942600D01*
X1035200D01*
G01X1054800Y931668D02*
X1053867D01*
G02X1052441Y932259I0J2016D01*
G01X1052159D01*
X1051011Y933406D01*
Y933611D01*
X1049124Y935497D01*
G02Y936336I420J420D01*
G03Y937027I-345J345D01*
G01X1048434Y937717D01*
G03X1047744I-345J-345D01*
G02X1046905I-420J420D01*
G01X1046364Y938258D01*
G02Y939097I420J420D01*
G03Y940036I-470J470D01*
G01X1045923Y940477D01*
G03X1044983I-470J-470D01*
G02X1044144I-420J420D01*
G01X1043603Y941018D01*
G02Y941858I420J420D01*
G03Y942697I-420J420D01*
G01X1043062Y943238D01*
G03X1042223I-420J-420D01*
G02X1041384I-420J420D01*
G01X1040842Y943779D01*
G02Y944618I420J420D01*
G03Y945458I-420J420D01*
G01X1040301Y945999D01*
G03X1039462I-420J-420D01*
G02X1038623I-420J420D01*
G01X1034434Y950188D01*
X999466D01*
X999266Y950388D01*
X997884D01*
X997833Y950439D01*
X996616D01*
G01X1034200Y933200D02*
X1034300Y933300D01*
X1032281Y935319D01*
G03X1031371I-455J-455D01*
G01X1031031Y934979D01*
G02X1030121Y935890I-455J455D01*
G01X1030910Y936680D01*
G03X1029999Y937590I-455J455D01*
G01X1029210Y936801D01*
G02X1028299Y937712I-455J455D01*
G01X1028638Y938051D01*
G03Y938962I-455J455D01*
G01X1027648Y939952D01*
G02X1027400Y940551I599J600D01*
G01Y941000D01*
X1023212Y945188D01*
X1017300D01*
G03X1015168Y943056I0J-2132D01*
G01Y942508D01*
G02X1013480I-844J0D01*
G01Y942748D01*
G03X1011040Y945188I-2440J0D01*
G01X999200D01*
G01Y938900D02*
X999400Y938700D01*
X999700D01*
X1000034Y938366D01*
G03X1000676Y938100I641J641D01*
G01X1001112D01*
G02X1002116Y937684I0J-1419D01*
G01X1002184Y937616D01*
G03X1003188Y937200I1003J1003D01*
G01X1005689D01*
G02X1007415Y936485I0J-2440D01*
G01X1008800Y935100D01*
Y933900D01*
X1012922Y929778D01*
G02Y929378I-200J-200D01*
G03Y928978I200J-200D01*
G01X1013902Y927998D01*
G03X1014302I200J200D01*
G02X1014702I200J-200D01*
G01X1015600Y927100D01*
X1020800D01*
X1020900Y927200D01*
X1021354D01*
G02X1021964Y926948I0J-861D01*
G01X1023169Y925743D01*
G01X1023700Y933901D02*
X1023416Y934185D01*
G03X1022910Y934394I-506J-506D01*
G01X1022812D01*
G02X1022306Y934604I0J715D01*
G01X1019248Y937663D01*
G03X1018433Y938000I-815J-815D01*
G01X1017780D01*
G03X1016936Y937156I0J-844D01*
G01Y934439D01*
G02X1012672I-2132J0D01*
G01Y937156D01*
G03X1011828Y938000I-844J0D01*
G01X1010311D01*
G02X1008585Y938715I0J2440D01*
G01X1006338Y940962D01*
G03X1005523Y941300I-815J-815D01*
G01X999378D01*
X999266Y941412D01*
X999200D01*
G01Y946312D02*
X1023198D01*
X1023210Y946300D01*
G02X1024162Y945916I11J-1346D01*
G01X1026266Y943812D01*
X1029409D01*
X1029464Y943712D01*
X1030588D01*
X1032663Y941637D01*
G02X1033300Y940099I-1538J-1539D01*
G01Y939100D01*
G01X1054800Y927444D02*
Y927798D01*
G03X1054657Y928143I-488J0D01*
G01X1033900Y948900D01*
X997900D01*
X997500Y949300D01*
X995196D01*
X994057Y950439D01*
G01X1031100Y930700D02*
X1029925Y931875D01*
G02X1029500Y932901I1026J1026D01*
G01Y932999D01*
G03X1029075Y934025I-1452J0D01*
G01X1026815Y936285D01*
G02X1026100Y938011I1725J1725D01*
G01Y940478D01*
X1022678Y943900D01*
X1022388D01*
G03X1021544Y943056I0J-844D01*
G01Y942644D01*
G02X1019856I-844J0D01*
G01Y943056D01*
G03X1019012Y943900I-844J0D01*
G01X1017300D01*
G03X1016456Y943056I0J-844D01*
G01Y942508D01*
G02X1012192I-2132J0D01*
G01Y942748D01*
G03X1011040Y943900I-1152J0D01*
G01X999200D01*
G01X994057Y960700D02*
Y962754D01*
X994023Y962788D01*
Y963478D01*
X994310Y963765D01*
G02X994795Y963966I485J-485D01*
G01X997106D01*
G03X998302Y965163I0J1197D01*
G01Y965715D01*
G02X999590I644J0D01*
G03X1001339Y963966I1749J0D01*
G01X1002258D01*
G03X1003454Y965163I0J1197D01*
G01Y965715D01*
G02X1004742I644J0D01*
G03X1006491Y963966I1749J0D01*
G01X1010068D01*
G02X1010712Y963322I0J-644D01*
G01Y961944D01*
G03X1012000I644J0D01*
G01Y962499D01*
G02X1013467Y963966I1467J0D01*
G01X1014043D01*
G02X1015732Y963267I0J-2388D01*
G01X1016500Y962498D01*
G01X992700Y960700D02*
Y962753D01*
X992735Y962788D01*
Y964012D01*
X993399Y964676D01*
G02X994795Y965254I1396J-1396D01*
G01X997014D01*
Y965715D01*
G02X1000878I1932J0D01*
G03X1001339Y965254I461J0D01*
G01X1002166D01*
Y965715D01*
G02X1006030I1932J0D01*
G03X1006491Y965254I461J0D01*
G01X1014043D01*
G03X1015732Y965954I0J2388D01*
G01X1016500Y966722D01*
G01X991498Y960700D02*
Y963837D01*
G02X991836Y964651I1152J0D01*
G01X995919Y968735D01*
X1001235D01*
X1002400Y969900D01*
Y973200D01*
X1003400Y974200D01*
X1004500D01*
X1005100Y973600D01*
Y969630D01*
G03X1008992Y969830I1941J198D01*
G01Y975017D01*
G02X1009587Y975612I595J0D01*
G01X1009812D01*
G02X1010280Y975144I0J-468D01*
G01Y969332D01*
G03X1014144I1932J0D01*
G01Y975124D01*
G02X1014632Y975612I488J0D01*
G01X1015389D01*
G02X1016204Y975275I0J-1152D01*
G01X1021062Y970416D01*
G02X1021400Y969601I-815J-815D01*
G01Y966961D01*
G02X1020756Y966317I-644J0D01*
G01X1019744D01*
G03Y965029I0J-644D01*
G01X1020756D01*
G02Y963741I0J-644D01*
G01X1019535D01*
G03Y962453I0J-644D01*
G01X1020722D01*
G02X1021400Y961774I0J-678D01*
G01Y955800D01*
G01X1025300Y955200D02*
X1023199Y957301D01*
G02X1022688Y958534I1233J1233D01*
G01Y958998D01*
G02X1023044Y959354I356J0D01*
G03X1023600Y959910I0J556D01*
G01Y960286D01*
G03X1023244Y960642I-356J0D01*
G01X1023044D01*
G02X1022688Y960998I0J356D01*
G01Y969601D01*
G03X1021973Y971327I-2440J0D01*
G01X1017115Y976185D01*
G03X1015389Y976900I-1725J-1725D01*
G01X1014632D01*
G03X1012856Y975124I0J-1776D01*
G01Y969332D01*
G02X1011568I-644J0D01*
G01Y975144D01*
G03X1009812Y976900I-1756J0D01*
G01X1009236D01*
G03X1007704Y975368I0J-1532D01*
G01Y969842D01*
G02X1006416I-644J0D01*
G01Y974200D01*
X1005128Y975488D01*
X1002866D01*
X1001112Y973734D01*
Y970434D01*
X1000702Y970023D01*
X995386D01*
X990925Y965562D01*
G03X990100Y963571I1991J-1991D01*
G01Y960700D01*
G01X986380D02*
Y969020D01*
X986300Y969100D01*
Y970900D01*
X986380Y970980D01*
Y971558D01*
X988422Y973600D01*
X989108D01*
G02X989980Y973239I0J-1232D01*
G01X990206Y973013D01*
G03X990960Y972700I754J754D01*
G01X991500D01*
G01X1027400Y959600D02*
X1028084Y960284D01*
G03X1028700Y961771I-1486J1486D01*
G01Y965289D01*
G02X1029415Y967015I2440J0D01*
G01X1033074Y970675D01*
G03X1033412Y971489I-814J815D01*
G01Y972529D01*
G03X1033244Y972934I-574J0D01*
G01X1033151Y973027D01*
G03X1032761Y973189I-390J-390D01*
G01X1032639D01*
G03X1032249Y973027I0J-552D01*
G01X1030150Y970928D01*
X1029686Y970604D01*
X1028311Y969229D01*
G02X1025650Y971890I-1331J1331D01*
G01X1029848Y976089D01*
G03Y977086I-498J498D01*
G01X1029748Y977186D01*
G03X1029264I-242J-242D01*
G01X1024809Y972731D01*
G02X1022148Y975393I-1331J1331D01*
G01X1022346Y975591D01*
G03X1022346Y976788I-598J598D01*
G03X1021862I-242J-242D01*
G01X1021694Y976620D01*
G02X1018259Y976620I-1718J1718D01*
G01X1016878Y978000D01*
X1002301D01*
G03X1001486Y977663I0J-1152D01*
G01X989276Y965453D01*
G03X988939Y964638I815J-815D01*
G01Y960700D01*
G01X1031600Y959800D02*
X1030703Y960697D01*
G02X1029988Y962423I1725J1725D01*
G01Y965289D01*
G02X1030326Y966104I1152J0D01*
G01X1033985Y969764D01*
G03X1034700Y971489I-1725J1725D01*
G01Y972529D01*
G03X1034155Y973845I-1862J0D01*
G01X1034062Y973938D01*
G03X1032761Y974477I-1301J-1301D01*
G01X1032639D01*
G03X1031338Y973938I0J-1840D01*
G01X1029319Y971919D01*
X1028855Y971594D01*
X1027401Y970140D01*
G02X1026560Y970980I-420J420D01*
G01X1030759Y975178D01*
G03Y977996I-1409J1409D01*
G01X1030659Y978096D01*
G03X1028353I-1153J-1153D01*
G01X1023899Y973642D01*
G02X1023058Y974482I-420J420D01*
G01X1023257Y974680D01*
G03Y977699I-1509J1509D01*
G01X1022892Y978064D01*
G03X1021316I-788J-788D01*
G01X1020783Y977531D01*
G02X1019169Y977531I-807J807D01*
G01X1017412Y979288D01*
X1002301D01*
G03X1000575Y978573I0J-2440D01*
G01X988366Y966364D01*
G03X987651Y964638I1725J-1725D01*
G01Y960700D01*
G54D33*
X971917Y872334D03*
X987665D03*
G54D24*
X917536Y830935D03*
Y839577D03*
X1033400Y837979D03*
Y846621D03*
G54D42*
X997078Y894931D03*
X999047Y894932D03*
X1001016D03*
X1002984D03*
X1004952D03*
X1006921D03*
G54D15*
X890181Y910155D03*
X900637D03*
X933537Y910255D03*
X923081D03*
X977111Y858245D03*
X987567D03*
G54D52*
G01X991200Y949200D02*
Y952000D01*
X990800Y952400D01*
G01X987600Y952300D02*
X990700D01*
X990800Y952400D01*
G01X902385Y1005500D02*
X1059615D01*
G02X1079300Y985815I0J-19685D01*
G01Y834785D01*
G02X1059615Y815100I-19685J0D01*
G01X902385D01*
G02X882700Y834785I0J19685D01*
G01Y985815D01*
G02X902385Y1005500I19685J0D01*
G54D34*
X982800Y843300D03*
X1002800D03*
X992800D03*
X1022800D03*
X1012800D03*
G54D25*
X924301Y837947D03*
X935679D03*
G54D16*
X917753Y845807D03*
X925627D03*
G54D43*
X1020759Y859800D03*
X1017019Y868855D03*
X1024499D03*
G54D35*
X972800Y843300D03*
G54D44*
X1020234Y876313D03*
Y892061D03*
X1049300Y902226D03*
Y917974D03*
G54D26*
X933655Y846277D03*
Y853885D03*
G54D17*
X910106Y844777D03*
Y861116D03*
Y855210D03*
Y851273D03*
X910107Y849108D03*
X910106Y845958D03*
X910107Y847926D03*
X910110Y853243D03*
X910106Y857179D03*
Y859147D03*
Y867218D03*
X910110Y865053D03*
X910106Y870368D03*
Y863084D03*
Y868399D03*
Y871549D03*
G54D45*
X1039099Y842175D03*
X1056303D03*
G54D18*
X907546Y841156D03*
Y875171D03*
G54D36*
X975103Y881087D03*
Y887019D03*
X1002697Y901563D03*
Y907495D03*
X1007897Y901557D03*
Y907489D03*
G54D27*
X921560Y853370D03*
Y873842D03*
G54D37*
X985382Y927590D03*
Y920897D03*
X994044Y927590D03*
Y920897D03*
G54D28*
X933734Y860973D03*
Y868847D03*
G54D19*
X906408Y880622D03*
X912306Y880624D03*
X939308Y880722D03*
X945206Y880724D03*
G54D46*
X1033245Y882671D03*
Y893127D03*
G54D47*
X1039118Y902645D03*
X1031634D03*
G54D29*
X926137Y921674D03*
X926136Y978761D03*
G54D38*
X983821Y935084D03*
X981261D03*
X978702D03*
X976143D03*
X973584D03*
X983821Y937643D03*
X981261D03*
X978702D03*
X976143D03*
X973584D03*
X976143Y940202D03*
X973584D03*
X983821Y942761D03*
X981261D03*
X976143D03*
X973584D03*
X983821Y945320D03*
X981261D03*
X976143D03*
X973584D03*
X983821Y947879D03*
X981261D03*
X976143D03*
X973584D03*
X983821Y950439D03*
X981261D03*
X976143D03*
X973584D03*
X976143Y952998D03*
X973584D03*
X983821Y955557D03*
X981261D03*
X978702D03*
X976143D03*
X973584D03*
X983821Y958116D03*
X981261D03*
X978702D03*
X976143D03*
X973584D03*
X994057Y935084D03*
X991498D03*
X988939D03*
X986380D03*
X996616D03*
X994057Y937643D03*
X991498D03*
X988939D03*
X986380D03*
X996616D03*
X994057Y940202D03*
X996616D03*
X994057Y942761D03*
X988939D03*
X986380D03*
X996616D03*
X994057Y945320D03*
X988939D03*
X986380D03*
X996616D03*
X994057Y947879D03*
X988939D03*
X986380D03*
X996616D03*
X994057Y950439D03*
X988939D03*
X986380D03*
X996616D03*
X994057Y952998D03*
X996616D03*
X994057Y955557D03*
X991498D03*
X988939D03*
X986380D03*
X996616D03*
X994057Y958116D03*
X991498D03*
X988939D03*
X986380D03*
X996616D03*
G54D48*
G01X971000Y935059D02*
X973584Y937643D01*
G01Y935084D02*
X971000Y932500D01*
G01X973559D02*
X976143Y935084D01*
G01X971000Y959400D02*
X972500Y957900D01*
Y957600D01*
X972878Y957222D01*
G03X973655Y956900I777J777D01*
G01X974107D01*
G03X975507Y957480I0J1980D01*
G01X976143Y958116D01*
G01X980305Y932500D02*
X982333Y934528D01*
G03X982334Y935528I-500J500D01*
G01X981799Y936062D01*
G03X980573Y936570I-1226J-1226D01*
G01X980493D01*
G02X979267Y937078I0J1734D01*
G01X978702Y937643D01*
G01X976300Y932500D02*
X978702Y934902D01*
Y935084D01*
G01X981261D02*
X980432Y934255D01*
X980057D01*
X978303Y932500D01*
G01X981261Y960700D02*
Y958116D01*
G01X972200Y960700D02*
X973188Y959712D01*
G02X973584Y958756I-956J-956D01*
G01Y958116D01*
G01X976118Y960700D02*
X978702Y958116D01*
G01X979300Y960700D02*
Y959331D01*
G03X979509Y958826I714J0D01*
G01X979775Y958560D01*
G02Y956630I-965J-965D01*
G01X978702Y955557D01*
G01X986380D02*
X985284Y956652D01*
G02X984909Y957559I907J907D01*
G01Y960700D01*
G01X983821Y958116D02*
X983778D01*
X983748Y958146D01*
X983821Y958219D01*
Y960700D01*
G01Y955557D02*
X982990Y956388D01*
G02X982533Y957492I1104J1104D01*
G01Y960700D01*
G01X981261Y955557D02*
Y954422D01*
G03X981602Y953598I1165J0D01*
G01X982000Y953200D01*
G01X1062600Y932300D02*
X1057867Y937033D01*
G03X1055716Y937924I-2151J-2151D01*
G01X1054376D01*
G02X1052000Y940300I0J2376D01*
G01Y942524D01*
G02X1052902Y944702I3080J0D01*
G01X1054962Y946762D01*
G01X994057Y935084D02*
Y932500D01*
G01X997683D02*
X995807Y934376D01*
G02X995500Y935118I742J742D01*
G01Y935158D01*
G03X994501Y936156I-999J0D01*
G01X993289D01*
G03X992062Y935648I0J-1734D01*
G01X991498Y935084D01*
G01X999200Y940188D02*
X999150D01*
X999062Y940100D01*
X998400D01*
X998298Y940202D01*
X996616D01*
G01X999200Y942800D02*
X998700D01*
X998300Y942400D01*
X997192D01*
G02X996825Y942552I0J520D01*
G01X996616Y942761D01*
G01Y947879D02*
X997789D01*
X998068Y947600D01*
X999200D01*
G01Y945188D02*
X999150D01*
X998906Y944944D01*
X998767D01*
X998724Y944900D01*
X997259D01*
G02X996844Y945072I0J586D01*
G01X996616Y945300D01*
Y945320D01*
G01X994057Y940202D02*
X994769Y939490D01*
G03X995590Y939150I820J820D01*
G01X996150D01*
X996200Y939100D01*
X998400D01*
X998600Y938900D01*
X999200D01*
G01Y941412D02*
X998726D01*
X998714Y941400D01*
X996341D01*
G02X994766Y942052I0J2227D01*
G01X994057Y942761D01*
G01Y947879D02*
X994886Y947050D01*
Y946714D01*
X995200Y946400D01*
X997589D01*
X997677Y946312D01*
X999200D01*
G01Y943900D02*
X996207D01*
G02X994961Y944416I0J1761D01*
G01X994057Y945320D01*
G01X996616Y958116D02*
Y960700D01*
G01X994057Y958116D02*
X994015D01*
X993985Y958146D01*
X994057Y958219D01*
Y960700D01*
G01Y955557D02*
X993133Y956481D01*
G02X992700Y957526I1045J1045D01*
G01Y960700D01*
G01X991498Y958116D02*
Y960700D01*
G01X990100D02*
Y957312D01*
G03X990353Y956702I863J0D01*
G01X991498Y955557D01*
G01X986380Y958116D02*
Y960700D01*
G01X988939D02*
Y958116D01*
G01X987651Y960700D02*
Y956845D01*
X988939Y955557D01*
G01X1062600Y934576D02*
X1055138Y942038D01*
G54D39*
X1002984Y879869D03*
X1001016D03*
X999047D03*
X997078Y879868D03*
X1006921Y879869D03*
X1004952D03*
G54D49*
G01X896660Y895735D02*
X900965D01*
G01X894143Y881342D02*
Y881143D01*
G01X910106Y863084D02*
X906962D01*
G03X905200Y861322I0J-1762D01*
G01Y858900D01*
G01X910106Y851273D02*
X908128D01*
G02X906137Y852097I0J2814D01*
G01X905200Y853035D01*
G01X912466Y897534D02*
X908969D01*
X908917Y897586D01*
X906817D01*
G01X912400Y886754D02*
Y887000D01*
G01X917536Y830935D02*
Y825736D01*
G01X929560Y895835D02*
X933465D01*
G01X929128Y934469D02*
X920931D01*
G01X929128Y940374D02*
X920926D01*
G01X929128Y946280D02*
X920920D01*
G01X929128Y963996D02*
X924767D01*
G03X921939Y962824I0J-4000D01*
G01X918495Y959381D01*
G03X917779Y957652I1729J-1729D01*
G01Y956479D01*
G01X929128Y952185D02*
X920915D01*
G01X929128Y965966D02*
X919866D01*
X919836Y965936D01*
X917736D01*
G01X945366Y897634D02*
X942440D01*
X942388Y897686D01*
X939717D01*
G01X946799Y926056D02*
X946996D01*
X949668Y928728D01*
G02X952496Y929900I2828J-2829D01*
G01X954861D01*
X955092Y930131D01*
X960706D01*
X960938Y929900D01*
X964184D01*
G03X967013Y931072I0J4000D01*
G01X971000Y935059D01*
G01X946400Y931700D02*
X954398D01*
X954430Y931731D01*
X957471D01*
G03X959367Y932517I0J2681D01*
G01X960265Y933415D01*
X960315D01*
X961800Y934900D01*
G01X953700Y937700D02*
X951600D01*
X951500Y937600D01*
X946600D01*
G01X942895Y949334D02*
X946434D01*
X946600Y949500D01*
G01X939471Y949334D02*
X942895D01*
G01Y937597D02*
X946597D01*
X946600Y937600D01*
G01X939471Y937597D02*
X942895D01*
G01X946000Y956400D02*
X945095Y955495D01*
G02X943183Y954703I-1912J1912D01*
G01X939941D01*
G02X937305Y955795I0J3728D01*
G01X936100Y957000D01*
G01X942895Y961008D02*
X947692D01*
G01X939471D02*
X942895D01*
G01X958427Y844375D02*
X954985D01*
G03X953944Y843944I0J-1472D01*
G01X953400Y843400D01*
G01X950925Y866427D02*
Y862785D01*
G03X951356Y861744I1472J0D01*
G01X951900Y861200D01*
G01X963812Y881464D02*
Y878012D01*
X963800Y878000D01*
G01X964276Y863979D02*
X972379D01*
G01X963812Y886976D02*
X963615D01*
X958686Y882046D01*
G02X955857Y880875I-2829J2829D01*
G01X951191D01*
G01X971000Y932500D02*
X967328Y928828D01*
G02X964499Y927656I-2829J2829D01*
G01X961458D01*
G02X960538Y928037I0J1301D01*
G01X960278Y928297D01*
G03X959712Y928531I-566J-566D01*
G01X955755D01*
X955492Y928268D01*
X954707D01*
X952496Y926056D01*
X952299D01*
G01X957899D02*
X965458D01*
G03X968287Y927228I0J4000D01*
G01X973559Y932500D01*
G01X963200Y938400D02*
X968900D01*
G03X970939Y939244I0J2883D01*
G01X971356Y939662D01*
G02X972660Y940202I1304J-1304D01*
G01X973584D01*
G01X963200Y938400D02*
Y937210D01*
G02X962556Y935657I-2197J0D01*
G01X961800Y934900D01*
G01X961500Y945500D02*
X959803Y943803D01*
Y943644D01*
X955344Y939185D01*
X955185D01*
X953700Y937700D01*
G01X964675Y962746D02*
Y967940D01*
X964669Y967946D01*
G01X964675Y962746D02*
Y962633D01*
G03X966899Y960409I2224J0D01*
G01X967891D01*
X968100Y960200D01*
X969714D01*
G02X970544Y959857I0J-1173D01*
G01X971000Y959400D01*
G01X958743Y962746D02*
X955054D01*
G01X968934Y974500D02*
X959200D01*
X958900Y974800D01*
G01X969428Y881464D02*
Y877628D01*
X969400Y877600D01*
G01X977201Y921344D02*
Y917701D01*
X977100Y917600D01*
G01X976143Y942761D02*
X976970D01*
G03X977901Y943147I0J1317D01*
G01X978400Y943646D01*
G01X983821Y950439D02*
X983582Y950200D01*
G02X981500Y950200I-1041J1041D01*
G01X981261Y950439D01*
G01X983821D02*
X986380D01*
G01X981261Y947879D02*
Y950439D01*
G01X983821Y947879D02*
Y950439D01*
G01Y945320D02*
Y947879D01*
G01X981261Y945320D02*
Y947879D01*
G01X983821D02*
X986380D01*
G01X981261D02*
X983821D01*
G01X981261Y942761D02*
Y945320D01*
G01X983821Y942761D02*
Y945320D01*
G01D02*
X986380D01*
G01X981261D02*
X983821D01*
G01X981261Y942761D02*
X983821D01*
G01X976143Y940202D02*
X979102D01*
G01X973584Y942761D02*
X971519D01*
G03X970737Y942437I0J-1106D01*
G01X970300Y942000D01*
G01X980600Y979700D02*
X980987Y979313D01*
G02X981261Y978652I-661J-661D01*
G01Y960700D01*
G01X970100Y967800D02*
Y964205D01*
G03X971093Y961807I3392J0D01*
G01X972200Y960700D01*
G01X976143Y955557D02*
X978800Y952900D01*
G01X973584Y955557D02*
X972483D01*
G02X970878Y956222I0J2270D01*
G01X970100Y957000D01*
G01X999047Y879869D02*
Y884441D01*
G01X1001016Y879869D02*
Y886410D01*
G01D02*
X1002003Y887397D01*
G01X999047Y884441D02*
X1001016Y886410D01*
G01X994468Y892321D02*
X995854D01*
G02X997946Y891454I0J-2959D01*
G01X1002003Y887397D01*
G01X1002697Y907495D02*
X1002583D01*
G03X1000359Y905271I0J-2224D01*
G01Y905158D01*
X998987Y903785D01*
X998820D01*
X996608Y901574D01*
G01D02*
X996412D01*
G01X1002697Y901563D02*
X1002810D01*
G01X1007783Y907489D02*
X1005315Y905020D01*
G03X1005034Y904343I677J-677D01*
G01Y903787D01*
X1002810Y901563D01*
G01X994044Y920897D02*
Y914956D01*
G01X1001552Y922164D02*
Y914952D01*
G01X994057Y932500D02*
Y930865D01*
X994044Y930852D01*
Y927590D01*
G01X1001552Y927676D02*
X997786D01*
X997700Y927590D01*
X994044D01*
G01X989800Y931200D02*
Y931664D01*
X986380Y935084D01*
G01X996616D02*
X997600Y934100D01*
X998300D01*
X998707Y933694D01*
G03X999415Y933400I708J708D01*
G01X1003114D01*
G03X1003943Y933743I0J1173D01*
G01X1004057Y933857D01*
G02X1004886Y934200I829J-829D01*
G01X1006500D01*
G01X988939Y947879D02*
Y950439D01*
G01Y942761D02*
Y945320D01*
G01Y947879D02*
Y945320D01*
G01X986380Y947879D02*
Y950439D01*
G01Y945320D02*
Y947879D01*
G01D02*
X988939D01*
G01X987500Y951878D02*
Y951559D01*
X986380Y950439D01*
G01X988939D02*
X987500Y951878D01*
G01X991200Y949200D02*
X990260D01*
G01D02*
X990178D01*
X988939Y950439D01*
G01Y947879D02*
X990260Y949200D01*
G01X986380Y945320D02*
X988939D01*
G01X991200Y944200D02*
X990378D01*
G01D02*
X990059D01*
X988939Y945320D01*
G01Y942761D02*
X990378Y944200D01*
G01X988939Y937643D02*
Y938439D01*
G02X989363Y939463I1448J0D01*
G01X989900Y940000D01*
G01X996616Y937643D02*
X998926D01*
X999284Y937285D01*
X999315D01*
X1000800Y935800D01*
G01X996616Y952998D02*
X999302D01*
X999400Y952900D01*
G01X994057Y952998D02*
X991741D01*
G03X991156Y952756I0J-828D01*
G01X990800Y952400D01*
G01X987600Y952300D02*
X987500Y952200D01*
Y951878D01*
G01X996616Y960700D02*
Y960984D01*
G01Y955557D02*
X998457D01*
X998700Y955800D01*
X1000800D01*
G01X1020000Y876400D02*
X1020087Y876313D01*
X1020234D01*
G01X1020100Y876000D02*
X1020234Y876134D01*
Y876313D01*
G01X1012100Y879800D02*
X1012400Y880100D01*
G03Y881652I-776J776D01*
G01X1012239Y881814D01*
G03X1010632Y882479I-1606J-1606D01*
G01X1009531D01*
G01Y886416D02*
X1013092D01*
G02X1014785Y885715I0J-2395D01*
G01X1014914Y885586D01*
G02X1015600Y883930I-1656J-1656D01*
G01Y882800D01*
G01X1009531Y884447D02*
X1012868D01*
G02X1014720Y883680I0J-2618D01*
G01X1015600Y882800D01*
G01X1009531Y890353D02*
X1010632D01*
G03X1012239Y891018I0J2272D01*
G01X1013700Y892480D01*
G01X1009531Y888384D02*
X1012959D01*
G02X1015788Y887212I0J-4000D01*
G01X1019500Y883500D01*
G01X1007897Y907489D02*
X1007783D01*
G01X1033400Y837979D02*
Y833200D01*
G01X1035646Y919063D02*
X1033390D01*
X1033368Y919085D01*
X1030302D01*
G01X1032407Y924954D02*
Y924840D01*
G02X1030183Y922617I-2224J0D01*
G01X1030103D01*
G03X1028210Y921832I0J-2677D01*
G01X1024608Y918231D01*
X1024412D01*
G01X1051566Y833000D02*
Y829564D01*
G02X1050790Y827690I-2651J0D01*
G01X1049900Y826800D01*
G01X1049200Y909500D02*
X1046961D01*
G02X1044400Y912062I0J2562D01*
G01Y912862D01*
G03X1041917Y915345I-2483J0D01*
G01X1040932D01*
G01X1056303Y842175D02*
Y841597D01*
G01X1058700Y906244D02*
Y906200D01*
M02*
