G04 ================== begin FILE IDENTIFICATION RECORD ==================*
G04 Layout Name:  F:/Projects/PCB/GitHub/Public/TC358870_Demo/allegro/tc358870_demo.brd*
G04 Film Name:    4_BOTTOM*
G04 File Format:  Gerber RS274X*
G04 File Origin:  Cadence Allegro 17.4-S039*
G04 Origin Date:  Sun Apr 12 21:18:19 2026*
G04 *
G04 Layer:  BOARD GEOMETRY/DESIGN_OUTLINE*
G04 Layer:  ETCH/BOTTOM*
G04 Layer:  PIN/BOTTOM*
G04 Layer:  VIA CLASS/BOTTOM*
G04 *
G04 Offset:    (0.000 0.000)*
G04 Mirror:    No*
G04 Mode:      Positive*
G04 Rotation:  0*
G04 FullContactRelief:  No*
G04 UndefLineWidth:     10.000*
G04 ================== end FILE IDENTIFICATION RECORD ====================*
%FSLAX55Y55*MOIN*%
%IR0*IPPOS*OFA0.00000B0.00000*MIA0B0*SFA1.00000B1.00000*%
%ADD10C,.13*%
%ADD25R,.02165X.00787*%
%ADD20O,.129921X.059059*%
%ADD14C,.024*%
%ADD11O,.07087X.043311*%
%ADD22R,.03402X.031748*%
%ADD21R,.035429X.0315*%
%ADD13R,.05315X.055512*%
%ADD19R,.055512X.05315*%
%ADD16R,.0315X.035429*%
%ADD12R,.031748X.03402*%
%ADD17O,.082681X.043311*%
%ADD15R,.044591X.054209*%
%ADD18O,.090551X.059059*%
%ADD23C,.066929*%
%ADD24R,.066929X.066929*%
%ADD26C,.004*%
%ADD27C,.008*%
%ADD28C,.00616*%
%ADD29C,.00488*%
%ADD30C,.01*%
%ADD31C,.034004*%
G75*
%LPD*%
G75*
G36*
G01X887400Y877300D02*
X910500D01*
X911100Y876700D01*
Y873700D01*
X910500Y873100D01*
X901300D01*
X899000Y870800D01*
Y866300D01*
X898800Y866100D01*
X891500D01*
X889500Y864100D01*
Y863588D01*
X889393Y863532D01*
G03X889127Y863090I234J-442D01*
G01Y857539D01*
G03X889393Y857097I500J0D01*
G01X889500Y857040D01*
Y855200D01*
X894600D01*
X894900Y854900D01*
Y849800D01*
X901600Y843100D01*
X911300D01*
X911700Y842700D01*
Y839100D01*
X887400D01*
X885600Y840900D01*
Y875500D01*
X887400Y877300D01*
G37*
G36*
G01X902600Y871300D02*
X904350D01*
G02X904629Y870608I0J-402D01*
G03X904175Y869541I1028J-1068D01*
G03X905657Y868059I1482J0D01*
G03X906083Y868121I0J1482D01*
G02X906600Y867736I115J-385D01*
G01Y865800D01*
X900700Y859900D01*
Y851600D01*
X900500Y851400D01*
X898100D01*
X897800Y851700D01*
Y854700D01*
X894700Y857800D01*
X890700D01*
X890500Y858000D01*
Y862500D01*
X891700Y863700D01*
X898200D01*
X902000Y867500D01*
Y870700D01*
X902600Y871300D01*
G37*
G36*
G01X889800Y901300D02*
X889900Y901400D01*
X892600D01*
X892900Y901100D01*
Y899400D01*
X895300Y897000D01*
X901300D01*
X902165Y896135D01*
Y895065D01*
X901700Y894600D01*
X894800D01*
X891600Y897800D01*
X889907D01*
X889800Y897907D01*
Y901300D01*
G37*
G36*
G01X895558Y881426D02*
G02X894992Y881992I396J962D01*
G01X894043Y881143D01*
X894992Y880295D01*
G02X895558Y880860I962J-396D01*
G03Y881426I-283J283D01*
G37*
G36*
G01X884300Y901300D02*
X887500D01*
Y899500D01*
X889311Y897689D01*
X889325Y897639D01*
G03X889669Y897296I481J137D01*
G01X889719Y897281D01*
X890400Y896600D01*
X891700D01*
X892200Y896100D01*
Y894700D01*
X891300Y893800D01*
X885200D01*
X884300Y894700D01*
Y901300D01*
G37*
G36*
G01X914100Y885700D02*
X910700D01*
Y904600D01*
X908900Y906400D01*
Y910200D01*
X909800Y911100D01*
X912400D01*
X914400Y909100D01*
Y886000D01*
X914100Y885700D01*
G37*
G36*
G01X907093Y899799D02*
G02X908429Y901295I2499J-888D01*
G01X906854Y903166D01*
X905279Y901295D01*
G02X906615Y899799I-1163J-2384D01*
G03X907093I239J321D01*
G37*
G36*
G01X906534Y899000D02*
G02X905968Y898435I-962J396D01*
G01X906817Y897486D01*
X907665Y898435D01*
G02X907100Y899000I396J962D01*
G03X906534I-283J-283D01*
G37*
G36*
G01X904705Y914302D02*
G02X905744Y914059I205J-1466D01*
G01X906699Y914916D01*
X905522Y915426D01*
G02X904614Y914866I-1180J896D01*
G03X904705Y914302I322J-237D01*
G37*
G36*
G01X916300Y930600D02*
X908200D01*
Y948900D01*
X915400D01*
X916600Y947700D01*
Y930900D01*
X916300Y930600D01*
G37*
G36*
G01X932800Y922300D02*
Y921000D01*
X930500Y918700D01*
X899400D01*
X898000Y920100D01*
Y980800D01*
X899000Y981800D01*
X931000D01*
X932600Y980200D01*
Y977400D01*
X930800Y975600D01*
X907100D01*
X905600Y974100D01*
Y938000D01*
X904800Y937200D01*
Y929800D01*
X909800Y924800D01*
X930300D01*
X932800Y922300D01*
G37*
G36*
G01X922700Y901400D02*
X922800Y901500D01*
X925500D01*
X925800Y901200D01*
Y899500D01*
X928200Y897100D01*
X934200D01*
X935100Y896200D01*
Y895200D01*
X934600Y894700D01*
X927700D01*
X924500Y897900D01*
X922700D01*
Y901400D01*
G37*
G36*
G01X917100Y901600D02*
X920300D01*
Y899800D01*
X922200Y897900D01*
Y897400D01*
X922552D01*
X922578Y897393D01*
G03X922657Y897379I128J483D01*
G01X922728Y897372D01*
X923200Y896900D01*
X924500D01*
X925000Y896400D01*
Y895000D01*
X924100Y894100D01*
X918000D01*
X917100Y895000D01*
Y901600D01*
G37*
G36*
G01X928458Y881725D02*
G02X927892Y882291I396J962D01*
G01X926943Y881442D01*
X927892Y880594D01*
G02X928458Y881159I962J-396D01*
G03Y881725I-283J283D01*
G37*
G36*
G01X918024Y957161D02*
G02X919551Y958849I2821J-1017D01*
G01X917779Y960524D01*
X916008Y958849D01*
G02X917534Y957161I-1294J-2705D01*
G03X918024I245J316D01*
G37*
G36*
G01X917496Y957893D02*
G02X916931Y957328I-962J396D01*
G01X917779Y956379D01*
X918628Y957328D01*
G02X918062Y957893I396J962D01*
G03X917496I-283J-283D01*
G37*
G36*
G01X920792Y966145D02*
G02X919550Y967402I928J2157D01*
G01X917679Y965936D01*
X919550Y964470D01*
G02X920792Y965726I2169J-901D01*
G03Y966145I-341J209D01*
G37*
G36*
G01X946872Y850299D02*
G02X946072I-400J960D01*
G01X946001Y849028D01*
X947272Y849099D01*
G02Y849899I960J400D01*
G03X946872Y850299I-400J0D01*
G37*
G36*
G01X946355Y847685D02*
G02X946920Y848251I962J-396D01*
G01X946072Y849199D01*
X945224Y848251D01*
G02X945789Y847685I-396J-962D01*
G03X946355I283J283D01*
G37*
G36*
G01X945014Y873083D02*
G02X944448Y873648I396J962D01*
G01X943500Y872800D01*
X944448Y871952D01*
G02X945014Y872517I962J-396D01*
G03Y873083I-283J283D01*
G37*
G36*
G01X946400Y885800D02*
X943000D01*
Y904700D01*
X941200Y906500D01*
Y910300D01*
X942100Y911200D01*
X944700D01*
X946700Y909200D01*
Y886100D01*
X946400Y885800D01*
G37*
G36*
G01X939993Y899899D02*
G02X941329Y901395I2499J-888D01*
G01X939754Y903266D01*
X938179Y901395D01*
G02X939515Y899899I-1163J-2384D01*
G03X939993I239J321D01*
G37*
G36*
G01X939434Y899100D02*
G02X938868Y898535I-962J396D01*
G01X939717Y897586D01*
X940565Y898535D01*
G02X940000Y899100I396J962D01*
G03X939434I-283J-283D01*
G37*
G36*
G01X938709Y913811D02*
G02X939509I400J-960D01*
G01X939580Y915082D01*
X938309Y915011D01*
G02Y914211I-960J-400D01*
G03X938709Y913811I400J0D01*
G37*
G36*
G01X963007Y958800D02*
X972000D01*
X972100Y958700D01*
Y955700D01*
X971900Y955500D01*
X966000D01*
Y954300D01*
X958800Y947100D01*
Y932200D01*
X961200Y929800D01*
X968100D01*
X969700Y931400D01*
Y943300D01*
X971000D01*
X972800Y941500D01*
X979600D01*
X980400Y940700D01*
Y931400D01*
X973800D01*
Y928500D01*
X973430Y928130D01*
X973420Y928123D01*
G03X973064Y927806I2463J-3136D01*
G01X970158Y924900D01*
X955000D01*
X949100Y930800D01*
Y955100D01*
X951600Y957600D01*
X961900D01*
X962800Y958500D01*
Y958593D01*
X963007Y958800D01*
G37*
G36*
G01X946317Y939014D02*
G02X945751Y938449I-962J396D01*
G01X946600Y937500D01*
X947449Y938449D01*
G02X946883Y939014I396J962D01*
G03X946317I-283J-283D01*
G37*
G36*
G01X946917Y944914D02*
G02X946351Y944349I-962J396D01*
G01X947200Y943400D01*
X948049Y944349D01*
G02X947483Y944914I396J962D01*
G03X946917I-283J-283D01*
G37*
G36*
G01X947483Y942086D02*
G02X948049Y942652I962J-396D01*
G01X947200Y943600D01*
X946351Y942652D01*
G02X946917Y942086I-396J-962D01*
G03X947483I283J283D01*
G37*
G36*
G01X946883Y948086D02*
G02X947449Y948651I962J-396D01*
G01X946600Y949600D01*
X945751Y948651D01*
G02X946317Y948086I-396J-962D01*
G03X946883I283J283D01*
G37*
G36*
G01X946892Y959808D02*
G02X947692I400J-960D01*
G01X947763Y961079D01*
X946492Y961008D01*
G02Y960208I-960J-400D01*
G03X946892Y959808I400J0D01*
G37*
G36*
G01X945717Y957814D02*
G02X945151Y957248I-962J396D01*
G01X946000Y956300D01*
X946849Y957248D01*
G02X946283Y957814I396J962D01*
G03X945717I-283J-283D01*
G37*
G36*
G01X956455Y837794D02*
G02X954947Y839142I897J2520D01*
G01X953146Y837555D01*
X954947Y835967D01*
G02X956455Y837315I2404J-1172D01*
G03Y837794I-320J240D01*
G37*
G36*
G01X962546Y836298D02*
G02X963111Y835733I-396J-962D01*
G01X964060Y836581D01*
X963111Y837430D01*
G02X962546Y836864I-962J396D01*
G03Y836298I283J-283D01*
G37*
G36*
G01X966753Y852039D02*
G02X966047Y854619I2778J2146D01*
G01X964187Y853089D01*
X966047Y851469D01*
G02X966700Y851790I787J-777D01*
G03X966753Y852039I-345J203D01*
G37*
G36*
G01X951793Y871677D02*
G02X952359Y871111I-396J-962D01*
G01X953307Y871960D01*
X952359Y872808D01*
G02X951793Y872243I-962J396D01*
G03Y871677I283J-283D01*
G37*
G36*
G01X963476Y868291D02*
G02X964276I400J-960D01*
G01X964347Y869562D01*
X963076Y869491D01*
G02Y868691I-960J-400D01*
G03X963476Y868291I400J0D01*
G37*
G36*
G01X966800Y953600D02*
X971100D01*
X971200Y953500D01*
Y944300D01*
X970200D01*
X969700Y943800D01*
X969200D01*
Y943300D01*
X969173Y943273D01*
G03X969027Y943127I1127J-1273D01*
G01X968600Y942700D01*
Y942025D01*
G03X968600Y942000I1700J-26D01*
G03X968600Y941975I1700J1D01*
G01Y931300D01*
X961300D01*
X960100Y932500D01*
Y946900D01*
X966800Y953600D01*
G37*
G36*
G01X962000Y964300D02*
X982900D01*
X983100Y964100D01*
Y960900D01*
X964400D01*
X962706Y959206D01*
X962663Y959191D01*
G03X962357Y958885I165J-472D01*
G01X962341Y958841D01*
X961700Y958200D01*
X960200D01*
X959600Y958800D01*
Y961900D01*
X962000Y964300D01*
G37*
G36*
G01X964100Y976400D02*
G02Y977200I960J400D01*
G01X962829Y977271D01*
X962900Y976000D01*
G02X963700I400J-960D01*
G03X964100Y976400I0J400D01*
G37*
G36*
G01X966841Y974372D02*
G02X967899Y973292I-815J-1857D01*
G01X969700Y974566D01*
X967899Y975841D01*
G02X966841Y974761I-1873J777D01*
G03Y974372I350J-194D01*
G37*
G36*
G01X972606Y848763D02*
G02X970487Y846646I-3614J1498D01*
G01X972800Y843223D01*
X975113Y846646D01*
G02X972994Y848763I1494J3615D01*
G03X972606I-194J-239D01*
G37*
G36*
G01X980006Y845786D02*
G02X980006Y843852I-2321J-967D01*
G01X982854Y843246D01*
X982248Y846094D01*
G02X980314Y846094I-967J2321D01*
G03X980006Y845786I0J-308D01*
G37*
G36*
G01X973318Y902221D02*
G02X973948Y902852I1072J-441D01*
G01X973100Y903777D01*
X972252Y902852D01*
G02X972882Y902221I-442J-1072D01*
G03X973318I218J218D01*
G37*
G36*
G01X969692Y923175D02*
G02X968800I-446J1070D01*
G01X968746Y921921D01*
X970000Y921975D01*
G02Y922867I1070J446D01*
G03X969692Y923175I-308J0D01*
G37*
G36*
G01X969018Y920496D02*
G02X969648Y921127I1072J-441D01*
G01X968800Y922052D01*
X967952Y921127D01*
G02X968582Y920496I-442J-1072D01*
G03X969018I218J218D01*
G37*
G36*
G01X974720Y927633D02*
G02X975499Y926279I-1268J-1631D01*
G01X977277Y927871D01*
X975499Y929454D01*
G02X974715Y927815I-2387J135D01*
G03X974720Y927633I296J-84D01*
G37*
G36*
G01X971916Y921489D02*
G02X971401Y920732I-1223J277D01*
G01X971786Y919524D01*
X972571Y920519D01*
G02X972355Y921410I1027J721D01*
G03X971916Y921489I-257J-169D01*
G37*
G36*
G01X972018Y918125D02*
G02X972644Y918752I1065J-438D01*
G01X971800Y919677D01*
X970956Y918752D01*
G02X971582Y918125I-439J-1065D01*
G03X972018I218J218D01*
G37*
G36*
G01X985900Y931400D02*
X985800Y931300D01*
X982700D01*
Y941000D01*
X985200Y943500D01*
Y952200D01*
X987600Y954600D01*
X995200D01*
X997200Y952600D01*
Y944200D01*
X995900Y942900D01*
X987700D01*
X985900Y941100D01*
Y931400D01*
G37*
G36*
G01X976000Y916300D02*
X975400Y916900D01*
Y922800D01*
X976200Y923600D01*
X984100D01*
X984200Y923500D01*
Y919100D01*
X981400Y916300D01*
X976000D01*
G37*
G36*
G01X974100Y958800D02*
X983100D01*
X983600Y958300D01*
Y954400D01*
X983207D01*
X983149Y954453D01*
G03X982000Y954900I-1149J-1253D01*
G03Y951500I0J-1700D01*
G03X983149Y951947I0J1700D01*
G01X983207Y952000D01*
X983600D01*
Y943100D01*
X983000Y942500D01*
X973400D01*
Y958100D01*
X974100Y958800D01*
G37*
G36*
G01X976004Y962907D02*
G02X977349Y964252I2286J-941D01*
G01X976538Y965193D01*
X975721Y964321D01*
Y963190D01*
X976004Y962907D01*
G37*
G36*
G01X977914Y965383D02*
G02X977349Y965948I396J962D01*
G01X976400Y965100D01*
X977349Y964252D01*
G02X977914Y964817I962J-396D01*
G03Y965383I-283J283D01*
G37*
G36*
G01X983414Y953483D02*
G02X982848Y954048I396J962D01*
G01X981900Y953200D01*
X982848Y952352D01*
G02X983414Y952917I962J-396D01*
G03Y953483I-283J283D01*
G37*
G36*
G01X979700Y969742D02*
G02Y971000I1509J629D01*
G01X978456Y971063D01*
X978383Y969823D01*
G02X979275Y969457I7J-1253D01*
G03X979700Y969742I117J285D01*
G37*
G36*
G01X973300Y976300D02*
X982400D01*
X982500Y976200D01*
Y973300D01*
X982000Y972800D01*
X973300D01*
Y976300D01*
G37*
G36*
G01X992582Y847815D02*
G02X990434Y845666I-3653J1504D01*
G01X992800Y843223D01*
X995166Y845666D01*
G02X993018Y847815I1505J3653D01*
G03X992582I-218J-218D01*
G37*
G36*
G01X1005300Y962300D02*
X1007800D01*
X1011224Y958876D01*
Y958232D01*
G03X1011500Y957290I1744J0D01*
G01Y955982D01*
X1011477Y955938D01*
G03X1011177Y954728I2288J-1209D01*
G03X1011500Y953476I2588J0D01*
G01Y944300D01*
X1020800Y935000D01*
Y931006D01*
G03X1020568Y929912I2468J-1094D01*
G03X1020800Y928817I2700J0D01*
G01Y927039D01*
G03X1020468Y925743I2368J-1297D01*
G03X1020777Y924489I2700J0D01*
G01X1020800Y924445D01*
Y923400D01*
X1016900Y919500D01*
X1007400D01*
X1004300Y916400D01*
Y913500D01*
X988700D01*
X987900Y914300D01*
Y926400D01*
X996400D01*
X998500Y924300D01*
X1004500D01*
X1004800Y924600D01*
Y951100D01*
X1006100Y952400D01*
X1007500D01*
X1008100Y953000D01*
Y955600D01*
X1005000Y958700D01*
Y962000D01*
X1005300Y962300D01*
G37*
G36*
G01X987900Y932000D02*
X988400Y932500D01*
X996700D01*
X997100Y932100D01*
Y928900D01*
X987900D01*
Y932000D01*
G37*
G36*
G01X999500Y927100D02*
X999300Y927300D01*
Y936800D01*
X999500Y937000D01*
X1002300D01*
X1002400Y936900D01*
Y927100D01*
X999500D01*
G37*
G36*
G01X998900Y954200D02*
X1000224D01*
X1000255Y954189D01*
G03X1000800Y954100I545J1611D01*
G03X1000815Y954100I-4J1700D01*
G01X1000899Y954101D01*
X1002400Y952600D01*
Y941800D01*
X998400D01*
X998300Y941900D01*
Y953600D01*
X998900Y954200D01*
G37*
G36*
G01X988000Y938400D02*
Y941600D01*
X996900D01*
X997300Y941200D01*
Y938500D01*
X997200Y938400D01*
X988000D01*
G37*
G36*
G01X999400Y962200D02*
X1002300D01*
X1002500Y962000D01*
Y957800D01*
X1003100Y957200D01*
X1005200D01*
X1005700Y956700D01*
Y953100D01*
X1005600Y953000D01*
X1002707D01*
X1001007Y954700D01*
X1001000D01*
X1000000Y955700D01*
X999300D01*
X999200Y955800D01*
Y962000D01*
X999400Y962200D01*
G37*
G36*
G01X992445Y973944D02*
G02X991489Y973900I-531J1126D01*
G01X991458Y972656D01*
X992700Y972700D01*
G02Y973700I1200J500D01*
G03X992445Y973944I-244J0D01*
G37*
G36*
G01X992883Y975729D02*
G02X992575Y976688I1031J860D01*
G01X991342Y976896D01*
X991664Y975688D01*
G02X992646Y975469I221J-1325D01*
G03X992883Y975729I-6J244D01*
G37*
G36*
G01X1012469Y877841D02*
G02X1012814Y878836I1464J49D01*
G01X1012096Y879900D01*
X1011467Y878781D01*
G02X1011892Y877817I-1038J-1034D01*
G03X1012469Y877841I277J288D01*
G37*
G36*
G01X1005318Y875268D02*
G02X1004752Y874702I-962J396D01*
G01X1005601Y873754D01*
X1006449Y874702D01*
G02X1005884Y875268I396J962D01*
G03X1005318I-283J-283D01*
G37*
G36*
G01X1064200Y932200D02*
X1061498Y934902D01*
G02X1061783Y935588I284J284D01*
G01X1062012D01*
X1065900Y931700D01*
X1067400D01*
X1068700Y930400D01*
Y902800D01*
X1062000Y896100D01*
X1046600D01*
Y873500D01*
X1040900Y867800D01*
X1028900D01*
X1026600Y870100D01*
Y894800D01*
X1025300Y896100D01*
X1012100D01*
X1010500Y897700D01*
Y901800D01*
X1014200Y905500D01*
X1054500D01*
X1064200Y915200D01*
Y932200D01*
G37*
G36*
G01X1021644Y885939D02*
G02X1022692Y886745I1540J-917D01*
G01X1021087Y888544D01*
X1019518Y886745D01*
G02X1021423Y885924I-52J-2740D01*
G03X1021644Y885939I85J391D01*
G37*
G36*
G01X1014186Y882517D02*
G02X1014752Y881951I-396J-962D01*
G01X1015700Y882800D01*
X1014752Y883649D01*
G02X1014186Y883083I-962J396D01*
G03Y882517I283J-283D01*
G37*
G36*
G01X1016800Y882000D02*
G02Y882800I960J400D01*
G01X1015529Y882871D01*
X1015600Y881600D01*
G02X1016400I400J-960D01*
G03X1016800Y882000I0J400D01*
G37*
G36*
G01X1015114Y892763D02*
G02X1014549Y893328I396J962D01*
G01X1013600Y892480D01*
X1014549Y891632D01*
G02X1015114Y892197I962J-396D01*
G03Y892763I-283J283D01*
G37*
G36*
G01X1011647Y888730D02*
G02X1010406Y889987I927J2157D01*
G01X1008731Y888521D01*
X1010406Y887055D01*
G02X1011647Y888312I2168J-900D01*
G03Y888730I-341J209D01*
G37*
G36*
G01X1011967Y888203D02*
G02X1013585Y886745I-971J-2705D01*
G01X1015273Y888446D01*
X1013585Y890147D01*
G02X1011967Y888689I-2590J1247D01*
G03Y888203I318J-243D01*
G37*
G36*
G01X1018300Y884300D02*
G02Y883500I-960J-400D01*
G01X1019571Y883429D01*
X1019500Y884700D01*
G02X1018700I-400J960D01*
G03X1018300Y884300I0J-400D01*
G37*
G36*
G01X1016708Y914100D02*
G02X1017600I446J-1070D01*
G01X1017654Y915354D01*
X1016400Y915300D01*
G02Y914408I-1070J-446D01*
G03X1016708Y914100I308J0D01*
G37*
G36*
G01X1017456Y963698D02*
G02X1016500I-478J1147D01*
G01X1016457Y962455D01*
X1017700Y962498D01*
G02Y963454I1147J478D01*
G03X1017456Y963698I-244J0D01*
G37*
G36*
G01X1017937Y965828D02*
G02X1017644Y966359I548J649D01*
G01X1016452Y966759D01*
X1017147Y965712D01*
G02X1017736Y965566I103J-844D01*
G03X1017937Y965828I-42J240D01*
G37*
G36*
G01X1031771Y850099D02*
G02X1032802Y849869I239J-1352D01*
G01X1033575Y850818D01*
X1032651Y851648D01*
G02X1031621Y850618I-1752J721D01*
G03X1031771Y850099I218J-218D01*
G37*
G36*
G01X1022516Y868647D02*
G02X1023480Y868222I-70J-1463D01*
G01X1024599Y868851D01*
X1023535Y869569D01*
G02X1022540Y869224I-946J1119D01*
G03X1022516Y868647I265J-300D01*
G37*
G36*
G01X1021600Y885800D02*
G02Y885000I-960J-400D01*
G01X1022871Y884929D01*
X1022800Y886200D01*
G02X1022000I-400J960D01*
G03X1021600Y885800I0J-400D01*
G37*
G36*
G01X1032438Y912891D02*
G02X1033945Y911543I-897J-2520D01*
G01X1035746Y913131D01*
X1033945Y914718D01*
G02X1032438Y913370I-2404J1172D01*
G03Y912891I320J-240D01*
G37*
G36*
G01X1025826Y913002D02*
G02X1025260Y913567I396J962D01*
G01X1024312Y912719D01*
X1025260Y911870D01*
G02X1025826Y912436I962J-396D01*
G03Y913002I-283J283D01*
G37*
G36*
G01X1024468Y928956D02*
G02Y929912I1147J478D01*
G01X1023225Y929955D01*
X1023268Y928712D01*
G02X1024224I478J-1147D01*
G03X1024468Y928956I0J244D01*
G37*
G36*
G01X1035357Y932287D02*
G02X1035357Y933157I1043J435D01*
G01X1034157Y933243D01*
X1034243Y932043D01*
G02X1035113Y932043I435J-1043D01*
G03X1035357Y932287I0J244D01*
G37*
G36*
G01X1024125Y926943D02*
G02X1023169I-478J1147D01*
G01X1023125Y925700D01*
X1024368Y925743D01*
G02Y926699I1147J478D01*
G03X1024125Y926943I-244J0D01*
G37*
G36*
G01X1032625Y930873D02*
G02X1031948Y931549I473J1149D01*
G01X1031039Y930700D01*
X1031948Y929852D01*
G02X1032625Y930528I1149J-473D01*
G03Y930873I-173J173D01*
G37*
G36*
G01X1025224Y938297D02*
G02X1024548Y938973I473J1149D01*
G01X1023639Y938125D01*
X1024548Y937276D01*
G02X1025224Y937952I1149J-473D01*
G03Y938297I-173J172D01*
G37*
G36*
G01X1036383Y941661D02*
G02X1036383Y942583I1107J461D01*
G01X1035157Y942643D01*
X1035217Y941417D01*
G02X1036139Y941417I461J-1107D01*
G03X1036383Y941661I0J244D01*
G37*
G36*
G01X1024575Y935423D02*
G02X1023619Y935087I-881J979D01*
G01X1023664Y933852D01*
X1024900Y933901D01*
G02Y935193I1550J646D01*
G03X1024575Y935423I-244J0D01*
G37*
G36*
G01X1035157Y939347D02*
G02X1034269Y939807I126J1329D01*
G01X1033239Y939098D01*
X1034320Y938468D01*
G02X1035170Y938994I1077J-789D01*
G03X1035157Y939347I-175J170D01*
G37*
G36*
G01X1021573Y954334D02*
G02X1022190Y954952I1049J-431D01*
G01X1021400Y955861D01*
X1020610Y954952D01*
G02X1021228Y954334I-431J-1049D01*
G03X1021573I173J173D01*
G37*
G36*
G01X1024344Y954000D02*
G02X1025300I478J-1147D01*
G01X1025343Y955243D01*
X1024100Y955200D01*
G02Y954244I-1147J-478D01*
G03X1024344Y954000I244J0D01*
G37*
G36*
G01X1032800Y958844D02*
G02Y959800I1147J478D01*
G01X1031557Y959843D01*
X1031600Y958600D01*
G02X1032556I478J-1147D01*
G03X1032800Y958844I0J244D01*
G37*
G36*
G01X1038200Y973312D02*
G02Y974268I1147J478D01*
G01X1036957Y974311D01*
X1037000Y973068D01*
G02X1037956I478J-1147D01*
G03X1038200Y973312I0J244D01*
G37*
G36*
G01X1037956Y971244D02*
G02X1037000I-478J1147D01*
G01X1036957Y970001D01*
X1038200Y970044D01*
G02Y971000I1147J478D01*
G03X1037956Y971244I-244J0D01*
G37*
G36*
G01X1048486Y826517D02*
G02X1049052Y825952I-396J-962D01*
G01X1050000Y826800D01*
X1049052Y827649D01*
G02X1048486Y827083I-962J396D01*
G03Y826517I283J-283D01*
G37*
G36*
G01X1050700Y828000D02*
G02X1049900I-400J960D01*
G01X1049829Y826729D01*
X1051100Y826800D01*
G02Y827600I960J400D01*
G03X1050700Y828000I-400J0D01*
G37*
G36*
G01X1055200Y914500D02*
X1054300Y915400D01*
Y916700D01*
X1060100Y922500D01*
Y928300D01*
X1059400Y929000D01*
X1057300D01*
Y929800D01*
X1059500D01*
Y930600D01*
X1057300D01*
Y931400D01*
X1062800D01*
X1062900Y931300D01*
Y917900D01*
X1059500Y914500D01*
X1055200D01*
G37*
G36*
G01X1053323Y930531D02*
G02X1054238Y930608I553J-1101D01*
G01X1054852Y931700D01*
X1053601Y931625D01*
G02X1053133Y930835I-1218J188D01*
G03X1053323Y930531I235J-64D01*
G37*
G36*
G01X1052518Y929526D02*
G02X1052140Y929832I237J678D01*
G01X1050997Y929439D01*
X1052140Y929046D01*
G02X1052518Y929352I615J-371D01*
G03Y929526I-228J87D01*
G37*
G36*
G01X1054339Y929217D02*
G02X1054116Y928430I-1101J-113D01*
G01X1054809Y927384D01*
X1055150Y928592D01*
G02X1054697Y929273I631J910D01*
G03X1054339Y929217I-154J-190D01*
G37*
G36*
G01X1056517Y946903D02*
G02X1055810Y947610I494J1202D01*
G01X1054912Y946762D01*
X1055810Y945913D01*
G02X1056517Y946620I1202J-494D01*
G03Y946903I-141J141D01*
G37*
G36*
G01X1056694Y942180D02*
G02X1055987Y942887I494J1202D01*
G01X1055088Y942038D01*
X1055987Y941190D01*
G02X1056694Y941897I1202J-494D01*
G03Y942180I-141J141D01*
G37*
G36*
G01X1055800Y935124D02*
G02Y936124I1200J500D01*
G01X1054565Y936159D01*
X1054600Y934924D01*
G02X1055600I500J-1200D01*
G03X1055800Y935124I0J200D01*
G37*
G36*
G01X1054968Y934336D02*
G02X1055351Y935188I1238J-44D01*
G01X1054594Y936173D01*
X1054101Y935033D01*
G02X1054681Y934301I-609J-1079D01*
G03X1054968Y934336I127J155D01*
G37*
G36*
G01X1049598Y940376D02*
G02X1049975Y940070I-237J-678D01*
G01X1051119Y940463D01*
X1049975Y940857D01*
G02X1049598Y940550I-615J371D01*
G03Y940376I228J-87D01*
G37*
G36*
G01Y937226D02*
G02X1049975Y936920I-237J-678D01*
G01X1051119Y937313D01*
X1049975Y937706D01*
G02X1049598Y937400I-615J371D01*
G03Y937226I228J-87D01*
G37*
G36*
G01Y941952D02*
G02X1049975Y941645I-237J-678D01*
G01X1051119Y942038D01*
X1049975Y942432D01*
G02X1049598Y942125I-615J371D01*
G03Y941952I228J-87D01*
G37*
G36*
G01Y935652D02*
G02X1049975Y935346I-237J-678D01*
G01X1051119Y935739D01*
X1049975Y936133D01*
G02X1049598Y935826I-615J371D01*
G03Y935652I228J-87D01*
G37*
G36*
G01Y948250D02*
G02X1049975Y947944I-237J-678D01*
G01X1051119Y948337D01*
X1049975Y948731D01*
G02X1049598Y948424I-615J371D01*
G03Y948250I228J-87D01*
G37*
G36*
G01Y949825D02*
G02X1049975Y949518I-237J-678D01*
G01X1051119Y949912D01*
X1049975Y950305D01*
G02X1049598Y949998I-615J371D01*
G03Y949825I228J-87D01*
G37*
G36*
G01Y945100D02*
G02X1049975Y944793I-237J-678D01*
G01X1051119Y945187D01*
X1049975Y945580D01*
G02X1049598Y945274I-615J371D01*
G03Y945100I228J-87D01*
G37*
G36*
G01Y946675D02*
G02X1049975Y946368I-237J-678D01*
G01X1051119Y946762D01*
X1049975Y947155D01*
G02X1049598Y946848I-615J371D01*
G03Y946675I228J-87D01*
G37*
G36*
G01Y954549D02*
G02X1049975Y954242I-237J-678D01*
G01X1051119Y954636D01*
X1049975Y955029D01*
G02X1049598Y954722I-615J371D01*
G03Y954549I228J-87D01*
G37*
G36*
G01Y956124D02*
G02X1049975Y955818I-237J-678D01*
G01X1051119Y956211D01*
X1049975Y956605D01*
G02X1049598Y956298I-615J371D01*
G03Y956124I228J-87D01*
G37*
G36*
G01X1052518Y957872D02*
G02X1052140Y958179I237J678D01*
G01X1050997Y957786D01*
X1052140Y957392D01*
G02X1052518Y957699I615J-371D01*
G03Y957872I-228J87D01*
G37*
G36*
G01Y959448D02*
G02X1052140Y959754I237J678D01*
G01X1050997Y959361D01*
X1052140Y958968D01*
G02X1052518Y959274I615J-371D01*
G03Y959448I-228J87D01*
G37*
G36*
G01X1049598Y952974D02*
G02X1049975Y952667I-237J-678D01*
G01X1051119Y953061D01*
X1049975Y953454D01*
G02X1049598Y953148I-615J371D01*
G03Y952974I228J-87D01*
G37*
G36*
G01X1067300Y962000D02*
X1074500D01*
X1077700Y958800D01*
Y891300D01*
X1077500Y891100D01*
X1074000D01*
X1072000Y893100D01*
Y957400D01*
X1070700Y958700D01*
X1069127D01*
G03X1069100Y958700I-28J-2000D01*
G01X1065721D01*
G03X1065691Y958700I1J-2458D01*
G01X1062700D01*
Y959300D01*
X1062800Y959400D01*
X1064700D01*
X1067300Y962000D01*
G37*
G36*
G01X1056628Y932546D02*
G02X1057260Y932196I-121J-963D01*
G01X1058392Y932586D01*
X1057260Y932982D01*
G02X1056666Y932858I-454J692D01*
G03X1056628Y932546I103J-171D01*
G37*
G36*
G01X1056887Y946674D02*
G02X1057260Y946368I-216J-645D01*
G01X1058392Y946762D01*
X1057260Y947155D01*
G02X1056887Y946850I-589J339D01*
G03Y946674I179J-88D01*
G37*
G36*
G01Y941950D02*
G02X1057260Y941645I-216J-645D01*
G01X1058392Y942038D01*
X1057260Y942432D01*
G02X1056887Y942126I-589J339D01*
G03Y941950I179J-88D01*
G37*
G36*
G01X1056628Y934121D02*
G02X1057260Y933771I-121J-963D01*
G01X1058392Y934161D01*
X1057260Y934558D01*
G02X1056666Y934433I-454J692D01*
G03X1056628Y934121I103J-171D01*
G37*
G36*
G01X1064486Y940705D02*
G02X1065052Y940140I-396J-962D01*
G01X1066000Y940988D01*
X1065052Y941837D01*
G02X1064486Y941271I-962J396D01*
G03Y940705I283J-283D01*
G37*
G36*
G01X1065686Y948617D02*
G02X1066252Y948052I-396J-962D01*
G01X1067200Y948900D01*
X1066252Y949749D01*
G02X1065686Y949183I-962J396D01*
G03Y948617I283J-283D01*
G37*
G36*
G01X1065117Y945792D02*
G02X1066081Y945367I-70J-1463D01*
G01X1067200Y945996D01*
X1066136Y946714D01*
G02X1065141Y946369I-946J1119D01*
G03X1065117Y945792I265J-300D01*
G37*
G36*
G01X1064374Y936505D02*
G02X1064940Y935940I-396J-962D01*
G01X1065888Y936788D01*
X1064940Y937637D01*
G02X1064374Y937071I-962J396D01*
G03Y936505I283J-283D01*
G37*
G36*
G01X1060798Y938605D02*
G02X1061363Y938040I-396J-962D01*
G01X1062312Y938888D01*
X1061363Y939737D01*
G02X1060798Y939171I-962J396D01*
G03Y938605I283J-283D01*
G37*
G36*
G01X1065441Y954531D02*
G02X1066436Y954186I49J-1464D01*
G01X1067500Y954904D01*
X1066381Y955533D01*
G02X1065417Y955108I-1034J1038D01*
G03X1065441Y954531I288J-277D01*
G37*
G36*
G01X1065686Y951717D02*
G02X1066252Y951151I-396J-962D01*
G01X1067200Y952000D01*
X1066252Y952849D01*
G02X1065686Y952283I-962J396D01*
G03Y951717I283J-283D01*
G37*
%LPC*%
G75*
G54D31*
X953700Y937700D03*
X1029628Y876531D03*
X1033245Y882671D03*
X1058700Y906200D03*
%LPD*%
G75*
G36*
G01X902798Y840873D02*
G02X904046Y839625I-874J-2123D01*
G01X907646Y841156D01*
X904047Y842687D01*
G02X902798Y841439I-2122J874D01*
G03Y840873I283J-283D01*
G37*
G36*
G01Y874888D02*
G02X904046Y873640I-874J-2123D01*
G01X907646Y875171D01*
X904047Y876702D01*
G02X902798Y875454I-2122J874D01*
G03Y874888I283J-283D01*
G37*
G54D10*
X897650Y827550D03*
X896850Y992250D03*
X1066750Y829850D03*
X1066250Y991250D03*
G54D11*
X891090Y841155D03*
Y875170D03*
G54D20*
X926137Y921674D03*
X926136Y978761D03*
G54D30*
G01X902385Y1005500D02*
X1059615D01*
G02X1079300Y985815I0J-19685D01*
G01Y834785D01*
G02X1059615Y815100I-19685J0D01*
G01X902385D01*
G02X882700Y834785I0J19685D01*
G01Y985815D01*
G02X902385Y1005500I19685J0D01*
G54D12*
X899076Y858846D03*
X899082Y853046D03*
X905008Y858846D03*
X905014Y853046D03*
X951813Y861246D03*
X957745D03*
X974734Y979600D03*
X980666D03*
X1015173Y888446D03*
X1021105D03*
G54D21*
X917779Y960424D03*
Y965936D03*
X942666Y842076D03*
Y836564D03*
X964000Y842056D03*
Y836544D03*
X964276Y858556D03*
Y853044D03*
X964279Y863989D03*
Y869501D03*
X964600Y962656D03*
Y957144D03*
X975721Y962566D03*
Y957054D03*
X981311Y962521D03*
Y957009D03*
X970200Y962656D03*
Y957144D03*
X995379Y924944D03*
Y930456D03*
X989789Y924934D03*
Y930446D03*
X989800Y945556D03*
Y940044D03*
X995400Y945556D03*
Y940044D03*
G54D13*
X892285Y852440D03*
Y860314D03*
G54D22*
X953246Y843487D03*
Y837555D03*
X969600Y968634D03*
Y974566D03*
X982400Y927866D03*
Y921934D03*
X977200Y927866D03*
Y921934D03*
X980500Y968634D03*
X974800D03*
X980500Y974566D03*
X974800D03*
X1035646Y913131D03*
Y919063D03*
G54D23*
X982800Y843300D03*
X1002800D03*
X992800D03*
X1022800D03*
X1012800D03*
G54D14*
X892285Y860314D03*
X894149Y886554D03*
X894143Y881143D03*
X891000Y895300D03*
X886300D03*
X905200Y858900D03*
Y853035D03*
X900965Y895735D03*
X906889Y892024D03*
X906817Y897586D03*
X912400Y886754D03*
X912401Y892024D03*
X906600Y914900D03*
X910200Y909500D03*
X912900Y906400D03*
X914600Y932700D03*
X913700Y947000D03*
X917536Y825736D03*
X917753Y845807D03*
X930700Y874800D03*
X933465Y895835D03*
X927049Y886654D03*
X922200Y895700D03*
X918800D03*
X927043Y881442D03*
X920931Y934469D03*
X920926Y940374D03*
X920920Y946280D03*
X917779Y956479D03*
X920915Y952185D03*
X917736Y965936D03*
X950537Y831030D03*
X942683Y842069D03*
X945025Y831030D03*
X942683Y836557D03*
X940476Y849099D03*
X946072D03*
Y854611D03*
X946100Y859300D03*
X940470Y860015D03*
X940476Y854611D03*
X940470Y865527D03*
X939100Y875700D03*
X939500Y871300D03*
X942600Y875700D03*
X943600Y872800D03*
X934600Y874800D03*
X939729Y891996D03*
X939717Y897686D03*
X951191Y886385D03*
X950800Y890700D03*
X945241Y891996D03*
X945300Y886854D03*
X939509Y915011D03*
X942600Y909700D03*
X945400Y906800D03*
X946400Y931700D03*
X946600Y949500D03*
X947200Y943500D03*
X946600Y937600D03*
X946000Y956400D03*
X936100Y957000D03*
X947692Y961008D03*
X964000Y842056D03*
X955979Y831024D03*
X953400Y843400D03*
X963960Y836581D03*
X961491Y831024D03*
X964270Y858537D03*
X953231Y850683D03*
X951900Y861200D03*
X964270Y853025D03*
X958743Y850683D03*
X963800Y878000D03*
X953207Y871960D03*
X952700Y876700D03*
X964276Y869491D03*
X958719Y871960D03*
X963812Y886976D03*
X957600Y890800D03*
Y886500D03*
X968800Y921975D03*
X963600Y920900D03*
X966879Y942579D03*
X961800Y934900D03*
X963200Y938400D03*
X953700Y937700D03*
X961500Y945500D03*
X961224Y959476D03*
X958737Y967946D03*
X955054Y962746D03*
X958900Y974800D03*
X962900Y977200D03*
X969400Y877600D03*
X972379Y863979D03*
X986107Y881203D03*
X980169Y886403D03*
X979124Y895024D03*
X985344Y901628D03*
X973100Y903700D03*
X971800Y919600D03*
X977100Y917600D03*
X978400Y943646D03*
X970300Y942000D03*
X979102Y940202D03*
X970100Y967800D03*
X975300Y968600D03*
X978800Y952900D03*
X976500Y965100D03*
X970100Y957000D03*
X982000Y953200D03*
X980600Y979700D03*
X978500Y971000D03*
X974734Y979600D03*
X974800Y974566D03*
X994934Y868321D03*
X1000521Y868414D03*
X1003319Y888521D03*
X999047Y884441D03*
X998900Y891100D03*
X996412Y907086D03*
X994044Y914956D03*
X989789Y915111D03*
X998200Y914900D03*
X1001552Y914952D03*
X989800Y931200D03*
X991200Y949200D03*
Y944200D03*
X989900Y940000D03*
X1000800Y935800D03*
X999400Y952900D03*
X987600Y952300D03*
X990800Y952400D03*
X996616Y960984D03*
X1000800Y955800D03*
X988600Y970000D03*
X995200Y978000D03*
X991500Y972700D03*
X991387Y976855D03*
X1020234Y876313D03*
X1005989Y867789D03*
X1011533Y873854D03*
X1011501Y867789D03*
X1017019Y868855D03*
X1013200Y864000D03*
X1016900Y863800D03*
X1012100Y879800D03*
X1005601Y873854D03*
X1013800Y898400D03*
X1017700Y898600D03*
X1005300Y884000D03*
X1005600Y891000D03*
X1013700Y892480D03*
X1015600Y882800D03*
X1019500Y883500D03*
X1013540Y901728D03*
X1017600Y901900D03*
Y915300D03*
X1006436Y922536D03*
X1019268Y924812D03*
Y930712D03*
X1020800Y921300D03*
X1012000D03*
X1020100Y918100D03*
X1006500Y934200D03*
X1019200Y934500D03*
X1018400Y959000D03*
X1016500Y962498D03*
Y966722D03*
X1021400Y955800D03*
X1017900Y970400D03*
X1033400Y833200D03*
X1033500Y850800D03*
X1029628Y871019D03*
Y876531D03*
X1024499Y868855D03*
X1033245Y882671D03*
X1022800Y885000D03*
X1024412Y912719D03*
X1027300Y908900D03*
X1031600Y908700D03*
X1035646Y919063D03*
X1024412Y918231D03*
X1023268Y929912D03*
X1027200Y930700D03*
X1034200Y933200D03*
X1023169Y925743D03*
X1031100Y930700D03*
X1037800Y934900D03*
X1029700Y941100D03*
X1033300Y946100D03*
X1023700Y938125D03*
X1035200Y942600D03*
X1023700Y933901D03*
X1033300Y939100D03*
X1026300Y963900D03*
X1029300Y955100D03*
X1032500Y963700D03*
X1038800Y966500D03*
X1025300Y955200D03*
X1027400Y959600D03*
X1031600Y959800D03*
X1035100Y977700D03*
X1037000Y974268D03*
Y970044D03*
X1049900Y826800D03*
X1056303Y841597D03*
X1050356Y851900D03*
X1055800Y915900D03*
X1049200Y909500D03*
X1046300Y925000D03*
X1051500Y925100D03*
X1048200Y927600D03*
X1054800Y931668D03*
Y927444D03*
X1054962Y946762D03*
X1055138Y942038D03*
X1054600Y936124D03*
X1054900Y950700D03*
X1042500Y963900D03*
X1047500Y961500D03*
X1054400Y954500D03*
X1073400Y895400D03*
X1073600Y902700D03*
X1073500Y899300D03*
X1058700Y906200D03*
Y919300D03*
X1057900Y924600D03*
X1062212Y938888D03*
X1065788Y936788D03*
X1067100Y946000D03*
Y948900D03*
X1065900Y940988D03*
X1067100Y952000D03*
X1067400Y954900D03*
X1063800Y964000D03*
X1076800Y895200D03*
X1075000Y892400D03*
X1076400Y902500D03*
X1076600Y898900D03*
G54D24*
X972800Y843300D03*
G54D15*
X896461Y868607D03*
X904335D03*
X902597Y932707D03*
X910471D03*
G54D16*
X891381Y899548D03*
X885869D03*
X906809Y897466D03*
X912321D03*
X906829Y891896D03*
X912341D03*
X906854Y903066D03*
X912366D03*
X903834Y946976D03*
X909346D03*
X924281Y899648D03*
X918769D03*
X950556Y831024D03*
X945044D03*
X939709Y897566D03*
X945221D03*
X939729Y891996D03*
X945241D03*
X939754Y903166D03*
X945266D03*
X955989Y831021D03*
X961501D03*
X953224Y850666D03*
X958736D03*
X953244Y871900D03*
X958756D03*
X966889Y933228D03*
X966879Y938779D03*
X978754Y933121D03*
X984266D03*
X972401Y933228D03*
X972391Y938779D03*
X969644Y951600D03*
X975156D03*
X978744Y938711D03*
X984256D03*
X969644Y946000D03*
X975156D03*
X1003319Y888521D03*
X1000869Y934334D03*
X1000924Y928744D03*
X1000909Y949279D03*
X1000864Y943689D03*
X1000924Y960434D03*
X1004144Y955001D03*
X1008831Y888521D03*
X1006381Y934334D03*
X1006436Y928744D03*
X1006421Y949279D03*
X1006376Y943689D03*
X1006436Y960434D03*
X1009656Y955001D03*
G54D25*
X1051058Y927865D03*
Y932589D03*
Y931014D03*
Y929439D03*
Y942038D03*
Y940463D03*
Y938888D03*
Y937313D03*
Y935739D03*
Y934164D03*
Y949912D03*
Y948337D03*
Y946762D03*
Y945187D03*
Y943613D03*
Y960935D03*
Y959361D03*
Y957786D03*
Y956211D03*
Y954636D03*
Y953061D03*
Y951487D03*
X1058342Y927865D03*
Y929439D03*
Y931014D03*
Y932589D03*
Y934164D03*
Y935739D03*
Y937313D03*
Y938888D03*
Y940463D03*
Y942038D03*
Y943613D03*
Y945187D03*
Y946762D03*
Y948337D03*
Y949912D03*
Y960935D03*
Y951487D03*
Y953061D03*
Y954636D03*
Y956211D03*
Y957786D03*
Y959361D03*
G54D26*
G01X1062450Y956650D02*
X1062600D01*
G01X1058342Y946762D02*
X1054962D01*
G01X1058342Y942038D02*
X1055138D01*
G01X1054600Y936124D02*
Y935296D01*
G03X1055129Y934020I1805J0D01*
G01X1055974Y933175D01*
G03X1057388Y932589I1414J1414D01*
G01X1058342D01*
G01Y934164D02*
X1057388D01*
G02X1055974Y934750I0J2000D01*
G01X1054600Y936124D01*
G54D17*
X907546Y841156D03*
Y875171D03*
G54D27*
G01X906600Y914900D02*
X906130D01*
G03X903365Y912135I0J-2765D01*
G01Y884765D01*
G02X899743Y881143I-3622J0D01*
G01X894143D01*
G01X900000Y841100D02*
X900056Y841156D01*
X907546D01*
G01X899200Y874600D02*
X899771Y875171D01*
X907546D01*
G01X906854Y903066D02*
Y899723D01*
X906817Y899686D01*
Y897586D01*
G01X910471Y932707D02*
X914593D01*
X914600Y932700D01*
G01X909346Y946976D02*
X913676D01*
X913700Y947000D01*
G01X915100Y978600D02*
X915261Y978761D01*
X926136D01*
G01X939509Y915011D02*
X937672Y913174D01*
G03X936500Y910345I2829J-2829D01*
G01Y884300D01*
G02X933642Y881442I-2858J0D01*
G01X927043D01*
G01X916800Y921200D02*
X917274Y921674D01*
X926137D01*
G01X917779Y960424D02*
Y956479D01*
G01Y965936D02*
X917736D01*
G01X974800Y974566D02*
X972313Y972079D01*
X968736D01*
G03X965907Y970907I0J-4000D01*
G01X961672Y966672D01*
G02X958843Y965500I-2829J2829D01*
G01X920886D01*
X920451Y965936D01*
X917779D01*
G01X946072Y849099D02*
Y847520D01*
G03X947076Y845096I3427J0D01*
G01X950994Y841178D01*
G03X953596Y840100I2602J2602D01*
G01X960741D01*
G03X962966Y841021I0J3146D01*
G01X964000Y842056D01*
G01X946072Y849099D02*
X949420Y852447D01*
G02X951570Y853338I2150J-2150D01*
G01X953781D01*
G03X956609Y854509I0J4000D01*
G01X961021Y858921D01*
G03X961604Y860330I-1408J1408D01*
G01Y860489D01*
G02X962188Y861898I1992J0D01*
G01X964279Y863989D01*
G01X953207Y871960D02*
X947054D01*
G02X946177Y872323I0J1241D01*
G01X946064Y872436D01*
G03X945186Y872800I-878J-878D01*
G01X943600D01*
G01X939754Y903166D02*
Y899823D01*
X939717Y899786D01*
Y897686D01*
G01X946600Y937600D02*
Y940156D01*
G02X946844Y940744I831J0D01*
G01X946957Y940857D01*
G03X947200Y941444I-588J588D01*
G01Y943500D01*
G01D02*
Y946456D01*
G03X946957Y947044I-831J0D01*
G01X946844Y947156D01*
G02X946600Y947744I588J588D01*
G01Y949500D01*
G01X946000Y956400D02*
Y958199D01*
G02X946790Y960105I2695J0D01*
G01X947692Y961008D01*
G01X953246Y837555D02*
X960277D01*
G02X961316Y837125I0J-1469D01*
G01X961430Y837011D01*
G03X962468Y836581I1039J1039D01*
G01X963960D01*
G01X964276Y853044D02*
X964473D01*
G02X966684Y850833I0J-2211D01*
G01Y840773D01*
G03X967856Y837944I4000J0D01*
G01X977828Y827972D01*
G03X980657Y826800I2829J2829D01*
G01X1049900D01*
G01X957745Y861246D02*
Y861360D01*
X959460Y863074D01*
G03X959969Y864304I-1229J1229D01*
G01Y864464D01*
G02X960478Y865693I1739J0D01*
G01X964276Y869491D01*
G01X966879Y938779D02*
Y942579D01*
G01X961224Y959476D02*
X964404Y962656D01*
X964600D01*
G01Y957144D02*
X970200D01*
G01X969600Y974566D02*
X967191D01*
G02X964362Y975738I0J4000D01*
G01X962900Y977200D01*
G01X981311Y962521D02*
X978732Y965100D01*
X976500D01*
G01X975721Y962566D02*
Y964321D01*
X976500Y965100D01*
G01X982000Y953200D02*
X983636D01*
G03X984428Y953528I0J1120D01*
G01X985428Y954528D01*
G03X986600Y957357I-2829J2828D01*
G01Y968580D01*
X980614Y974566D01*
G01D02*
X980500D01*
G01X989789Y924934D02*
Y915111D01*
G01X998200Y914900D02*
Y916130D01*
G03X997443Y917957I-2583J0D01*
G01X996551Y918849D01*
G02X995379Y921678I2829J2828D01*
G01Y924944D01*
G01X990800Y952400D02*
Y949600D01*
X991200Y949200D01*
G01X1000869Y934334D02*
Y935731D01*
X1000800Y935800D01*
G01X990800Y952400D02*
X987700D01*
X987600Y952300D01*
G01X1024499Y868855D02*
X1023369D01*
G02X1021713Y869541I0J2342D01*
G01X1020412Y870842D01*
G03X1019307Y871300I-1105J-1105D01*
G01X1019147D01*
G02X1018042Y871758I0J1563D01*
G01X1012786Y877014D01*
G02X1012100Y878670I1656J1656D01*
G01Y879800D01*
G01X1015600Y882800D02*
X1012657D01*
G03X1009828Y881628I0J-4000D01*
G01X1006772Y878572D01*
G03X1005601Y875744I2829J-2829D01*
G01Y873854D01*
G01X1013700Y892480D02*
X1023520D01*
G02X1025200Y890800I0J-1680D01*
G01Y883600D01*
G02X1022700Y881100I-2500J0D01*
G01X1018422D01*
G02X1016506Y881894I0J2709D01*
G01X1015600Y882800D01*
G01X1015173Y888446D02*
X1011381D01*
X1011306Y888521D01*
X1008831D01*
G01X1019500Y883500D02*
X1018015Y884985D01*
Y885490D01*
X1015173Y888333D01*
Y888446D01*
G01X1006436Y928744D02*
Y922536D01*
G01X1022800Y885000D02*
X1021668Y886132D01*
G02X1021105Y887490I1358J1358D01*
G01Y888446D01*
G01X1035646Y913131D02*
X1026924D01*
X1026512Y912719D01*
X1024412D01*
G01X1062011Y956211D02*
X1062450Y956650D01*
G01X1062600D02*
X1063829D01*
G03X1064718Y957018I0J1258D01*
G01X1064832Y957132D01*
G02X1065721Y957500I890J-890D01*
G01X1069100D01*
G02X1069900Y956700I0J-800D01*
G01Y848457D01*
G02X1068728Y845628I-4000J0D01*
G01X1049900Y826800D01*
G01X1065533Y923300D02*
Y931467D01*
G01D02*
X1061500Y935500D01*
X1060800D01*
X1060561Y935739D01*
X1058342D01*
G01Y938888D02*
X1062212D01*
G01X1058342Y937313D02*
X1060817D01*
X1061342Y936788D01*
X1065788D01*
G01X1065900Y940988D02*
X1061342D01*
X1060817Y940463D01*
X1058342D01*
G01Y949912D02*
X1063353D01*
G02X1064438Y949462I0J-1534D01*
G01X1064551Y949349D01*
G03X1065636Y948900I1085J1085D01*
G01X1067100D01*
G01X1058342Y948337D02*
X1061090D01*
G02X1063775Y947225I0J-3797D01*
G01X1064314Y946686D01*
G03X1065970Y946000I1656J1656D01*
G01X1067100D01*
G01X1064437Y959100D02*
X1062787D01*
G01D02*
X1061895Y958208D01*
G02X1060876Y957786I-1018J1018D01*
G01X1058342D01*
G01Y951487D02*
X1064487D01*
X1065000Y952000D01*
X1067100D01*
G01X1063800Y964000D02*
Y962739D01*
G02X1063206Y961307I-2026J0D01*
G01X1062774Y960875D01*
G02X1062112Y960600I-663J663D01*
G01X1061952D01*
G03X1061289Y960325I0J-937D01*
G01X1060888Y959924D01*
G02X1059528Y959361I-1359J1359D01*
G01X1058342D01*
G01Y953061D02*
X1062241D01*
G03X1064324Y953924I0J2946D01*
G01X1064614Y954214D01*
G02X1066270Y954900I1656J-1656D01*
G01X1067400D01*
G01X1058342Y954636D02*
X1060104D01*
G03X1060670Y954870I0J800D01*
G01X1062011Y956211D01*
G01D02*
X1058342D01*
G54D18*
X902671Y921674D03*
Y978761D03*
G54D28*
G01X968800Y921975D02*
Y909822D01*
G02X968142Y909164I-658J0D01*
G01X968058D01*
G03Y907848I0J-658D01*
G01X968142D01*
G02Y906532I0J-658D01*
G01X968058D01*
G03Y905216I0J-658D01*
G01X968142D01*
G02Y903900I0J-658D01*
G01X968058D01*
G03Y902584I0J-658D01*
G01X968142D01*
G02X968800Y901926I0J-658D01*
G01Y886076D01*
G03X969702Y883898I3080J0D01*
G01X971898Y881702D01*
G02X972800Y879524I-2178J-2178D01*
G01Y872976D01*
G02X971898Y870798I-3080J0D01*
G01X969202Y868102D01*
G03X968300Y865924I2178J-2178D01*
G01Y855576D01*
G03X969202Y853398I3080J0D01*
G01X971898Y850702D01*
G02X972800Y848524I-2178J-2178D01*
G01Y843300D01*
G01X982800D02*
X980314Y845786D01*
G03X979224Y846238I-1090J-1090D01*
G01X979101D01*
G02X978011Y846689I0J1541D01*
G01X970973Y853727D01*
G02X970071Y855905I2178J2178D01*
G01Y865693D01*
G02X970973Y867871I3080J0D01*
G01X973314Y870211D01*
G03X974216Y872389I-2178J2178D01*
G01Y880111D01*
G03X973314Y882289I-3080J0D01*
G01X971118Y884484D01*
G02X970216Y886662I2178J2178D01*
G01Y914642D01*
G02X970964Y916449I2555J0D01*
G01X971051Y916536D01*
G03X971800Y918342I-1807J1807D01*
G01Y919600D01*
G01X973100Y903700D02*
Y886976D01*
G03X974002Y884798I3080J0D01*
G01X991898Y866902D01*
G02X992800Y864724I-2178J-2178D01*
G01Y843300D01*
G01X977200Y927866D02*
X975884D01*
G03X973847Y927022I0J-2880D01*
G01X968800Y921975D01*
G01X971800Y919600D02*
Y920344D01*
G02X972239Y921404I1499J0D01*
G01X974949Y924114D01*
G02X976605Y924800I1655J-1655D01*
G01X977944D01*
G03X980122Y925702I0J3080D01*
G01X982286Y927866D01*
X982400D01*
G01X978500Y971000D02*
Y970634D01*
X980500Y968634D01*
G01X1033500Y850800D02*
X1033100Y850400D01*
X1016376D01*
G02X1014198Y851302I0J3080D01*
G01X1003731Y861769D01*
G02X1002829Y863947I2178J2178D01*
G01Y875695D01*
G03X1001927Y877873I-3080J0D01*
G01X997494Y882306D01*
G02X996592Y884484I2178J2178D01*
G01Y893016D01*
G02X997494Y895194I3080J0D01*
G01X1017600Y915300D01*
G54D19*
X902710Y940415D03*
X910584D03*
G54D29*
G01X991500Y972700D02*
X991456D01*
X992540Y973784D01*
G02X993301Y974099I761J-761D01*
G01X996036D01*
G03X998234Y974476I833J1743D01*
G01X1000463Y976705D01*
G02X1001374I455J-455D01*
G02X1001374Y975794I-455J-456D01*
G01X999145Y973566D01*
G03X1002128Y970583I1491J-1491D01*
G01X1005206Y973662D01*
G02X1006117I455J-455D01*
G01X1006117Y973661D01*
G02Y972751I-455J-455D01*
G01X1002999Y969633D01*
G03Y966979I1327J-1327D01*
G01X1003164Y966815D01*
G03X1004889Y966100I1725J1725D01*
G01X1008123D01*
G02X1008938Y965762I0J-1152D01*
G01X1012630Y962070D01*
G02X1012968Y961255I-815J-815D01*
G01Y958232D01*
X1013925Y957275D01*
G02Y956082I-597J-597D01*
G01X1013168Y955325D01*
G03X1014362Y954132I597J-597D01*
G01X1015118Y954888D01*
G02X1016312Y953694I597J-597D01*
G01X1015556Y952938D01*
G03X1016749Y951744I597J-597D01*
G01X1017506Y952501D01*
G02X1018699Y951307I597J-597D01*
G01X1018273Y950881D01*
G03X1019467Y949688I597J-597D01*
G01X1019893Y950114D01*
G02X1021086I597J-597D01*
G01X1022142Y949058D01*
G03X1023676Y948423I1534J1534D01*
G01X1044244D01*
G02X1045058Y948085I0J-1152D01*
G01X1047670Y945474D01*
X1048887D01*
X1049174Y945187D01*
X1051058D01*
G01X991387Y976855D02*
X992156Y976087D01*
G03X993845Y975387I1689J1689D01*
G01X997324D01*
X999552Y977616D01*
G02X1002284I1366J-1366D01*
G02X1002284Y974883I-1366J-1366D01*
G01X1000056Y972655D01*
G03X1001217Y971494I580J-580D01*
G01X1004295Y974572D01*
G02X1007028I1366J-1366D01*
G02X1007028Y971840I-1366J-1366D01*
G01X1003910Y968722D01*
G03Y967890I416J-416D01*
G01X1004075Y967725D01*
G03X1004889Y967388I815J815D01*
G01X1008123D01*
G02X1009848Y966673I0J-2440D01*
G01X1010039Y966482D01*
G03X1011228I595J595D01*
G01X1011429Y966682D01*
G02X1012618I595J-595D01*
G01X1012622Y966678D01*
G02Y965489I-595J-595D01*
G01X1012422Y965289D01*
G03Y964100I595J-594D01*
G01X1013541Y962980D01*
G02X1014256Y961255I-1725J-1725D01*
G01Y958766D01*
X1023053Y949969D01*
G03X1023676Y949711I623J623D01*
G01X1025118D01*
G03X1025425Y950017I0J307D01*
G02X1025732Y950324I307J0D01*
G01X1026806D01*
G02X1027113Y950017I0J-307D01*
G03X1027420Y949711I307J0D01*
G01X1028494D01*
G03X1028801Y950017I0J307D01*
G02X1029108Y950324I307J0D01*
G01X1030183D01*
G02X1030489Y950017I0J-307D01*
G03X1030796Y949711I307J0D01*
G01X1031870D01*
G03X1032177Y950017I0J307D01*
G02X1032484Y950324I307J0D01*
G01X1033558D01*
G02X1033865Y950017I0J-307D01*
G03X1034172Y949711I307J0D01*
G01X1035246D01*
G03X1035553Y950017I0J307D01*
G02X1035860Y950324I307J0D01*
G01X1036934D01*
G02X1037241Y950017I0J-307D01*
G03X1037548Y949711I307J0D01*
G01X1038623D01*
G03X1038929Y950017I0J307D01*
G02X1039236Y950324I307J0D01*
G01X1040310D01*
G02X1040617Y950017I0J-307D01*
G03X1040924Y949711I307J0D01*
G01X1044244D01*
G02X1045969Y948996I0J-2440D01*
G01X1048203Y946762D01*
X1051058D01*
G01X1016500Y962498D02*
X1018520Y964518D01*
X1018640D01*
X1019984Y965863D01*
G02X1020799Y966200I815J-815D01*
G01X1023410D01*
G03X1025186Y967976I0J1776D01*
G01Y978365D01*
G02X1026474I644J0D01*
G01Y968132D01*
G03X1030738I2132J0D01*
G01Y975770D01*
G02X1032026I644J0D01*
G01Y967976D01*
G03X1033802Y966200I1776J0D01*
G01X1033978D01*
X1038744Y961434D01*
G02Y960744I-345J-345D01*
G01X1038723Y960722D01*
G03X1038200Y959461I1262J-1262D01*
G01Y958600D01*
X1039500Y957300D01*
X1040785D01*
X1042987Y959502D01*
G02X1043898I455J-455D01*
G01X1047100Y956300D01*
X1047200D01*
X1048600Y954900D01*
X1048967D01*
X1049231Y954636D01*
X1051058D01*
G01X1016500Y966722D02*
X1017206Y966016D01*
G03X1017712Y965806I506J506D01*
G01X1018106D01*
X1019073Y966773D01*
G02X1020799Y967488I1725J-1725D01*
G01X1023410D01*
G03X1023898Y967976I0J488D01*
G01Y978365D01*
G02X1027762I1932J0D01*
G01Y968132D01*
G03X1029450I844J0D01*
G01Y975770D01*
G02X1033314I1932J0D01*
G01Y967976D01*
G03X1033802Y967488I488J0D01*
G01X1034512D01*
X1039655Y962345D01*
G02Y959833I-1256J-1256D01*
G01X1039633Y959812D01*
G03X1039488Y959461I351J-351D01*
G01Y959134D01*
X1039834Y958788D01*
X1040451D01*
X1042076Y960413D01*
G02X1044808Y960413I1366J-1366D01*
G01X1047634Y957588D01*
X1047734D01*
X1049111Y956211D01*
X1051058D01*
G01Y934164D02*
X1050894Y934000D01*
X1050005D01*
G03X1049484Y933784I0J-736D01*
G01X1049200Y933500D01*
X1049100D01*
X1044189Y928589D01*
G02X1043746Y928405I-443J442D01*
G01X1042832D01*
G02X1042346Y928891I0J485D01*
G03X1041861Y929376I-485J0D01*
G01X1041544D01*
G03X1041058Y928891I0J-485D01*
G02X1040573Y928405I-485J0D01*
G01X1039585D01*
G03X1037321Y926141I0J-2264D01*
G01Y925864D01*
G02X1035369I-976J0D01*
G01Y926202D01*
G03X1033166Y928405I-2203J0D01*
G01X1033105D01*
G03X1030841Y926141I0J-2264D01*
G01Y925864D01*
G02X1028889I-976J0D01*
G01Y926647D01*
G03X1027130Y928405I-1759J0D01*
G01X1025470D01*
X1025376Y928500D01*
X1024979D01*
G02X1024468Y928712I0J722D01*
G01X1023268Y929912D01*
G01X1051058Y937313D02*
X1049231D01*
X1048945Y937027D01*
X1048901D01*
X1043699Y931825D01*
X1042457D01*
G02X1042042Y932241I0J415D01*
G03X1041627Y932656I-415J0D01*
G01X1040769D01*
G03X1040354Y932241I0J-415D01*
G02X1039939Y931825I-415J0D01*
G01X1039081D01*
G02X1038666Y932241I0J415D01*
G03X1038251Y932656I-415J0D01*
G01X1037393D01*
G03X1036978Y932241I0J-415D01*
G02X1036563Y931825I-415J0D01*
G01X1036228D01*
G02X1035113Y932287I0J1576D01*
G01X1034200Y933200D01*
G01X1051058Y932589D02*
X1050935Y932712D01*
X1050234D01*
X1049734Y932212D01*
X1049634D01*
X1045100Y927678D01*
G02X1043746Y927117I-1353J1353D01*
G01X1039585D01*
G03X1038609Y926141I0J-976D01*
G01Y925864D01*
G02X1034081I-2264J0D01*
G01Y926202D01*
G03X1033166Y927117I-915J0D01*
G01X1033105D01*
G03X1032129Y926141I0J-976D01*
G01Y925864D01*
G02X1027601I-2264J0D01*
G01Y926647D01*
G03X1027130Y927117I-471J0D01*
G01X1024911D01*
G03X1024283Y926858I0J-887D01*
G01X1023169Y925743D01*
G01X1051058Y935739D02*
X1049434D01*
X1044160Y930464D01*
X1035463D01*
X1034922Y929923D01*
G02X1033821I-551J551D01*
G01X1033283Y930462D01*
G03X1032707Y930700I-576J-576D01*
G01X1031100D01*
G01X1051058Y940463D02*
X1048863D01*
X1046408Y938008D01*
G02X1045398I-505J505D01*
G01X1044208Y939198D01*
G03X1043298Y938287I-455J-455D01*
G01X1044400Y937185D01*
G02Y936100I-543J-543D01*
G01X1043788Y935488D01*
X1042134D01*
X1041388Y936234D01*
Y936334D01*
X1039948Y937773D01*
G03X1037800Y938663I-2148J-2148D01*
G03X1035652Y937773I0J-3038D01*
G01X1035004Y937126D01*
G02X1034189Y936788I-815J814D01*
G01X1030762D01*
G02X1030111Y937058I0J920D01*
G01X1029691Y937478D01*
G03X1028129Y938125I-1562J-1562D01*
G01X1023700D01*
G01X1035200Y942600D02*
X1036139Y941661D01*
X1036266Y941788D01*
X1037683D01*
G03X1038327Y942432I0J644D01*
G01Y944500D01*
G02X1040767Y946940I2440J0D01*
G01X1043317D01*
G02X1045188Y945069I0J-1871D01*
G01Y943564D01*
G02X1044700Y943076I-488J0D01*
G01X1042835D01*
G03Y941788I0J-644D01*
G01X1046189D01*
G03X1047004Y942125I0J1152D01*
G01X1047490Y942611D01*
G02X1049215Y943326I1725J-1725D01*
G01X1050771D01*
X1051058Y943613D01*
G01Y938888D02*
X1050771Y939175D01*
X1049397D01*
X1047319Y937098D01*
G02X1046896Y936775I-1416J1416D01*
G01X1043922Y933800D01*
X1041400D01*
X1040100Y935100D01*
Y935800D01*
X1039038Y936862D01*
G03X1037800Y937375I-1237J-1237D01*
G03X1036562Y936862I0J-1750D01*
G01X1035915Y936215D01*
G02X1034189Y935500I-1725J1725D01*
G01X1030762D01*
G02X1029200Y936147I0J2208D01*
G01X1028780Y936567D01*
G03X1028129Y936837I-651J-651D01*
G01X1027311D01*
G03X1025585Y936122I0J-2440D01*
G01X1023700Y934237D01*
Y933901D01*
G01X1033300Y939100D02*
X1034459D01*
G03X1036066Y939766I0J2272D01*
G01X1036800Y940500D01*
X1037683D01*
G03X1039615Y942432I0J1932D01*
G01Y944500D01*
G02X1040767Y945652I1152J0D01*
G01X1043317D01*
G02X1043900Y945069I0J-583D01*
G01Y944820D01*
G02X1043444Y944364I-456J0D01*
G01X1042835D01*
G03Y940500I0J-1932D01*
G01X1046189D01*
G03X1047915Y941215I0J2440D01*
G01X1048401Y941701D01*
G02X1049215Y942038I815J-815D01*
G01X1051058D01*
G01X1021400Y955800D02*
Y954507D01*
G03X1021860Y953396I1571J0D01*
G01X1022389Y952867D01*
X1022412D01*
X1023182Y952096D01*
G03X1024834Y951412I1652J1652D01*
G01X1044789D01*
G02X1045604Y951075I0J-1152D01*
G01X1047366Y949312D01*
X1047466D01*
X1048155Y948624D01*
X1048887D01*
X1049174Y948337D01*
X1051058D01*
G01X1025300Y955200D02*
X1023700Y953600D01*
Y953400D01*
X1024093Y953007D01*
G03X1024834Y952700I741J741D01*
G01X1044789D01*
G02X1046515Y951985I0J-2440D01*
G01X1047900Y950600D01*
X1048000D01*
X1048688Y949912D01*
X1051058D01*
G01Y951487D02*
X1050772Y951773D01*
X1049365D01*
G02X1047639Y952488I0J2440D01*
G01X1047203Y952924D01*
X1047202Y952924D01*
X1046575Y953552D01*
X1046251Y953876D01*
X1040235D01*
G02X1038509Y954591I0J2440D01*
G01X1037000Y956099D01*
G03X1036517Y956300I-484J-484D01*
G01X1035639D01*
G03X1034995Y955656I0J-644D01*
G01Y954925D01*
G02X1033707I-644J0D01*
G01Y955459D01*
G03X1032865Y956300I-841J0D01*
G01X1032768D01*
G02X1031332Y956895I0J2031D01*
G01X1029026Y959201D01*
G03X1028062Y959600I-963J-963D01*
G01X1027400D01*
G01X1051058Y953061D02*
X1049365D01*
G02X1048550Y953398I0J1152D01*
G01X1046784Y955164D01*
X1040235D01*
G02X1039420Y955501I0J1152D01*
G01X1037911Y957010D01*
G03X1036517Y957588I-1395J-1395D01*
G01X1034676D01*
G02X1033201Y958199I0J2087D01*
G01X1031600Y959800D01*
G01X1037000Y974268D02*
X1038212Y973056D01*
G03X1038829Y972800I617J617D01*
G01X1038878D01*
G02X1040281Y972219I0J-1984D01*
G01X1042363Y970137D01*
G03X1043274I455J455D01*
G01X1043963Y970826D01*
G02X1044874Y969915I455J-455D01*
G01X1044185Y969226D01*
G03X1045096Y968315I455J-455D01*
G01X1045556Y968776D01*
G02X1046467Y967865I455J-455D01*
G01X1046141Y967539D01*
G03Y966359I590J-590D01*
G01X1046613Y965887D01*
G03X1047064Y965700I451J450D01*
G01X1054366D01*
G02X1056142Y963924I0J-1776D01*
G01Y959172D01*
X1054900Y957929D01*
X1053372D01*
X1053229Y957786D01*
X1051058D01*
G01X1037000Y970044D02*
X1038256Y971300D01*
G02X1038768Y971512I513J-513D01*
G01X1038878D01*
G02X1039370Y971308I0J-696D01*
G01X1042114Y968564D01*
G02Y967725I-420J-420D01*
G03Y966886I420J-420D01*
G01X1042469Y966531D01*
G03X1043308I420J420D01*
G02X1044147I420J-420D01*
G01X1045702Y964976D01*
G03X1047064Y964412I1361J1361D01*
G01X1054366D01*
G02X1054854Y963924I0J-488D01*
G01Y959705D01*
X1054366Y959217D01*
X1053372D01*
X1053229Y959361D01*
X1051058D01*
G01Y931014D02*
X1051345Y930727D01*
X1053010D01*
G03X1054063Y931163I0J1489D01*
G01X1054568Y931668D01*
X1054800D01*
G01X1051058Y929439D02*
X1053761D01*
G02X1054800Y928400I0J-1039D01*
G01Y927444D01*
M02*
