G04 ================== begin FILE IDENTIFICATION RECORD ==================*
G04 Layout Name:  F:/Projects/PCB/GitHub/Public/TC358870_Demo/allegro/tc358870_demo.brd*
G04 Film Name:    PASTEMASK_BOTTOM*
G04 File Format:  Gerber RS274X*
G04 File Origin:  Cadence Allegro 17.4-S039*
G04 Origin Date:  Sun Apr 12 21:18:19 2026*
G04 *
G04 Layer:  PIN/PASTEMASK_BOTTOM*
G04 Layer:  PACKAGE GEOMETRY/PASTEMASK_BOTTOM*
G04 Layer:  BOARD GEOMETRY/DESIGN_OUTLINE*
G04 *
G04 Offset:    (0.000 0.000)*
G04 Mirror:    No*
G04 Mode:      Positive*
G04 Rotation:  0*
G04 FullContactRelief:  No*
G04 UndefLineWidth:     10.000*
G04 ================== end FILE IDENTIFICATION RECORD ====================*
%FSLAX55Y55*MOIN*%
%IR0*IPPOS*OFA0.00000B0.00000*MIA0B0*SFA1.00000B1.00000*%
%ADD12R,.02165X.00787*%
%ADD11R,.039429X.0355*%
%ADD10R,.0355X.039429*%
%ADD13C,.01*%
G75*
%LPD*%
G75*
G36*
G01X897140Y860421D02*
Y857271D01*
X897337Y857074D01*
X900487D01*
X900684Y857271D01*
Y858224D01*
X899227D01*
Y859523D01*
X900684D01*
Y860421D01*
X900487Y860618D01*
X897337D01*
X897140Y860421D01*
G37*
G36*
G01X897146Y854621D02*
Y851471D01*
X897343Y851274D01*
X900493D01*
X900690Y851471D01*
Y852424D01*
X899233D01*
Y853723D01*
X900690D01*
Y854621D01*
X900493Y854818D01*
X897343D01*
X897146Y854621D01*
G37*
G36*
G01X895002Y862892D02*
X894805Y863089D01*
X889765D01*
X889568Y862892D01*
Y858365D01*
X889765Y858168D01*
X891380Y858148D01*
Y859920D01*
X893151D01*
Y858188D01*
X894805Y858168D01*
X895002Y858365D01*
Y862892D01*
G37*
G36*
G01X889568Y849861D02*
X889765Y849664D01*
X894805D01*
X895002Y849861D01*
Y854389D01*
X894805Y854586D01*
X893190Y854605D01*
Y852834D01*
X891419D01*
Y854566D01*
X889765Y854586D01*
X889568Y854389D01*
Y849861D01*
G37*
G36*
G01X898429Y865891D02*
X898626Y866088D01*
Y867741D01*
X896874D01*
Y869513D01*
X898607D01*
X898626Y871127D01*
X898429Y871324D01*
X893902D01*
X893705Y871127D01*
Y866088D01*
X893902Y865891D01*
X898429D01*
G37*
G36*
G01X906944Y857271D02*
Y860421D01*
X906747Y860618D01*
X903597D01*
X903400Y860421D01*
Y859468D01*
X904857D01*
Y858169D01*
X903400D01*
Y857271D01*
X903597Y857075D01*
X906747D01*
X906944Y857271D01*
G37*
G36*
G01X906950Y851471D02*
Y854621D01*
X906753Y854818D01*
X903603D01*
X903406Y854621D01*
Y853668D01*
X904863D01*
Y852369D01*
X903406D01*
Y851471D01*
X903603Y851275D01*
X906753D01*
X906950Y851471D01*
G37*
G36*
G01X906894Y865891D02*
X907091Y866088D01*
Y871127D01*
X906894Y871324D01*
X902366D01*
X902170Y871127D01*
X902150Y869513D01*
X903922D01*
Y867741D01*
X902189D01*
X902170Y866088D01*
X902366Y865891D01*
X906894D01*
G37*
G36*
G01X913030Y929991D02*
X913227Y930188D01*
Y935227D01*
X913030Y935424D01*
X908502D01*
X908306Y935227D01*
X908286Y933613D01*
X910058D01*
Y931841D01*
X908325D01*
X908306Y930188D01*
X908502Y929991D01*
X913030D01*
G37*
G36*
G01X904565D02*
X904762Y930188D01*
Y931841D01*
X903010D01*
Y933613D01*
X904743D01*
X904762Y935227D01*
X904565Y935424D01*
X900038D01*
X899841Y935227D01*
Y930188D01*
X900038Y929991D01*
X904565D01*
G37*
G36*
G01X913162Y937698D02*
X913359Y937895D01*
Y942935D01*
X913162Y943132D01*
X908635D01*
X908438Y942935D01*
X908418Y941320D01*
X910190D01*
Y939549D01*
X908458D01*
X908438Y937895D01*
X908635Y937698D01*
X913162D01*
G37*
G36*
G01X900131Y943132D02*
X899934Y942935D01*
Y937895D01*
X900131Y937698D01*
X904659D01*
X904856Y937895D01*
X904875Y939510D01*
X903104D01*
Y941281D01*
X904836D01*
X904856Y942935D01*
X904659Y943132D01*
X900131D01*
G37*
G36*
G01X949877Y862821D02*
Y859671D01*
X950074Y859474D01*
X953224D01*
X953421Y859671D01*
Y860624D01*
X951964D01*
Y861923D01*
X953421D01*
Y862821D01*
X953224Y863018D01*
X950074D01*
X949877Y862821D01*
G37*
G36*
G01X954821Y845423D02*
X951671D01*
X951474Y845226D01*
Y842076D01*
X951671Y841879D01*
X952624D01*
Y843336D01*
X953923D01*
Y841879D01*
X954821D01*
X955018Y842076D01*
Y845226D01*
X954821Y845423D01*
G37*
G36*
G01X951671Y835619D02*
X954821D01*
X955018Y835816D01*
Y838966D01*
X954821Y839163D01*
X953868D01*
Y837706D01*
X952569D01*
Y839163D01*
X951671D01*
X951475Y838966D01*
Y835816D01*
X951671Y835619D01*
G37*
G36*
G01X959681Y859671D02*
Y862821D01*
X959484Y863018D01*
X956334D01*
X956137Y862821D01*
Y861868D01*
X957594D01*
Y860569D01*
X956137D01*
Y859671D01*
X956334Y859475D01*
X959484D01*
X959681Y859671D01*
G37*
G36*
G01X983975Y929802D02*
X980825D01*
X980628Y929605D01*
Y926455D01*
X980825Y926258D01*
X981778D01*
Y927715D01*
X983077D01*
Y926258D01*
X983975D01*
X984172Y926455D01*
Y929605D01*
X983975Y929802D01*
G37*
G36*
G01X980825Y919998D02*
X983975D01*
X984172Y920195D01*
Y923345D01*
X983975Y923542D01*
X983022D01*
Y922085D01*
X981723D01*
Y923542D01*
X980825D01*
X980629Y923345D01*
Y920195D01*
X980825Y919998D01*
G37*
G36*
G01X978775Y929802D02*
X975625D01*
X975428Y929605D01*
Y926455D01*
X975625Y926258D01*
X976578D01*
Y927715D01*
X977877D01*
Y926258D01*
X978775D01*
X978972Y926455D01*
Y929605D01*
X978775Y929802D01*
G37*
G36*
G01X975625Y919998D02*
X978775D01*
X978972Y920195D01*
Y923345D01*
X978775Y923542D01*
X977822D01*
Y922085D01*
X976523D01*
Y923542D01*
X975625D01*
X975429Y923345D01*
Y920195D01*
X975625Y919998D01*
G37*
G36*
G01X978925Y966698D02*
X982075D01*
X982272Y966895D01*
Y970045D01*
X982075Y970242D01*
X981122D01*
Y968785D01*
X979823D01*
Y970242D01*
X978925D01*
X978729Y970045D01*
Y966895D01*
X978925Y966698D01*
G37*
G36*
G01X973225D02*
X976375D01*
X976572Y966895D01*
Y970045D01*
X976375Y970242D01*
X975422D01*
Y968785D01*
X974123D01*
Y970242D01*
X973225D01*
X973029Y970045D01*
Y966895D01*
X973225Y966698D01*
G37*
G36*
G01X968025D02*
X971175D01*
X971372Y966895D01*
Y970045D01*
X971175Y970242D01*
X970222D01*
Y968785D01*
X968923D01*
Y970242D01*
X968025D01*
X967829Y970045D01*
Y966895D01*
X968025Y966698D01*
G37*
G36*
G01X972798Y981175D02*
Y978025D01*
X972995Y977828D01*
X976145D01*
X976342Y978025D01*
Y978978D01*
X974885D01*
Y980277D01*
X976342D01*
Y981175D01*
X976145Y981372D01*
X972995D01*
X972798Y981175D01*
G37*
G36*
G01X982602Y978025D02*
Y981175D01*
X982405Y981372D01*
X979255D01*
X979058Y981175D01*
Y980222D01*
X980515D01*
Y978923D01*
X979058D01*
Y978025D01*
X979255Y977829D01*
X982405D01*
X982602Y978025D01*
G37*
G36*
G01X982075Y976502D02*
X978925D01*
X978728Y976305D01*
Y973155D01*
X978925Y972958D01*
X979878D01*
Y974415D01*
X981177D01*
Y972958D01*
X982075D01*
X982272Y973155D01*
Y976305D01*
X982075Y976502D01*
G37*
G36*
G01X976375D02*
X973225D01*
X973028Y976305D01*
Y973155D01*
X973225Y972958D01*
X974178D01*
Y974415D01*
X975477D01*
Y972958D01*
X976375D01*
X976572Y973155D01*
Y976305D01*
X976375Y976502D01*
G37*
G36*
G01X971175D02*
X968025D01*
X967828Y976305D01*
Y973155D01*
X968025Y972958D01*
X968978D01*
Y974415D01*
X970277D01*
Y972958D01*
X971175D01*
X971372Y973155D01*
Y976305D01*
X971175Y976502D01*
G37*
G36*
G01X1013237Y890021D02*
Y886871D01*
X1013434Y886674D01*
X1016584D01*
X1016781Y886871D01*
Y887824D01*
X1015324D01*
Y889123D01*
X1016781D01*
Y890021D01*
X1016584Y890218D01*
X1013434D01*
X1013237Y890021D01*
G37*
G36*
G01X1023041Y886871D02*
Y890021D01*
X1022844Y890218D01*
X1019694D01*
X1019497Y890021D01*
Y889068D01*
X1020954D01*
Y887769D01*
X1019497D01*
Y886871D01*
X1019694Y886675D01*
X1022844D01*
X1023041Y886871D01*
G37*
G36*
G01X1034071Y911195D02*
X1037221D01*
X1037418Y911392D01*
Y914542D01*
X1037221Y914739D01*
X1036268D01*
Y913282D01*
X1034969D01*
Y914739D01*
X1034071D01*
X1033875Y914542D01*
Y911392D01*
X1034071Y911195D01*
G37*
G36*
G01X1037221Y920999D02*
X1034071D01*
X1033874Y920802D01*
Y917652D01*
X1034071Y917455D01*
X1035024D01*
Y918912D01*
X1036323D01*
Y917455D01*
X1037221D01*
X1037418Y917652D01*
Y920802D01*
X1037221Y920999D01*
G37*
G54D10*
X891381Y899548D03*
X885869D03*
X906809Y897466D03*
X912321D03*
X906829Y891896D03*
X912341D03*
X906854Y903066D03*
X912366D03*
X903834Y946976D03*
X909346D03*
X924281Y899648D03*
X918769D03*
X950556Y831024D03*
X945044D03*
X939709Y897566D03*
X945221D03*
X939729Y891996D03*
X945241D03*
X939754Y903166D03*
X945266D03*
X955989Y831021D03*
X961501D03*
X953224Y850666D03*
X958736D03*
X953244Y871900D03*
X958756D03*
X966889Y933228D03*
X966879Y938779D03*
X978754Y933121D03*
X984266D03*
X972401Y933228D03*
X972391Y938779D03*
X969644Y951600D03*
X975156D03*
X978744Y938711D03*
X984256D03*
X969644Y946000D03*
X975156D03*
X1003319Y888521D03*
X1000869Y934334D03*
X1000924Y928744D03*
X1000909Y949279D03*
X1000864Y943689D03*
X1000924Y960434D03*
X1004144Y955001D03*
X1008831Y888521D03*
X1006381Y934334D03*
X1006436Y928744D03*
X1006421Y949279D03*
X1006376Y943689D03*
X1006436Y960434D03*
X1009656Y955001D03*
G54D11*
X917779Y960424D03*
Y965936D03*
X942666Y842076D03*
Y836564D03*
X964000Y842056D03*
Y836544D03*
X964276Y858556D03*
Y853044D03*
X964279Y863989D03*
Y869501D03*
X964600Y962656D03*
Y957144D03*
X975721Y962566D03*
Y957054D03*
X981311Y962521D03*
Y957009D03*
X970200Y962656D03*
Y957144D03*
X995379Y924944D03*
Y930456D03*
X989789Y924934D03*
Y930446D03*
X989800Y945556D03*
Y940044D03*
X995400Y945556D03*
Y940044D03*
G54D12*
X1051058Y927865D03*
Y932589D03*
Y931014D03*
Y929439D03*
Y942038D03*
Y940463D03*
Y938888D03*
Y937313D03*
Y935739D03*
Y934164D03*
Y949912D03*
Y948337D03*
Y946762D03*
Y945187D03*
Y943613D03*
Y960935D03*
Y959361D03*
Y957786D03*
Y956211D03*
Y954636D03*
Y953061D03*
Y951487D03*
X1058342Y927865D03*
Y929439D03*
Y931014D03*
Y932589D03*
Y934164D03*
Y935739D03*
Y937313D03*
Y938888D03*
Y940463D03*
Y942038D03*
Y943613D03*
Y945187D03*
Y946762D03*
Y948337D03*
Y949912D03*
Y960935D03*
Y951487D03*
Y953061D03*
Y954636D03*
Y956211D03*
Y957786D03*
Y959361D03*
G54D13*
G01X902385Y1005500D02*
X1059615D01*
G02X1079300Y985815I0J-19685D01*
G01Y834785D01*
G02X1059615Y815100I-19685J0D01*
G01X902385D01*
G02X882700Y834785I0J19685D01*
G01Y985815D01*
G02X902385Y1005500I19685J0D01*
M02*
