G04 ================== begin FILE IDENTIFICATION RECORD ==================*
G04 Layout Name:  F:/Projects/PCB/GitHub/Public/TC358870_Demo/allegro/tc358870_demo.brd*
G04 Film Name:    PASTEMASK_TOP*
G04 File Format:  Gerber RS274X*
G04 File Origin:  Cadence Allegro 17.4-S039*
G04 Origin Date:  Sun Apr 12 21:18:19 2026*
G04 *
G04 Layer:  PIN/PASTEMASK_TOP*
G04 Layer:  PACKAGE GEOMETRY/PASTEMASK_TOP*
G04 Layer:  BOARD GEOMETRY/DESIGN_OUTLINE*
G04 *
G04 Offset:    (0.000 0.000)*
G04 Mirror:    No*
G04 Mode:      Positive*
G04 Rotation:  0*
G04 FullContactRelief:  No*
G04 UndefLineWidth:     10.000*
G04 ================== end FILE IDENTIFICATION RECORD ====================*
%FSLAX55Y55*MOIN*%
%IR0*IPPOS*OFA0.00000B0.00000*MIA0B0*SFA1.00000B1.00000*%
%ADD17R,.097539X.078799*%
%ADD22C,.009449*%
%ADD26R,.134709X.063059*%
%ADD11R,.063059X.134709*%
%ADD23R,.0355X.04337*%
%ADD16R,.05085X.072031*%
%ADD27R,.043311X.023618*%
%ADD28R,.04337X.09061*%
%ADD12R,.0355X.0355*%
%ADD21R,.059118X.05124*%
%ADD18R,.027618X.047311*%
%ADD13R,.039429X.0355*%
%ADD25R,.052421X.077228*%
%ADD14R,.0355X.039429*%
%ADD10R,.047311X.027618*%
%ADD15R,.021909X.037272*%
%ADD19R,.030772X.013839*%
%ADD24R,.07487X.08274*%
%ADD20R,.08274X.07487*%
%ADD29C,.01*%
G75*
%LPD*%
G75*
G36*
G01X889712Y838990D02*
G02Y843320I0J2165D01*
G01X892468D01*
G02Y838990I-1J-2165D01*
G01X889712D01*
G37*
G36*
G01X886275Y879767D02*
Y882917D01*
X886472Y883114D01*
X889622D01*
X889819Y882917D01*
Y881964D01*
X888362D01*
Y880665D01*
X889819D01*
Y879767D01*
X889622Y879570D01*
X886472D01*
X886275Y879767D01*
G37*
G36*
G01X896079Y882917D02*
Y879767D01*
X895882Y879570D01*
X892732D01*
X892535Y879767D01*
Y880720D01*
X893992D01*
Y882019D01*
X892535D01*
Y882917D01*
X892732Y883113D01*
X895882D01*
X896079Y882917D01*
G37*
G36*
G01X889712Y873006D02*
G02Y877336I0J2165D01*
G01X892468D01*
G02Y873006I-1J-2165D01*
G01X889712D01*
G37*
G36*
G01X886281Y884979D02*
Y888129D01*
X886478Y888326D01*
X889628D01*
X889825Y888129D01*
Y887176D01*
X888368D01*
Y885877D01*
X889825D01*
Y884979D01*
X889628Y884782D01*
X886478D01*
X886281Y884979D01*
G37*
G36*
G01X896085Y888129D02*
Y884979D01*
X895888Y884782D01*
X892738D01*
X892541Y884979D01*
Y885932D01*
X893998D01*
Y887231D01*
X892541D01*
Y888129D01*
X892738Y888325D01*
X895888D01*
X896085Y888129D01*
G37*
G36*
G01X915174Y843090D02*
X914977Y843287D01*
Y848327D01*
X915174Y848524D01*
X919702D01*
X919899Y848327D01*
X919918Y846712D01*
X918147D01*
Y844941D01*
X919879D01*
X919899Y843287D01*
X919702Y843090D01*
X915174D01*
G37*
G36*
G01X905578Y838990D02*
G02Y843320I0J2165D01*
G01X909515D01*
G02Y838990I0J-2165D01*
G01X905578D01*
G37*
G36*
G01Y873006D02*
G02Y877336I0J2165D01*
G01X909515D01*
G02Y873006I0J-2165D01*
G01X905578D01*
G37*
G36*
G01X904532Y885179D02*
Y888329D01*
X904729Y888526D01*
X907879D01*
X908076Y888329D01*
Y887376D01*
X906619D01*
Y886077D01*
X908076D01*
Y885179D01*
X907879Y884982D01*
X904729D01*
X904532Y885179D01*
G37*
G36*
G01X914336Y888329D02*
Y885179D01*
X914139Y884982D01*
X910989D01*
X910792Y885179D01*
Y886132D01*
X912249D01*
Y887431D01*
X910792D01*
Y888329D01*
X910989Y888525D01*
X914139D01*
X914336Y888329D01*
G37*
G36*
G01X908329Y914226D02*
X907172Y913147D01*
X906083D01*
X904927Y914226D01*
Y916208D01*
X905179Y916460D01*
X908077D01*
X908329Y916208D01*
Y914226D01*
G37*
G36*
G01X908373Y910037D02*
Y908056D01*
X908121Y907804D01*
X905223D01*
X904971Y908056D01*
Y910037D01*
X906128Y911117D01*
X907216D01*
X908373Y910037D01*
G37*
G36*
G01X901096Y918720D02*
G02X898161Y921673I18J2953D01*
G02X901096Y924626I2953J0D01*
G01X904247D01*
G02X907182Y921673I-18J-2953D01*
G02X904247Y918720I-2953J0D01*
G01X901096D01*
G37*
G36*
G01Y975807D02*
G02Y981713I0J2953D01*
G01X904247D01*
G02Y975807I0J-2953D01*
G01X901096D01*
G37*
G36*
G01X936365Y847148D02*
Y844441D01*
X935971Y844047D01*
X931338D01*
X930944Y844441D01*
Y847148D01*
X932787Y848664D01*
X934522D01*
X936365Y847148D01*
G37*
G36*
G01X928205Y848524D02*
X928402Y848327D01*
Y843287D01*
X928205Y843090D01*
X923678D01*
X923481Y843287D01*
X923461Y844902D01*
X925233D01*
Y846673D01*
X923501D01*
X923481Y848327D01*
X923678Y848524D01*
X928205D01*
G37*
G36*
G01X936365Y853014D02*
X934522Y851498D01*
X932787D01*
X930944Y853014D01*
Y855721D01*
X931338Y856115D01*
X935971D01*
X936365Y855721D01*
Y853014D01*
G37*
G36*
G01X936451Y858395D02*
X936254Y858198D01*
X931214D01*
X931017Y858395D01*
Y862922D01*
X931214Y863119D01*
X932829Y863139D01*
Y861367D01*
X934600D01*
Y863099D01*
X936254Y863119D01*
X936451Y862922D01*
Y858395D01*
G37*
G36*
G01X919175Y879867D02*
Y883017D01*
X919372Y883214D01*
X922522D01*
X922719Y883017D01*
Y882064D01*
X921262D01*
Y880765D01*
X922719D01*
Y879867D01*
X922522Y879670D01*
X919372D01*
X919175Y879867D01*
G37*
G36*
G01X928979Y883017D02*
Y879867D01*
X928782Y879670D01*
X925632D01*
X925435Y879867D01*
Y880820D01*
X926892D01*
Y882119D01*
X925435D01*
Y883017D01*
X925632Y883213D01*
X928782D01*
X928979Y883017D01*
G37*
G36*
G01X931017Y871426D02*
X931214Y871623D01*
X936254D01*
X936451Y871426D01*
Y866898D01*
X936254Y866701D01*
X934639Y866682D01*
Y868453D01*
X932868D01*
Y866721D01*
X931214Y866701D01*
X931017Y866898D01*
Y871426D01*
G37*
G36*
G01X919181Y885079D02*
Y888229D01*
X919378Y888426D01*
X922528D01*
X922725Y888229D01*
Y887276D01*
X921268D01*
Y885977D01*
X922725D01*
Y885079D01*
X922528Y884882D01*
X919378D01*
X919181Y885079D01*
G37*
G36*
G01X928985Y888229D02*
Y885079D01*
X928788Y884882D01*
X925638D01*
X925441Y885079D01*
Y886032D01*
X926898D01*
Y887331D01*
X925441D01*
Y888229D01*
X925638Y888425D01*
X928788D01*
X928985Y888229D01*
G37*
G36*
G01X922593Y918720D02*
G02X919657Y921673I17J2953D01*
G02X922593Y924626I2953J0D01*
G01X929679D01*
G02X932615Y921673I-17J-2953D01*
G02X929679Y918720I-2953J0D01*
G01X922593D01*
G37*
G36*
G01Y975807D02*
G02Y981713I0J2953D01*
G01X929679D01*
G02Y975807I0J-2953D01*
G01X922593D01*
G37*
G36*
G01X949471Y881560D02*
X950628Y882639D01*
X951717D01*
X952873Y881560D01*
Y879578D01*
X952621Y879326D01*
X949723D01*
X949471Y879578D01*
Y881560D01*
G37*
G36*
G01X949427Y885749D02*
Y887730D01*
X949679Y887982D01*
X952577D01*
X952829Y887730D01*
Y885749D01*
X951672Y884669D01*
X950584D01*
X949427Y885749D01*
G37*
G36*
G01X937432Y885279D02*
Y888429D01*
X937629Y888626D01*
X940779D01*
X940976Y888429D01*
Y887476D01*
X939519D01*
Y886177D01*
X940976D01*
Y885279D01*
X940779Y885082D01*
X937629D01*
X937432Y885279D01*
G37*
G36*
G01X947236Y888429D02*
Y885279D01*
X947039Y885082D01*
X943889D01*
X943692Y885279D01*
Y886232D01*
X945149D01*
Y887531D01*
X943692D01*
Y888429D01*
X943889Y888625D01*
X947039D01*
X947236Y888429D01*
G37*
G36*
G01X941229Y914326D02*
X940072Y913247D01*
X938983D01*
X937827Y914326D01*
Y916308D01*
X938079Y916560D01*
X940977D01*
X941229Y916308D01*
Y914326D01*
G37*
G36*
G01X941273Y910137D02*
Y908156D01*
X941021Y907904D01*
X938123D01*
X937871Y908156D01*
Y910137D01*
X939028Y911217D01*
X940116D01*
X941273Y910137D01*
G37*
G36*
G01X966605Y969521D02*
Y966371D01*
X966408Y966174D01*
X963258D01*
X963061Y966371D01*
Y967324D01*
X964518D01*
Y968623D01*
X963061D01*
Y969521D01*
X963258Y969718D01*
X966408D01*
X966605Y969521D01*
G37*
G36*
G01X956801Y966371D02*
Y969521D01*
X956998Y969718D01*
X960148D01*
X960345Y969521D01*
Y968568D01*
X958888D01*
Y967269D01*
X960345D01*
Y966371D01*
X960148Y966175D01*
X956998D01*
X956801Y966371D01*
G37*
G36*
G01X966611Y964321D02*
Y961171D01*
X966414Y960974D01*
X963264D01*
X963067Y961171D01*
Y962124D01*
X964524D01*
Y963423D01*
X963067D01*
Y964321D01*
X963264Y964518D01*
X966414D01*
X966611Y964321D01*
G37*
G36*
G01X956807Y961171D02*
Y964321D01*
X957004Y964518D01*
X960154D01*
X960351Y964321D01*
Y963368D01*
X958894D01*
Y962069D01*
X960351D01*
Y961171D01*
X960154Y960975D01*
X957004D01*
X956807Y961171D01*
G37*
G36*
G01X966998Y972925D02*
Y976075D01*
X967195Y976272D01*
X970345D01*
X970542Y976075D01*
Y975122D01*
X969085D01*
Y973823D01*
X970542D01*
Y972925D01*
X970345Y972728D01*
X967195D01*
X966998Y972925D01*
G37*
G36*
G01X976678Y879151D02*
X973528D01*
X973331Y879348D01*
Y882498D01*
X973528Y882695D01*
X974481D01*
Y881238D01*
X975780D01*
Y882695D01*
X976678D01*
X976874Y882498D01*
Y879348D01*
X976678Y879151D01*
G37*
G36*
G01X978239Y879628D02*
Y882778D01*
X978436Y882975D01*
X981586D01*
X981783Y882778D01*
Y881825D01*
X980326D01*
Y880526D01*
X981783D01*
Y879628D01*
X981586Y879431D01*
X978436D01*
X978239Y879628D01*
G37*
G36*
G01X988043Y882778D02*
Y879628D01*
X987846Y879431D01*
X984696D01*
X984499Y879628D01*
Y880581D01*
X985956D01*
Y881880D01*
X984499D01*
Y882778D01*
X984696Y882974D01*
X987846D01*
X988043Y882778D01*
G37*
G36*
G01X973528Y888955D02*
X976678D01*
X976875Y888758D01*
Y885608D01*
X976678Y885411D01*
X975725D01*
Y886868D01*
X974426D01*
Y885411D01*
X973528D01*
X973331Y885608D01*
Y888758D01*
X973528Y888955D01*
G37*
G36*
G01X978233Y884828D02*
Y887978D01*
X978430Y888175D01*
X981580D01*
X981777Y887978D01*
Y887025D01*
X980320D01*
Y885726D01*
X981777D01*
Y884828D01*
X981580Y884631D01*
X978430D01*
X978233Y884828D01*
G37*
G36*
G01X988037Y887978D02*
Y884828D01*
X987840Y884631D01*
X984690D01*
X984493Y884828D01*
Y885781D01*
X985950D01*
Y887080D01*
X984493D01*
Y887978D01*
X984690Y888174D01*
X987840D01*
X988037Y887978D01*
G37*
G36*
G01X976802Y976075D02*
Y972925D01*
X976605Y972728D01*
X973455D01*
X973258Y972925D01*
Y973878D01*
X974715D01*
Y975177D01*
X973258D01*
Y976075D01*
X973455Y976271D01*
X976605D01*
X976802Y976075D01*
G37*
G36*
G01X1004272Y899627D02*
X1001122D01*
X1000925Y899824D01*
Y902974D01*
X1001122Y903171D01*
X1002075D01*
Y901714D01*
X1003374D01*
Y903171D01*
X1004272D01*
X1004469Y902974D01*
Y899824D01*
X1004272Y899627D01*
G37*
G36*
G01X1001122Y909431D02*
X1004272D01*
X1004469Y909234D01*
Y906084D01*
X1004272Y905887D01*
X1003319D01*
Y907344D01*
X1002020D01*
Y905887D01*
X1001122D01*
X1000926Y906084D01*
Y909234D01*
X1001122Y909431D01*
G37*
G36*
G01X1003665Y872279D02*
Y875429D01*
X1003862Y875626D01*
X1007012D01*
X1007209Y875429D01*
Y874476D01*
X1005752D01*
Y873177D01*
X1007209D01*
Y872279D01*
X1007012Y872082D01*
X1003862D01*
X1003665Y872279D01*
G37*
G36*
G01X1013469Y875429D02*
Y872279D01*
X1013272Y872082D01*
X1010122D01*
X1009925Y872279D01*
Y873232D01*
X1011382D01*
Y874531D01*
X1009925D01*
Y875429D01*
X1010122Y875625D01*
X1013272D01*
X1013469Y875429D01*
G37*
G36*
G01X1009472Y899621D02*
X1006322D01*
X1006125Y899818D01*
Y902968D01*
X1006322Y903165D01*
X1007275D01*
Y901708D01*
X1008574D01*
Y903165D01*
X1009472D01*
X1009669Y902968D01*
Y899818D01*
X1009472Y899621D01*
G37*
G36*
G01X1006322Y909425D02*
X1009472D01*
X1009669Y909228D01*
Y906078D01*
X1009472Y905881D01*
X1008519D01*
Y907338D01*
X1007220D01*
Y905881D01*
X1006322D01*
X1006126Y906078D01*
Y909228D01*
X1006322Y909425D01*
G37*
G36*
G01X1030471Y923379D02*
Y926529D01*
X1030668Y926726D01*
X1033818D01*
X1034015Y926529D01*
Y925576D01*
X1032558D01*
Y924277D01*
X1034015D01*
Y923379D01*
X1033818Y923182D01*
X1030668D01*
X1030471Y923379D01*
G37*
G36*
G01X1040275Y926529D02*
Y923379D01*
X1040078Y923182D01*
X1036928D01*
X1036731Y923379D01*
Y924332D01*
X1038188D01*
Y925631D01*
X1036731D01*
Y926529D01*
X1036928Y926725D01*
X1040078D01*
X1040275Y926529D01*
G37*
G36*
G01X1043698Y831425D02*
Y834575D01*
X1043895Y834772D01*
X1047045D01*
X1047242Y834575D01*
Y833622D01*
X1045785D01*
Y832323D01*
X1047242D01*
Y831425D01*
X1047045Y831228D01*
X1043895D01*
X1043698Y831425D01*
G37*
G36*
G01X1053502Y834575D02*
Y831425D01*
X1053305Y831228D01*
X1050155D01*
X1049958Y831425D01*
Y832378D01*
X1051415D01*
Y833677D01*
X1049958D01*
Y834575D01*
X1050155Y834771D01*
X1053305D01*
X1053502Y834575D01*
G37*
G36*
G01X907863Y846549D02*
X912351D01*
Y844186D01*
X907863D01*
Y846549D01*
G37*
G36*
G01Y861707D02*
X912351D01*
Y860525D01*
X907863D01*
Y861707D01*
G37*
G36*
G01Y859738D02*
X912351D01*
Y858556D01*
X907863D01*
Y859738D01*
G37*
G36*
G01Y857769D02*
X912351D01*
Y856588D01*
X907863D01*
Y857769D01*
G37*
G36*
G01Y855801D02*
X912351D01*
Y854619D01*
X907863D01*
Y855801D01*
G37*
G36*
G01X907867Y853833D02*
X912355D01*
Y852652D01*
X907867D01*
Y853833D01*
G37*
G36*
G01X907863Y851863D02*
X912351D01*
Y850682D01*
X907863D01*
Y851863D01*
G37*
G36*
G01X907864Y849697D02*
X912352D01*
Y847335D01*
X907864D01*
Y849697D01*
G37*
G36*
G01X907867Y865643D02*
X912355D01*
Y864462D01*
X907867D01*
Y865643D01*
G37*
G36*
G01X907863Y863675D02*
X912351D01*
Y862493D01*
X907863D01*
Y863675D01*
G37*
G36*
G01Y868989D02*
X912351D01*
Y866627D01*
X907863D01*
Y868989D01*
G37*
G36*
G01Y872140D02*
X912351D01*
Y869777D01*
X907863D01*
Y872140D01*
G37*
G36*
G01X924010Y933091D02*
X934246D01*
Y931910D01*
X924010D01*
Y933091D01*
G37*
G36*
G01Y935059D02*
X934246D01*
Y933878D01*
X924010D01*
Y935059D01*
G37*
G36*
G01Y937028D02*
X934246D01*
Y935847D01*
X924010D01*
Y937028D01*
G37*
G36*
G01Y938996D02*
X934246D01*
Y937815D01*
X924010D01*
Y938996D01*
G37*
G36*
G01Y940965D02*
X934246D01*
Y939784D01*
X924010D01*
Y940965D01*
G37*
G36*
G01Y942934D02*
X934246D01*
Y941752D01*
X924010D01*
Y942934D01*
G37*
G36*
G01Y944902D02*
X934246D01*
Y943721D01*
X924010D01*
Y944902D01*
G37*
G36*
G01Y946870D02*
X934246D01*
Y945689D01*
X924010D01*
Y946870D01*
G37*
G36*
G01Y948839D02*
X934246D01*
Y947658D01*
X924010D01*
Y948839D01*
G37*
G36*
G01Y950808D02*
X934246D01*
Y949626D01*
X924010D01*
Y950808D01*
G37*
G36*
G01Y952776D02*
X934246D01*
Y951595D01*
X924010D01*
Y952776D01*
G37*
G36*
G01Y954744D02*
X934246D01*
Y953563D01*
X924010D01*
Y954744D01*
G37*
G36*
G01Y956713D02*
X934246D01*
Y955532D01*
X924010D01*
Y956713D01*
G37*
G36*
G01Y958682D02*
X934246D01*
Y957501D01*
X924010D01*
Y958682D01*
G37*
G36*
G01Y960650D02*
X934246D01*
Y959469D01*
X924010D01*
Y960650D01*
G37*
G36*
G01Y962618D02*
X934246D01*
Y961437D01*
X924010D01*
Y962618D01*
G37*
G36*
G01Y964587D02*
X934246D01*
Y963406D01*
X924010D01*
Y964587D01*
G37*
G36*
G01Y966555D02*
X934246D01*
Y965374D01*
X924010D01*
Y966555D01*
G37*
G36*
G01Y968524D02*
X934246D01*
Y967343D01*
X924010D01*
Y968524D01*
G37*
G36*
G01X997551Y878718D02*
X996606D01*
Y881018D01*
X997551D01*
Y878718D01*
G37*
G36*
G01X999520Y878719D02*
X998575D01*
Y881019D01*
X999520D01*
Y878719D01*
G37*
G36*
G01X1001488D02*
X1000543D01*
Y881019D01*
X1001488D01*
Y878719D01*
G37*
G36*
G01X1003457D02*
X1002512D01*
Y881019D01*
X1003457D01*
Y878719D01*
G37*
G36*
G01X995610Y882007D02*
X993327D01*
Y882951D01*
X995610D01*
Y882007D01*
G37*
G36*
G01Y883975D02*
X993327D01*
Y884919D01*
X995610D01*
Y883975D01*
G37*
G36*
G01Y885944D02*
X993327D01*
Y886888D01*
X995610D01*
Y885944D01*
G37*
G36*
G01Y889881D02*
X993327D01*
Y890825D01*
X995610D01*
Y889881D01*
G37*
G36*
G01Y887912D02*
X993327D01*
Y888856D01*
X995610D01*
Y887912D01*
G37*
G36*
G01Y891849D02*
X993327D01*
Y892793D01*
X995610D01*
Y891849D01*
G37*
G36*
G01X997551Y893789D02*
X996606D01*
Y896073D01*
X997551D01*
Y893789D01*
G37*
G36*
G01X1006334Y883066D02*
X997673D01*
Y891728D01*
X1006334D01*
Y883066D01*
G37*
G36*
G01X999520Y893790D02*
X998575D01*
Y896074D01*
X999520D01*
Y893790D01*
G37*
G36*
G01X1001488D02*
X1000543D01*
Y896074D01*
X1001488D01*
Y893790D01*
G37*
G36*
G01X1003457D02*
X1002512D01*
Y896074D01*
X1003457D01*
Y893790D01*
G37*
G36*
G01X1005425Y878719D02*
X1004480D01*
Y881019D01*
X1005425D01*
Y878719D01*
G37*
G36*
G01X1007394D02*
X1006449D01*
Y881019D01*
X1007394D01*
Y878719D01*
G37*
G36*
G01X1005425Y893790D02*
X1004480D01*
Y896075D01*
X1005425D01*
Y893790D01*
G37*
G36*
G01X1007394D02*
X1006449D01*
Y896074D01*
X1007394D01*
Y893790D01*
G37*
G36*
G01X1010673Y882007D02*
X1008390D01*
Y882951D01*
X1010673D01*
Y882007D01*
G37*
G36*
G01Y883975D02*
X1008390D01*
Y884919D01*
X1010673D01*
Y883975D01*
G37*
G36*
G01Y885944D02*
X1008390D01*
Y886888D01*
X1010673D01*
Y885944D01*
G37*
G36*
G01Y891849D02*
X1008390D01*
Y892793D01*
X1010673D01*
Y891849D01*
G37*
G36*
G01Y887912D02*
X1008390D01*
Y888856D01*
X1010673D01*
Y887912D01*
G37*
G36*
G01Y889881D02*
X1008390D01*
Y890825D01*
X1010673D01*
Y889881D01*
G37*
G54D10*
X886424Y891995D03*
X896660Y895735D03*
Y891995D03*
X886424Y899475D03*
X896660D03*
X919324Y892095D03*
X929560Y895835D03*
Y892095D03*
X919324Y899575D03*
X929560D03*
X948191Y836895D03*
Y844375D03*
X958427D03*
Y840635D03*
Y836895D03*
G54D20*
X971917Y872334D03*
X987665D03*
G54D11*
X890181Y910155D03*
X900637D03*
X933537Y910255D03*
X923081D03*
X977111Y858245D03*
X987567D03*
G54D21*
X985382Y927590D03*
Y920897D03*
X994044Y927590D03*
Y920897D03*
G54D12*
X906408Y880622D03*
X912306Y880624D03*
X939308Y880722D03*
X945206Y880724D03*
G54D13*
X912466Y897534D03*
X906817Y897586D03*
X912466Y903046D03*
X906817Y903098D03*
X942683Y842069D03*
Y836557D03*
X940470Y860015D03*
X940476Y849099D03*
Y854611D03*
X946072Y849099D03*
Y854611D03*
X940470Y865527D03*
X945366Y897634D03*
X939717Y897686D03*
X945366Y903146D03*
X939717Y903198D03*
X946799Y920544D03*
Y926056D03*
X963960Y842093D03*
Y836581D03*
X964270Y858537D03*
Y853025D03*
X964276Y863979D03*
Y869491D03*
X969428Y881464D03*
X963812D03*
X969428Y886976D03*
X963812D03*
X952299Y920544D03*
Y926056D03*
X957899Y920544D03*
Y926056D03*
X994934Y862809D03*
X1000521Y868414D03*
Y873926D03*
X994934Y868321D03*
X996412Y907086D03*
Y901574D03*
X1001552Y922164D03*
Y927676D03*
X1013540Y901728D03*
Y907240D03*
X1029628Y876531D03*
Y871019D03*
X1024412Y912719D03*
Y918231D03*
X1058700Y906244D03*
Y911756D03*
G54D22*
X983821Y935084D03*
X981261D03*
X978702D03*
X976143D03*
X973584D03*
X983821Y937643D03*
X981261D03*
X978702D03*
X976143D03*
X973584D03*
X976143Y940202D03*
X973584D03*
X983821Y942761D03*
X981261D03*
X976143D03*
X973584D03*
X983821Y945320D03*
X981261D03*
X976143D03*
X973584D03*
X983821Y947879D03*
X981261D03*
X976143D03*
X973584D03*
X983821Y950439D03*
X981261D03*
X976143D03*
X973584D03*
X976143Y952998D03*
X973584D03*
X983821Y955557D03*
X981261D03*
X978702D03*
X976143D03*
X973584D03*
X983821Y958116D03*
X981261D03*
X978702D03*
X976143D03*
X973584D03*
X994057Y935084D03*
X991498D03*
X988939D03*
X986380D03*
X996616D03*
X994057Y937643D03*
X991498D03*
X988939D03*
X986380D03*
X996616D03*
X994057Y940202D03*
X996616D03*
X994057Y942761D03*
X988939D03*
X986380D03*
X996616D03*
X994057Y945320D03*
X988939D03*
X986380D03*
X996616D03*
X994057Y947879D03*
X988939D03*
X986380D03*
X996616D03*
X994057Y950439D03*
X988939D03*
X986380D03*
X996616D03*
X994057Y952998D03*
X996616D03*
X994057Y955557D03*
X991498D03*
X988939D03*
X986380D03*
X996616D03*
X994057Y958116D03*
X991498D03*
X988939D03*
X986380D03*
X996616D03*
G54D14*
X906889Y892024D03*
X912401D03*
X950537Y831030D03*
X945025D03*
X939789Y892124D03*
X945301D03*
X955979Y831024D03*
X961491D03*
X953231Y850683D03*
X958743D03*
X953207Y871960D03*
X958719D03*
X979124Y895024D03*
X984636D03*
X984656Y907300D03*
X979144D03*
X984455Y912900D03*
X978944D03*
X985344Y901628D03*
X990856D03*
X1005989Y867789D03*
X1011501D03*
X1044844Y851900D03*
X1050356D03*
G54D23*
X1020759Y859800D03*
X1017019Y868855D03*
X1024499D03*
G54D24*
X1020234Y876313D03*
Y892061D03*
X1049300Y902226D03*
Y917974D03*
G54D15*
X917536Y830935D03*
Y839577D03*
X1033400Y837979D03*
Y846621D03*
G54D25*
X1039099Y842175D03*
X1056303D03*
G54D16*
X924301Y837947D03*
X935679D03*
G54D26*
X1033245Y882671D03*
Y893127D03*
G54D17*
X921560Y853370D03*
Y873842D03*
G54D18*
X950925Y856191D03*
Y866427D03*
X958405Y856191D03*
X954665Y866427D03*
X958405D03*
G54D27*
X1030302Y911605D03*
Y915345D03*
Y919085D03*
X1040932Y915345D03*
Y911605D03*
Y919085D03*
G54D19*
X939471Y947366D03*
Y949334D03*
X942895D03*
Y947366D03*
X939471Y945397D03*
X942895D03*
X939471Y935629D03*
Y937597D03*
Y939566D03*
Y941534D03*
X942895D03*
Y939566D03*
Y937597D03*
Y935629D03*
X939471Y933660D03*
X942895D03*
X939471Y959040D03*
Y961008D03*
Y962977D03*
Y964945D03*
X942895D03*
Y962977D03*
Y961008D03*
Y959040D03*
X939471Y957071D03*
X942895D03*
X939471Y951303D03*
Y953271D03*
X942895D03*
Y951303D03*
G54D28*
X1039118Y902645D03*
X1031634D03*
G54D29*
G01X902385Y1005500D02*
X1059615D01*
G02X1079300Y985815I0J-19685D01*
G01Y834785D01*
G02X1059615Y815100I-19685J0D01*
G01X902385D01*
G02X882700Y834785I0J19685D01*
G01Y985815D01*
G02X902385Y1005500I19685J0D01*
M02*
