G04 ================== begin FILE IDENTIFICATION RECORD ==================*
G04 Layout Name:  F:/Projects/PCB/GitHub/Public/TC358870_Demo/allegro/tc358870_demo.brd*
G04 Film Name:    SILKSCREEN_BOTTOM*
G04 File Format:  Gerber RS274X*
G04 File Origin:  Cadence Allegro 17.4-S039*
G04 Origin Date:  Sun Apr 12 21:18:19 2026*
G04 *
G04 Layer:  BOARD GEOMETRY/DESIGN_OUTLINE*
G04 Layer:  REF DES/SILKSCREEN_BOTTOM*
G04 Layer:  PACKAGE GEOMETRY/SILKSCREEN_BOTTOM*
G04 Layer:  BOARD GEOMETRY/SILKSCREEN_BOTTOM*
G04 *
G04 Offset:    (0.000 0.000)*
G04 Mirror:    No*
G04 Mode:      Positive*
G04 Rotation:  0*
G04 FullContactRelief:  No*
G04 UndefLineWidth:     10.000*
G04 ================== end FILE IDENTIFICATION RECORD ====================*
%FSLAX55Y55*MOIN*%
%IR0*IPPOS*OFA0.00000B0.00000*MIA0B0*SFA1.00000B1.00000*%
%ADD10C,.002*%
%ADD11C,.006*%
%ADD12C,.01*%
G75*
%LPD*%
G75*
G54D10*
G01X1049385Y929636D02*
X1049188Y929439D01*
G01X1049385D02*
X1048991D01*
G01X1049385Y929833D02*
Y929242D01*
G01Y929833D02*
X1048794Y929242D01*
G01X1049385D02*
X1048794D01*
G01X1057180Y925896D02*
X1055684D01*
G01Y926093D02*
Y925896D01*
G01X1057180Y926093D02*
X1055684D01*
G01D02*
X1053716D01*
G01D02*
X1052220D01*
G01Y926762D02*
Y926093D01*
G01X1052377Y926762D02*
X1052220D01*
G01X1052377Y962038D02*
Y926762D01*
G01X1053716Y926093D02*
Y925896D01*
G01D02*
X1052220D01*
G01Y926093D02*
Y925896D01*
G01Y926093D02*
X1052023D01*
G01D02*
X1052220Y925896D01*
G01X1052023Y926762D02*
Y926093D01*
G01X1052220Y926762D02*
X1052023D01*
G01X1056235Y928061D02*
X1053165D01*
G01D02*
X1053046Y927943D01*
G01X1053440D02*
X1053046D01*
G01X1055960D02*
X1053440D01*
G01X1053165Y960739D02*
Y928061D01*
G01X1053440Y927943D02*
Y927746D01*
G01D02*
Y926959D01*
G01D02*
X1052692D01*
G01Y961841D02*
Y926959D01*
G01X1053046Y961841D02*
Y926959D01*
G01X1055960Y927746D02*
X1053440D01*
G01X1052377Y962038D02*
X1052220D01*
G01Y962707D02*
Y962038D01*
G01X1053716Y962707D02*
X1052220D01*
G01X1055684D02*
X1053716D01*
G01X1057180D02*
X1055684D01*
G01X1052220Y962904D02*
Y962707D01*
G01Y962904D02*
X1052023Y962707D01*
G01X1052220D02*
X1052023D01*
G01D02*
Y962038D01*
G01X1052220D02*
X1052023D01*
G01X1055684Y962904D02*
Y962707D01*
G01X1057180Y962904D02*
X1055684D01*
G01X1053716D02*
X1052220D01*
G01X1053716D02*
Y962707D01*
G01X1056235Y960739D02*
X1053165D01*
G01X1053046Y960857D02*
X1053165Y960739D01*
G01X1053440Y960857D02*
X1053046D01*
G01X1055960D02*
X1053440D01*
G01Y961841D02*
X1052692D01*
G01X1053440D02*
Y961053D01*
G01D02*
Y960857D01*
G01X1055960Y961053D02*
X1053440D01*
G01X1057180Y926762D02*
Y926093D01*
G01X1057377Y926762D02*
X1057180D01*
G01X1057377D02*
Y926093D01*
G01D02*
X1057180Y925896D01*
G01Y926093D02*
Y925896D01*
G01X1057377Y926093D02*
X1057180D01*
G01X1056235Y960739D02*
Y928061D01*
G01D02*
X1056353Y927943D01*
G01D02*
X1055960D01*
G01D02*
Y927746D01*
G01D02*
Y926959D01*
G01X1056708D02*
X1055960D01*
G01X1056708Y961841D02*
Y926959D01*
G01X1056353Y961841D02*
Y926959D01*
G01X1057023Y962038D02*
Y926762D01*
G01X1057180D02*
X1057023D01*
G01X1057180Y962904D02*
Y962707D01*
G01Y962904D02*
X1057377Y962707D01*
G01D02*
X1057180D01*
G01D02*
Y962038D01*
G01X1057377D02*
X1057180D01*
G01X1057377Y962707D02*
Y962038D01*
G01X1056353Y960857D02*
X1055960D01*
G01X1056353D02*
X1056235Y960739D01*
G01X1056708Y961841D02*
X1055960D01*
G01D02*
Y961053D01*
G01D02*
Y960857D01*
G01X1057180Y962038D02*
X1057023D01*
G54D11*
G01X900364Y856245D02*
X896589D01*
G01D02*
Y861447D01*
G01X900364D02*
X896589D01*
G01X900370Y850445D02*
X896595D01*
G01D02*
Y855647D01*
G01X900370D02*
X896595D01*
G01X888728Y854797D02*
Y849246D01*
G01X895842Y854797D02*
Y849246D01*
G01X895243Y848646D02*
X889328D01*
G01X888728Y863508D02*
Y857957D01*
G01X895842Y863508D02*
Y857957D01*
G01X895843Y849246D02*
G02X895243Y848646I-600J0D01*
G01X889328D02*
G02X888728Y849246I0J600D01*
G01X898523Y864996D02*
X893464D01*
G01D02*
Y872218D01*
G01X898523D02*
X893464D01*
G01X895243Y864108D02*
X889328D01*
G01X895243D02*
G02X895843Y863508I0J-600D01*
G01X888728D02*
G02X889328Y864108I600J0D01*
G01X907495Y856245D02*
X903720D01*
G01X907495D02*
Y861447D01*
G01D02*
X903720D01*
G01X907501Y850445D02*
X903726D01*
G01X907501D02*
Y855647D01*
G01D02*
X903726D01*
G01X907332Y864996D02*
X902273D01*
G01X907332D02*
Y872218D01*
G01D02*
X902273D01*
G01X904659Y929096D02*
X899600D01*
G01D02*
Y936318D01*
G01X913468Y929096D02*
X908409D01*
G01X913468D02*
Y936318D01*
G01X904659D02*
X899600D01*
G01X913468D02*
X908409D01*
G01X905067Y943972D02*
X899516D01*
G01X905067Y936858D02*
X899516D01*
G01X898916Y937457D02*
Y943372D01*
G01X913778Y943972D02*
X908227D01*
G01X913778Y936858D02*
X908227D01*
G01X914378Y937457D02*
Y943372D01*
G01X899516Y936857D02*
G02X898916Y937457I0J600D01*
G01Y943372D02*
G02X899516Y943972I600J0D01*
G01X914378Y937457D02*
G02X913778Y936857I-600J0D01*
G01Y943972D02*
G02X914378Y943372I0J-600D01*
G01X953101Y858645D02*
X949326D01*
G01D02*
Y863847D01*
G01X953101D02*
X949326D01*
G01X950645Y842199D02*
Y845974D01*
G01X955847Y842199D02*
Y845974D01*
G01X950645Y835068D02*
Y838843D01*
G01Y835068D02*
X955847D01*
G01D02*
Y838843D01*
G01X950645Y845974D02*
X955847D01*
G01X960232Y858645D02*
X956457D01*
G01X960232D02*
Y863847D01*
G01D02*
X956457D01*
G01X966999Y966147D02*
Y969922D01*
G01Y966147D02*
X972201D01*
G01X966999Y973278D02*
Y977053D01*
G01D02*
X972201D01*
G01X979799Y926578D02*
Y930353D01*
G01D02*
X985001D01*
G01Y926578D02*
Y930353D01*
G01X979799Y919447D02*
Y923222D01*
G01Y919447D02*
X985001D01*
G01D02*
Y923222D01*
G01X974599Y926578D02*
Y930353D01*
G01D02*
X979801D01*
G01Y926578D02*
Y930353D01*
G01X974599Y919447D02*
Y923222D01*
G01Y919447D02*
X979801D01*
G01D02*
Y923222D01*
G01X977899Y966147D02*
Y969922D01*
G01Y966147D02*
X983101D01*
G01D02*
Y969922D01*
G01X972199Y966147D02*
Y969922D01*
G01Y966147D02*
X977401D01*
G01D02*
Y969922D01*
G01X972201Y966147D02*
Y969922D01*
G01X976022Y976999D02*
X972247D01*
G01D02*
Y982201D01*
G01X976022D02*
X972247D01*
G01X983153Y976999D02*
X979378D01*
G01X983153D02*
Y982201D01*
G01D02*
X979378D01*
G01X977899Y973278D02*
Y977053D01*
G01D02*
X983101D01*
G01Y973278D02*
Y977053D01*
G01X972199Y973278D02*
Y977053D01*
G01D02*
X977401D01*
G01Y973278D02*
Y977053D01*
G01X972201Y973278D02*
Y977053D01*
G01X1016461Y885845D02*
X1012686D01*
G01D02*
Y891047D01*
G01X1016461D02*
X1012686D01*
G01X1023592Y885845D02*
X1019817D01*
G01X1023592Y891047D02*
X1019817D01*
G01X1023592Y885845D02*
Y891047D01*
G01X1033045Y910644D02*
Y914419D01*
G01Y910644D02*
X1038247D01*
G01D02*
Y914419D01*
G01X1033045Y917775D02*
Y921550D01*
G01D02*
X1038247D01*
G01Y917775D02*
Y921550D01*
G54D12*
G01X884372Y896752D02*
X887522D01*
G01X889728Y896754D02*
X892878D01*
G01X894098Y897974D02*
G02X892878Y896754I-1220J0D01*
G01X884373Y896752D02*
G02X883153Y897972I0J1220D01*
G01X884372Y902342D02*
X887522D01*
G01X889728Y902343D02*
X892878D01*
G01X883153Y901122D02*
Y897972D01*
G01X894097Y901124D02*
Y897974D01*
G01X892878Y902343D02*
G02X894098Y901124I1J-1219D01*
G01X883153Y901122D02*
G02X884373Y902342I1220J0D01*
G01X913818Y894672D02*
X910668D01*
G01X908462Y894671D02*
X905312D01*
G01X915037Y895892D02*
Y899042D01*
G01X904093Y895890D02*
Y899040D01*
G01X905312Y894671D02*
G02X904092Y895890I-1J1219D01*
G01X915037Y895892D02*
G02X913817Y894672I-1220J0D01*
G01X913838Y889102D02*
X910688D01*
G01X908482Y889101D02*
X905332D01*
G01X913838Y894692D02*
X910688D01*
G01X908482Y894690D02*
X905332D01*
G01X915057Y890322D02*
Y893472D01*
G01X904113Y890320D02*
Y893470D01*
G01X904112D02*
G02X905332Y894690I1220J0D01*
G01Y889101D02*
G02X904112Y890320I-1J1219D01*
G01X915057Y890322D02*
G02X913837Y889102I-1220J0D01*
G01Y894692D02*
G02X915057Y893472I0J-1220D01*
G01X913818Y900262D02*
X910668D01*
G01X908462Y900260D02*
X905312D01*
G01X904092Y899040D02*
G02X905312Y900260I1220J0D01*
G01X913817Y900262D02*
G02X915037Y899042I0J-1220D01*
G01X913863Y900272D02*
X910713D01*
G01X908507Y900271D02*
X905357D01*
G01X913863Y905862D02*
X910713D01*
G01X908507Y905860D02*
X905357D01*
G01X915082Y901492D02*
Y904642D01*
G01X904138Y901490D02*
Y904640D01*
G01X904137D02*
G02X905357Y905860I1220J0D01*
G01Y900271D02*
G02X904137Y901490I-1J1219D01*
G01X915082Y901492D02*
G02X913862Y900272I-1220J0D01*
G01Y905862D02*
G02X915082Y904642I0J-1220D01*
G01X910843Y944182D02*
X907693D01*
G01X905487Y944181D02*
X902337D01*
G01X910843Y949772D02*
X907693D01*
G01X905487Y949770D02*
X902337D01*
G01X912062Y945402D02*
Y948552D01*
G01X901118Y945400D02*
Y948550D01*
G01X901117D02*
G02X902337Y949770I1220J0D01*
G01Y944181D02*
G02X901117Y945400I-1J1219D01*
G01X912062Y945402D02*
G02X910842Y944182I-1220J0D01*
G01Y949772D02*
G02X912062Y948552I0J-1220D01*
G01X914983Y967433D02*
Y964283D01*
G01X914985Y962077D02*
Y958927D01*
G01X916205Y957707D02*
G02X914985Y958927I0J1220D01*
G01X914983Y967432D02*
G02X916203Y968652I1220J0D01*
G01X917272Y896852D02*
X920422D01*
G01X922628Y896854D02*
X925778D01*
G01X926998Y898074D02*
G02X925778Y896854I-1220J0D01*
G01X917273Y896852D02*
G02X916053Y898072I0J1220D01*
G01X917272Y902442D02*
X920422D01*
G01X922628Y902443D02*
X925778D01*
G01X916053Y901222D02*
Y898072D01*
G01X926997Y901224D02*
Y898074D01*
G01X925778Y902443D02*
G02X926998Y901224I1J-1219D01*
G01X916053Y901222D02*
G02X917273Y902442I1220J0D01*
G01X920573Y967433D02*
Y964283D01*
G01X920574Y962077D02*
Y958927D01*
G01X919355Y957708D02*
X916205D01*
G01X920574Y958927D02*
G02X919355Y957707I-1219J-1D01*
G01X919353Y968652D02*
G02X920573Y967432I0J-1220D01*
G01X919353Y968652D02*
X916203D01*
G01X943547Y833818D02*
X946697D01*
G01X948903Y833819D02*
X952053D01*
G01X943547Y828228D02*
X946697D01*
G01X948903Y828230D02*
X952053D01*
G01X942328Y832598D02*
Y829448D01*
G01Y832598D02*
G02X943548Y833818I1220J0D01*
G01Y828228D02*
G02X942328Y829448I0J1220D01*
G01X939872Y835067D02*
Y838217D01*
G01X939871Y840423D02*
Y843573D01*
G01X945462Y835067D02*
Y838217D01*
G01X945460Y840423D02*
Y843573D01*
G01X941092Y833848D02*
X944242D01*
G01X941090Y844792D02*
X944240D01*
G01Y844793D02*
G02X945460Y843573I0J-1220D01*
G01X939871D02*
G02X941090Y844793I1219J1D01*
G01X941092Y833848D02*
G02X939872Y835068I0J1220D01*
G01X945462D02*
G02X944242Y833848I-1220J0D01*
G01X950508Y849090D02*
Y852240D01*
G01X950507D02*
G02X951727Y853460I1220J0D01*
G01Y847871D02*
G02X950507Y849090I-1J1219D01*
G01X950528Y870324D02*
Y873474D01*
G01X950527D02*
G02X951747Y874694I1220J0D01*
G01Y869105D02*
G02X950527Y870324I-1J1219D01*
G01X946718Y894772D02*
X943568D01*
G01X941362Y894771D02*
X938212D01*
G01X947937Y895992D02*
Y899142D01*
G01X936993Y895990D02*
Y899140D01*
G01X938212Y894771D02*
G02X936992Y895990I-1J1219D01*
G01X947937Y895992D02*
G02X946717Y894772I-1220J0D01*
G01X946738Y889202D02*
X943588D01*
G01X941382D02*
X938232Y889201D01*
G01X946738Y894792D02*
X943588D01*
G01X941382Y894790D02*
X938232D01*
G01X947957Y890422D02*
Y893572D01*
G01X937013Y890420D02*
Y893570D01*
G01X937012D02*
G02X938232Y894790I1220J0D01*
G01Y889201D02*
G02X937012Y890421I-1J1219D01*
G01X947957Y890422D02*
G02X946737Y889202I-1220J0D01*
G01X946738Y894792D02*
G02X947957Y893572I-1J-1220D01*
G01X946763Y900372D02*
X943613D01*
G01X941407Y900371D02*
X938257D01*
G01X946763Y905962D02*
X943613D01*
G01X941407Y905960D02*
X938257D01*
G01X947982Y901592D02*
Y904742D01*
G01X937038Y901590D02*
Y904740D01*
G01X937037D02*
G02X938257Y905960I1220J0D01*
G01Y900371D02*
G02X937037Y901590I-1J1219D01*
G01X947982Y901592D02*
G02X946762Y900372I-1220J0D01*
G01Y905962D02*
G02X947982Y904742I0J-1220D01*
G01X946718Y900362D02*
X943568D01*
G01X941362Y900360D02*
X938212D01*
G01X936992Y899140D02*
G02X938212Y900360I1220J0D01*
G01X946717Y900362D02*
G02X947937Y899142I0J-1220D01*
G01X962998Y828227D02*
X959848D01*
G01X957642Y828226D02*
X954492D01*
G01X962998Y833817D02*
X959848D01*
G01X957642Y833815D02*
X954492D01*
G01X964217Y829447D02*
Y832597D01*
G01X953273Y829445D02*
Y832595D01*
G01X953272D02*
G02X954492Y833815I1220J0D01*
G01Y828226D02*
G02X953272Y829445I-1J1219D01*
G01X964217Y829447D02*
G02X962997Y828227I-1220J0D01*
G01Y833817D02*
G02X964217Y832597I0J-1220D01*
G01X953272Y832600D02*
Y829450D01*
G01X953273D02*
G02X952053Y828230I-1220J0D01*
G01Y833819D02*
G02X953273Y832600I1J-1219D01*
G01X961206Y835047D02*
Y838197D01*
G01X961205Y840403D02*
Y843553D01*
G01X966796Y835047D02*
Y838197D01*
G01X966794Y840403D02*
Y843553D01*
G01X962426Y833828D02*
X965576D01*
G01X962424Y844772D02*
X965574D01*
G01Y844773D02*
G02X966794Y843553I0J-1220D01*
G01X961205D02*
G02X962424Y844773I1219J1D01*
G01X962426Y833828D02*
G02X961206Y835048I0J1220D01*
G01X966796D02*
G02X965576Y833828I-1220J0D01*
G01X961482Y851547D02*
Y854697D01*
G01X961481Y856903D02*
Y860053D01*
G01X967072Y851547D02*
Y854697D01*
G01X967070Y856903D02*
Y860053D01*
G01X962702Y850328D02*
X965852D01*
G01X962700Y861272D02*
X965850D01*
G01Y861273D02*
G02X967070Y860053I0J-1220D01*
G01X961481D02*
G02X962700Y861273I1219J1D01*
G01X962702Y850328D02*
G02X961482Y851548I0J1220D01*
G01X967072D02*
G02X965852Y850328I-1220J0D01*
G01X967074Y865642D02*
Y862492D01*
G01X961485Y865642D02*
Y862492D01*
G01X965855Y861273D02*
X962705D01*
G01Y861272D02*
G02X961485Y862492I0J1220D01*
G01X967074D02*
G02X965855Y861272I-1219J-1D01*
G01X960233Y847872D02*
X957083D01*
G01X954877Y847871D02*
X951727D01*
G01X960233Y853462D02*
X957083D01*
G01X954877Y853460D02*
X951727D01*
G01X961452Y849092D02*
Y852242D01*
G01Y849092D02*
G02X960232Y847872I-1220J0D01*
G01Y853462D02*
G02X961452Y852242I0J-1220D01*
G01X967073Y870998D02*
Y867848D01*
G01X961483Y870998D02*
Y867848D01*
G01X965853Y872217D02*
X962703D01*
G01X965853D02*
G02X967073Y870997I0J-1220D01*
G01X961483D02*
G02X962703Y872217I1220J0D01*
G01X960253Y869106D02*
X957103D01*
G01X954897Y869105D02*
X951747D01*
G01X960253Y874696D02*
X957103D01*
G01X954897Y874694D02*
X951747D01*
G01X961472Y870326D02*
Y873476D01*
G01Y870326D02*
G02X960252Y869106I-1220J0D01*
G01Y874696D02*
G02X961472Y873476I0J-1220D01*
G01X965392Y930432D02*
X968542D01*
G01X964173Y934802D02*
Y931652D01*
G01X965393Y930432D02*
G02X964173Y931652I0J1220D01*
G01X965382Y941573D02*
X968532D01*
G01X965382Y935983D02*
X968532D01*
G01X964163Y940353D02*
Y937203D01*
G01Y940353D02*
G02X965383Y941573I1220J0D01*
G01Y935983D02*
G02X964163Y937203I0J1220D01*
G01X971297Y948805D02*
X968147D01*
G01X966928Y950024D02*
Y953174D01*
G01X968147Y948805D02*
G02X966927Y950024I-1J1219D01*
G01X971297Y943205D02*
X968147D01*
G01X971297Y948794D02*
X968147D01*
G01X966928Y944424D02*
Y947574D01*
G01X966927D02*
G02X968147Y948794I1220J0D01*
G01Y943205D02*
G02X966927Y944424I-1J1219D01*
G01X965392Y936022D02*
X968542D01*
G01X964173Y934802D02*
G02X965393Y936022I1220J0D01*
G01X971297Y954394D02*
X968147D01*
G01X966927Y953174D02*
G02X968147Y954394I1220J0D01*
G01X961806Y955647D02*
Y958797D01*
G01X961805Y961003D02*
Y964153D01*
G01X967396Y955647D02*
Y958797D01*
G01X967394Y961003D02*
Y964153D01*
G01X963026Y954428D02*
X966176D01*
G01X963024Y965372D02*
X966174D01*
G01Y965373D02*
G02X967394Y964153I0J-1220D01*
G01X961805D02*
G02X963024Y965373I1219J1D01*
G01X963026Y954428D02*
G02X961806Y955648I0J1220D01*
G01X967396D02*
G02X966176Y954428I-1220J0D01*
G01X967406Y955647D02*
Y958797D01*
G01X967405Y961003D02*
Y964153D01*
G01D02*
G02X968624Y965373I1219J1D01*
G01X968626Y954428D02*
G02X967406Y955648I0J1220D01*
G01X985763Y930327D02*
X982613D01*
G01X980407Y930326D02*
X977257D01*
G01X976038Y931545D02*
Y934695D01*
G01X977257Y930326D02*
G02X976037Y931545I-1J1219D01*
G01X986982Y931547D02*
G02X985762Y930327I-1220J0D01*
G01X970748Y930434D02*
X973898D01*
G01X975117Y934804D02*
Y931654D01*
G01X975118D02*
G02X973898Y930434I-1220J0D01*
G01X970738Y941574D02*
X973888D01*
G01X970738Y935985D02*
X973888D01*
G01X975107Y940355D02*
Y937205D01*
G01X975108D02*
G02X973888Y935985I-1220J0D01*
G01Y941574D02*
G02X975108Y940355I1J-1219D01*
G01X985763Y935917D02*
X982613D01*
G01X980407Y935915D02*
X977257D01*
G01X976037Y934695D02*
G02X977257Y935915I1220J0D01*
G01X985762Y935917D02*
G02X986982Y934697I0J-1220D01*
G01X976653Y948806D02*
X973503D01*
G01X977872Y950026D02*
Y953176D01*
G01Y950026D02*
G02X976652Y948806I-1220J0D01*
G01X985753Y935917D02*
X982603D01*
G01X980397Y935916D02*
X977247D01*
G01X985753Y941507D02*
X982603D01*
G01X980397Y941505D02*
X977247D01*
G01X976028Y937135D02*
Y940285D01*
G01X976027D02*
G02X977247Y941505I1220J0D01*
G01Y935916D02*
G02X976027Y937135I-1J1219D01*
G01X986972Y937137D02*
G02X985752Y935917I-1220J0D01*
G01Y941507D02*
G02X986972Y940287I0J-1220D01*
G01X976653Y943206D02*
X973503D01*
G01X976653Y948796D02*
X973503D01*
G01X977872Y944426D02*
Y947576D01*
G01Y944426D02*
G02X976652Y943206I-1220J0D01*
G01Y948796D02*
G02X977872Y947576I0J-1220D01*
G01X970748Y936023D02*
X973898D01*
G01D02*
G02X975118Y934804I1J-1219D01*
G01X976653Y954396D02*
X973503D01*
G01X976652D02*
G02X977872Y953176I0J-1220D01*
G01X972927Y955557D02*
Y958707D01*
G01X972926Y960913D02*
Y964063D01*
G01X978517Y955557D02*
Y958707D01*
G01X978515Y960913D02*
Y964063D01*
G01X974147Y954338D02*
X977297D01*
G01X974145Y965282D02*
X977295D01*
G01Y965283D02*
G02X978515Y964063I0J-1220D01*
G01X972926D02*
G02X974145Y965283I1219J1D01*
G01X974147Y954338D02*
G02X972927Y955558I0J1220D01*
G01X978517D02*
G02X977297Y954338I-1220J0D01*
G01X978517Y955512D02*
Y958662D01*
G01X978516Y960868D02*
Y964018D01*
G01X984107Y955512D02*
Y958662D01*
G01X984105Y960868D02*
Y964018D01*
G01X979737Y954293D02*
X982887D01*
G01X979735Y965237D02*
X982885D01*
G01Y965238D02*
G02X984105Y964018I0J-1220D01*
G01X978516D02*
G02X979735Y965238I1219J1D01*
G01X979737Y954293D02*
G02X978517Y955513I0J1220D01*
G01X984107D02*
G02X982887Y954293I-1220J0D01*
G01X972996Y955647D02*
Y958797D01*
G01X972994Y961003D02*
Y964153D01*
G01X968626Y954428D02*
X971776D01*
G01X968624Y965372D02*
X971774D01*
G01Y965373D02*
G02X972994Y964153I0J-1220D01*
G01X972996Y955648D02*
G02X971776Y954428I-1220J0D01*
G01X1004972Y885726D02*
X1001822D01*
G01X1004972Y891315D02*
X1001822D01*
G01X1000603Y886945D02*
Y890095D01*
G01X1000602D02*
G02X1001822Y891315I1220J0D01*
G01Y885726D02*
G02X1000602Y886945I-1J1219D01*
G01X986982Y931547D02*
Y934697D01*
G01X998173Y931953D02*
Y928803D01*
G01X998174Y926597D02*
Y923447D01*
G01X992583Y931953D02*
Y928803D01*
G01X992585Y926597D02*
Y923447D01*
G01X996955Y922228D02*
X993805D01*
G01Y922227D02*
G02X992585Y923447I0J1220D01*
G01X998174D02*
G02X996955Y922227I-1219J-1D01*
G01X996953Y933172D02*
G02X998173Y931952I0J-1220D01*
G01X992583D02*
G02X993803Y933172I1220J0D01*
G01X999372Y931538D02*
X1002522D01*
G01X998153Y935908D02*
Y932758D01*
G01X999373Y931538D02*
G02X998153Y932758I0J1220D01*
G01X992583Y931943D02*
Y928793D01*
G01X992584Y926587D02*
Y923437D01*
G01X986993Y931943D02*
Y928793D01*
G01X986995Y926587D02*
Y923437D01*
G01X991365Y922218D02*
X988215D01*
G01Y922217D02*
G02X986995Y923437I0J1220D01*
G01X992584D02*
G02X991365Y922217I-1219J-1D01*
G01X991363Y933162D02*
G02X992583Y931942I0J-1220D01*
G01X986993D02*
G02X988213Y933162I1220J0D01*
G01X999427Y931538D02*
X1002577D01*
G01X999427Y925948D02*
X1002577D01*
G01X998208Y930318D02*
Y927168D01*
G01Y930318D02*
G02X999428Y931538I1220J0D01*
G01Y925948D02*
G02X998208Y927168I0J1220D01*
G01X996953Y933172D02*
X993803D01*
G01X999412Y946483D02*
X1002562D01*
G01X998193Y950853D02*
Y947703D01*
G01X999413Y946483D02*
G02X998193Y947703I0J1220D01*
G01X987006Y938547D02*
Y941697D01*
G01X987005Y943903D02*
Y947053D01*
G01X992596Y938547D02*
Y941697D01*
G01X992594Y943903D02*
Y947053D01*
G01X988226Y937328D02*
X991376D01*
G01X988224Y948272D02*
X991374D01*
G01Y948273D02*
G02X992594Y947053I0J-1220D01*
G01X987005D02*
G02X988224Y948273I1219J1D01*
G01X988226Y937328D02*
G02X987006Y938548I0J1220D01*
G01X992596D02*
G02X991376Y937328I-1220J0D01*
G01X999372Y937128D02*
X1002522D01*
G01X998153Y935908D02*
G02X999373Y937128I1220J0D01*
G01X986972Y937137D02*
Y940287D01*
G01X991363Y933162D02*
X988213D01*
G01X999367Y946483D02*
X1002517D01*
G01X999367Y940893D02*
X1002517D01*
G01X998148Y945263D02*
Y942113D01*
G01Y945263D02*
G02X999368Y946483I1220J0D01*
G01Y940893D02*
G02X998148Y942113I0J1220D01*
G01X992606Y938547D02*
Y941697D01*
G01X992605Y943903D02*
Y947053D01*
G01X998196Y938547D02*
Y941697D01*
G01X998194Y943903D02*
Y947053D01*
G01X993826Y937328D02*
X996976D01*
G01X993824Y948272D02*
X996974D01*
G01Y948273D02*
G02X998194Y947053I0J-1220D01*
G01X992605D02*
G02X993824Y948273I1219J1D01*
G01X993826Y937328D02*
G02X992606Y938548I0J1220D01*
G01X998196D02*
G02X996976Y937328I-1220J0D01*
G01X999412Y952073D02*
X1002562D01*
G01X998193Y950853D02*
G02X999413Y952073I1220J0D01*
G01X999427Y963228D02*
X1002577D01*
G01X999427Y957638D02*
X1002577D01*
G01X998208Y962008D02*
Y958858D01*
G01Y962008D02*
G02X999428Y963228I1220J0D01*
G01Y957638D02*
G02X998208Y958858I0J1220D01*
G01X1002646Y957795D02*
X1005796D01*
G01X1002646Y952204D02*
X1005796D01*
G01X1001428Y956575D02*
Y953425D01*
G01Y956575D02*
G02X1002648Y957795I1220J0D01*
G01Y952204D02*
G02X1001428Y953425I0J1220D01*
G01X1010328Y885727D02*
X1007178D01*
G01X1010328Y891317D02*
X1007178D01*
G01X1011547Y886947D02*
Y890097D01*
G01Y886947D02*
G02X1010327Y885727I-1220J0D01*
G01Y891317D02*
G02X1011547Y890097I0J-1220D01*
G01X1004728Y931540D02*
X1007878D01*
G01X1009097Y935910D02*
Y932760D01*
G01X1009098D02*
G02X1007878Y931540I-1220J0D01*
G01X1004783Y931539D02*
X1007933D01*
G01X1004783Y925950D02*
X1007933D01*
G01X1009152Y930320D02*
Y927170D01*
G01X1009153D02*
G02X1007933Y925950I-1220J0D01*
G01Y931539D02*
G02X1009153Y930320I1J-1219D01*
G01X1004768Y946485D02*
X1007918D01*
G01X1009137Y950855D02*
Y947705D01*
G01X1009138D02*
G02X1007918Y946485I-1220J0D01*
G01X1004728Y937129D02*
X1007878D01*
G01D02*
G02X1009098Y935910I1J-1219D01*
G01X1004723Y946484D02*
X1007873D01*
G01X1004723Y940895D02*
X1007873D01*
G01X1009092Y945265D02*
Y942115D01*
G01X1009093D02*
G02X1007873Y940895I-1220J0D01*
G01Y946484D02*
G02X1009093Y945265I1J-1219D01*
G01X1004768Y952074D02*
X1007918D01*
G01D02*
G02X1009138Y950855I1J-1219D01*
G01X1004783Y963229D02*
X1007933D01*
G01X1004783Y957640D02*
X1007933D01*
G01X1009152Y962010D02*
Y958860D01*
G01X1009153D02*
G02X1007933Y957640I-1220J0D01*
G01Y963229D02*
G02X1009153Y962010I1J-1219D01*
G01X1008002Y957795D02*
X1011152D01*
G01X1008002Y952207D02*
X1011152D01*
G01X1012371Y956577D02*
Y953427D01*
G01X1012372D02*
G02X1011152Y952207I-1220J0D01*
G01Y957795D02*
G02X1012372Y956577I1J-1219D01*
G01X902385Y1005500D02*
X1059615D01*
G02X1079300Y985815I0J-19685D01*
G01Y834785D01*
G02X1059615Y815100I-19685J0D01*
G01X902385D01*
G02X882700Y834785I0J19685D01*
G01Y985815D01*
G02X902385Y1005500I19685J0D01*
M02*
