G04 ================== begin FILE IDENTIFICATION RECORD ==================*
G04 Layout Name:  F:/Projects/PCB/GitHub/Public/TC358870_Demo/allegro/tc358870_demo.brd*
G04 Film Name:    SOLDMASK_BOTTOM*
G04 File Format:  Gerber RS274X*
G04 File Origin:  Cadence Allegro 17.4-S039*
G04 Origin Date:  Sun Apr 12 21:18:19 2026*
G04 *
G04 Layer:  PIN/SOLDERMASK_BOTTOM*
G04 Layer:  PACKAGE GEOMETRY/SOLDERMASK_BOTTOM*
G04 Layer:  BOARD GEOMETRY/SOLDERMASK_BOTTOM*
G04 Layer:  BOARD GEOMETRY/DESIGN_OUTLINE*
G04 *
G04 Offset:    (0.000 0.000)*
G04 Mirror:    No*
G04 Mode:      Positive*
G04 Rotation:  0*
G04 FullContactRelief:  No*
G04 UndefLineWidth:     10.000*
G04 ================== end FILE IDENTIFICATION RECORD ====================*
%FSLAX55Y55*MOIN*%
%IR0*IPPOS*OFA0.00000B0.00000*MIA0B0*SFA1.00000B1.00000*%
%ADD15O,.094488X.062988*%
%ADD10C,.134*%
%ADD17O,.133858X.062988*%
%ADD20R,.025591X.011811*%
%ADD19R,.03802X.035748*%
%ADD18R,.039429X.0355*%
%ADD12R,.05715X.059512*%
%ADD16R,.059512X.05715*%
%ADD14R,.0355X.039429*%
%ADD11R,.035748X.03802*%
%ADD13R,.048591X.058209*%
%ADD21C,.01*%
G75*
%LPD*%
G75*
G54D10*
X897650Y827550D03*
X896850Y992250D03*
X1066750Y829850D03*
X1066250Y991250D03*
G54D11*
X899076Y858846D03*
X899082Y853046D03*
X905008Y858846D03*
X905014Y853046D03*
X951813Y861246D03*
X957745D03*
X974734Y979600D03*
X980666D03*
X1015173Y888446D03*
X1021105D03*
G54D20*
X1051058Y927865D03*
Y932589D03*
Y931014D03*
Y929439D03*
Y942038D03*
Y940463D03*
Y938888D03*
Y937313D03*
Y935739D03*
Y934164D03*
Y949912D03*
Y948337D03*
Y946762D03*
Y945187D03*
Y943613D03*
Y960935D03*
Y959361D03*
Y957786D03*
Y956211D03*
Y954636D03*
Y953061D03*
Y951487D03*
X1058342Y927865D03*
Y929439D03*
Y931014D03*
Y932589D03*
Y934164D03*
Y935739D03*
Y937313D03*
Y938888D03*
Y940463D03*
Y942038D03*
Y943613D03*
Y945187D03*
Y946762D03*
Y948337D03*
Y949912D03*
Y960935D03*
Y951487D03*
Y953061D03*
Y954636D03*
Y956211D03*
Y957786D03*
Y959361D03*
G54D21*
G01X902385Y1005500D02*
X1059615D01*
G02X1079300Y985815I0J-19685D01*
G01Y834785D01*
G02X1059615Y815100I-19685J0D01*
G01X902385D01*
G02X882700Y834785I0J19685D01*
G01Y985815D01*
G02X902385Y1005500I19685J0D01*
G54D12*
X892285Y852440D03*
Y860314D03*
G54D13*
X896461Y868607D03*
X904335D03*
X902597Y932707D03*
X910471D03*
G54D14*
X891381Y899548D03*
X885869D03*
X906809Y897466D03*
X912321D03*
X906829Y891896D03*
X912341D03*
X906854Y903066D03*
X912366D03*
X903834Y946976D03*
X909346D03*
X924281Y899648D03*
X918769D03*
X950556Y831024D03*
X945044D03*
X939709Y897566D03*
X945221D03*
X939729Y891996D03*
X945241D03*
X939754Y903166D03*
X945266D03*
X955989Y831021D03*
X961501D03*
X953224Y850666D03*
X958736D03*
X953244Y871900D03*
X958756D03*
X966889Y933228D03*
X966879Y938779D03*
X978754Y933121D03*
X984266D03*
X972401Y933228D03*
X972391Y938779D03*
X969644Y951600D03*
X975156D03*
X978744Y938711D03*
X984256D03*
X969644Y946000D03*
X975156D03*
X1003319Y888521D03*
X1000869Y934334D03*
X1000924Y928744D03*
X1000909Y949279D03*
X1000864Y943689D03*
X1000924Y960434D03*
X1004144Y955001D03*
X1008831Y888521D03*
X1006381Y934334D03*
X1006436Y928744D03*
X1006421Y949279D03*
X1006376Y943689D03*
X1006436Y960434D03*
X1009656Y955001D03*
G54D15*
X902671Y921674D03*
Y978761D03*
G54D16*
X902710Y940415D03*
X910584D03*
G54D17*
X926137Y921674D03*
X926136Y978761D03*
G54D18*
X917779Y960424D03*
Y965936D03*
X942666Y842076D03*
Y836564D03*
X964000Y842056D03*
Y836544D03*
X964276Y858556D03*
Y853044D03*
X964279Y863989D03*
Y869501D03*
X964600Y962656D03*
Y957144D03*
X975721Y962566D03*
Y957054D03*
X981311Y962521D03*
Y957009D03*
X970200Y962656D03*
Y957144D03*
X995379Y924944D03*
Y930456D03*
X989789Y924934D03*
Y930446D03*
X989800Y945556D03*
Y940044D03*
X995400Y945556D03*
Y940044D03*
G54D19*
X953246Y843487D03*
Y837555D03*
X969600Y968634D03*
Y974566D03*
X982400Y927866D03*
Y921934D03*
X977200Y927866D03*
Y921934D03*
X980500Y968634D03*
X974800D03*
X980500Y974566D03*
X974800D03*
X1035646Y913131D03*
Y919063D03*
M02*
